<svg xmlns="http://www.w3.org/2000/svg" xmlns:xlink="http://www.w3.org/1999/xlink" width="1920" zoomAndPan="magnify" viewBox="0 0 1440 809.999993" height="1080" preserveAspectRatio="xMidYMid meet" version="1.0"><defs><g/><clipPath id="6acb4ae4ec"><path d="M 0 780.375 L 1081.507812 780.375 L 1081.507812 810 L 0 810 Z M 0 780.375 " clip-rule="nonzero"/></clipPath><clipPath id="08bbba61f5"><path d="M 0 0.375 L 1081.507812 0.375 L 1081.507812 30 L 0 30 Z M 0 0.375 " clip-rule="nonzero"/></clipPath><clipPath id="9ef0c0925f"><rect x="0" width="1082" y="0" height="30"/></clipPath><clipPath id="93d0166047"><path d="M 1081.507812 760.367188 L 1440 760.367188 L 1440 810 L 1081.507812 810 Z M 1081.507812 760.367188 " clip-rule="nonzero"/></clipPath><clipPath id="f9ef29662e"><path d="M 0.507812 0.367188 L 359 0.367188 L 359 50 L 0.507812 50 Z M 0.507812 0.367188 " clip-rule="nonzero"/></clipPath><clipPath id="3559e392c9"><rect x="0" width="359" y="0" height="50"/></clipPath><clipPath id="a8c26405d9"><path d="M 750 82 L 1044.34375 82 L 1044.34375 668 L 750 668 Z M 750 82 " clip-rule="nonzero"/></clipPath><clipPath id="e178370351"><path d="M 395.59375 598 L 559 598 L 559 703 L 395.59375 703 Z M 395.59375 598 " clip-rule="nonzero"/></clipPath><clipPath id="f59171e31c"><path d="M 1303.066406 0 L 1440 0 L 1440 263.015625 L 1303.066406 263.015625 Z M 1303.066406 0 " clip-rule="nonzero"/></clipPath></defs><g clip-path="url(#6acb4ae4ec)"><g transform="matrix(1, 0, 0, 1, 0, 780)"><g clip-path="url(#9ef0c0925f)"><g clip-path="url(#08bbba61f5)"><path fill="#000000" d="M -43.4375 0.375 L 1081.527344 0.375 L 1081.527344 62.777344 L -43.4375 62.777344 Z M -43.4375 0.375 " fill-opacity="1" fill-rule="nonzero"/></g></g></g></g><g clip-path="url(#93d0166047)"><g transform="matrix(1, 0, 0, 1, 1081, 760)"><g clip-path="url(#3559e392c9)"><g clip-path="url(#f9ef29662e)"><path fill="#fed101" d="M 0.507812 0.367188 L 401.3125 0.367188 L 401.3125 69.367188 L 0.507812 69.367188 Z M 0.507812 0.367188 " fill-opacity="1" fill-rule="nonzero"/></g></g></g></g><g clip-path="url(#a8c26405d9)"><path fill="#000000" d="M 763.507812 403.875 L 763.507812 123.644531 C 763.507812 109.589844 774.898438 98.199219 788.953125 98.199219 L 1006.285156 82.257812 C 1006.777344 82.222656 1007.273438 82.199219 1007.769531 82.230469 C 1021.882812 83.152344 1044.292969 109.832031 1044.292969 123.644531 L 1044.292969 628.367188 C 1044.292969 650.070312 1026.699219 667.664062 1004.996094 667.664062 L 773.074219 667.664062 C 759.910156 667.664062 750.945312 641.5 750.945312 641.5 L 763.507812 403.875 " fill-opacity="1" fill-rule="nonzero"/></g><path fill="#ffffff" d="M 747.09375 628.707031 L 747.09375 107.230469 C 747.09375 93.179688 758.488281 81.785156 772.535156 81.785156 L 1002.429688 81.785156 C 1016.484375 81.785156 1027.875 93.179688 1027.875 107.230469 L 1027.875 625.804688 C 1027.875 639.855469 1016.484375 651.25 1002.429688 651.25 L 769.628906 651.25 C 757.183594 651.25 747.09375 641.160156 747.09375 628.707031 " fill-opacity="1" fill-rule="nonzero"/><path fill="#000000" d="M 772.539062 82.566406 C 758.941406 82.566406 747.878906 93.628906 747.878906 107.230469 L 747.878906 628.707031 C 747.878906 640.707031 757.640625 650.464844 769.632812 650.464844 L 1002.433594 650.464844 C 1016.035156 650.464844 1027.097656 639.402344 1027.097656 625.804688 L 1027.097656 107.230469 C 1027.097656 93.628906 1016.035156 82.566406 1002.433594 82.566406 Z M 1002.433594 652.035156 L 769.632812 652.035156 C 756.773438 652.035156 746.3125 641.570312 746.3125 628.707031 L 746.3125 107.230469 C 746.3125 92.769531 758.078125 81 772.539062 81 L 1002.433594 81 C 1016.890625 81 1028.65625 92.769531 1028.65625 107.230469 L 1028.65625 625.804688 C 1028.65625 640.265625 1016.890625 652.035156 1002.433594 652.035156 " fill-opacity="1" fill-rule="nonzero"/><path fill="#ffffff" d="M 1007.027344 628.988281 L 767.945312 628.988281 L 767.945312 118.988281 L 1007.027344 118.988281 L 1007.027344 628.988281 " fill-opacity="1" fill-rule="nonzero"/><path fill="#000000" d="M 768.730469 628.207031 L 1006.242188 628.207031 L 1006.242188 119.773438 L 768.730469 119.773438 Z M 1007.019531 629.773438 L 767.945312 629.773438 C 767.515625 629.773438 767.160156 629.425781 767.160156 628.992188 L 767.160156 118.992188 C 767.160156 118.558594 767.515625 118.210938 767.945312 118.210938 L 1007.019531 118.210938 C 1007.457031 118.210938 1007.804688 118.558594 1007.804688 118.992188 L 1007.804688 628.992188 C 1007.804688 629.425781 1007.457031 629.773438 1007.019531 629.773438 " fill-opacity="1" fill-rule="nonzero"/><path fill="#ffffff" d="M 892.390625 100.007812 C 892.390625 104 889.152344 107.238281 885.160156 107.238281 C 881.164062 107.238281 877.925781 104 877.925781 100.007812 C 877.925781 96.011719 881.164062 92.773438 885.160156 92.773438 C 889.152344 92.773438 892.390625 96.011719 892.390625 100.007812 " fill-opacity="1" fill-rule="nonzero"/><path fill="#000000" d="M 885.160156 93.5625 C 881.597656 93.5625 878.707031 96.457031 878.707031 100.011719 C 878.707031 103.566406 881.597656 106.460938 885.160156 106.460938 C 888.710938 106.460938 891.605469 103.566406 891.605469 100.011719 C 891.605469 96.457031 888.710938 93.5625 885.160156 93.5625 Z M 885.160156 108.027344 C 880.742188 108.027344 877.144531 104.429688 877.144531 100.011719 C 877.144531 95.59375 880.742188 91.996094 885.160156 91.996094 C 889.574219 91.996094 893.167969 95.59375 893.167969 100.011719 C 893.167969 104.429688 889.574219 108.027344 885.160156 108.027344 " fill-opacity="1" fill-rule="nonzero"/><path fill="#ffffff" d="M 914.890625 100.003906 C 914.890625 102.832031 912.601562 105.121094 909.78125 105.121094 C 906.953125 105.121094 904.664062 102.832031 904.664062 100.003906 C 904.664062 97.183594 906.953125 94.894531 909.78125 94.894531 C 912.601562 94.894531 914.890625 97.183594 914.890625 100.003906 " fill-opacity="1" fill-rule="nonzero"/><path fill="#000000" d="M 909.773438 95.679688 C 907.382812 95.679688 905.441406 97.625 905.441406 100.011719 C 905.441406 102.398438 907.382812 104.339844 909.773438 104.339844 C 912.164062 104.339844 914.105469 102.398438 914.105469 100.011719 C 914.105469 97.625 912.164062 95.679688 909.773438 95.679688 Z M 909.773438 105.90625 C 906.523438 105.90625 903.875 103.261719 903.875 100.011719 C 903.875 96.757812 906.523438 94.113281 909.773438 94.113281 C 913.023438 94.113281 915.671875 96.757812 915.671875 100.011719 C 915.671875 103.261719 913.023438 105.90625 909.773438 105.90625 " fill-opacity="1" fill-rule="nonzero"/><path fill="#4ada85" d="M 887.484375 246.398438 L 792.9375 246.398438 L 792.9375 138.246094 L 887.484375 138.246094 L 887.484375 246.398438 " fill-opacity="1" fill-rule="nonzero"/><path fill="#000000" d="M 793.726562 380.671875 L 886.703125 380.671875 L 886.703125 274.085938 L 793.726562 274.085938 Z M 887.488281 382.234375 L 792.945312 382.234375 C 792.511719 382.234375 792.164062 381.886719 792.164062 381.457031 L 792.164062 273.300781 C 792.164062 272.871094 792.511719 272.515625 792.945312 272.515625 L 887.488281 272.515625 C 887.917969 272.515625 888.269531 272.871094 888.269531 273.300781 L 888.269531 381.457031 C 888.269531 381.886719 887.917969 382.234375 887.488281 382.234375 " fill-opacity="1" fill-rule="nonzero"/><path fill="#000000" d="M 793.726562 520.191406 L 886.703125 520.191406 L 886.703125 413.609375 L 793.726562 413.609375 Z M 887.488281 521.757812 L 792.945312 521.757812 C 792.511719 521.757812 792.164062 521.410156 792.164062 520.972656 L 792.164062 412.824219 C 792.164062 412.390625 792.511719 412.035156 792.945312 412.035156 L 887.488281 412.035156 C 887.917969 412.035156 888.269531 412.390625 888.269531 412.824219 L 888.269531 520.972656 C 888.269531 521.410156 887.917969 521.757812 887.488281 521.757812 " fill-opacity="1" fill-rule="nonzero"/><path fill="#000000" d="M 793.726562 628.203125 L 886.703125 628.203125 L 886.703125 553.125 L 793.726562 553.125 Z M 887.488281 629.773438 L 792.945312 629.773438 C 792.511719 629.773438 792.164062 629.421875 792.164062 628.992188 L 792.164062 552.34375 C 792.164062 551.910156 792.511719 551.558594 792.945312 551.558594 L 887.488281 551.558594 C 887.917969 551.558594 888.269531 551.910156 888.269531 552.34375 L 888.269531 628.992188 C 888.269531 629.421875 887.917969 629.773438 887.488281 629.773438 " fill-opacity="1" fill-rule="nonzero"/><path fill="#000000" d="M 990.519531 157.585938 L 912.742188 157.585938 C 912.308594 157.585938 911.957031 157.234375 911.957031 156.804688 C 911.957031 156.367188 912.308594 156.019531 912.742188 156.019531 L 990.519531 156.019531 C 990.953125 156.019531 991.304688 156.367188 991.304688 156.804688 C 991.304688 157.234375 990.953125 157.585938 990.519531 157.585938 " fill-opacity="1" fill-rule="nonzero"/><path fill="#000000" d="M 974.109375 174 L 904.535156 174 C 904.105469 174 903.753906 173.648438 903.753906 173.214844 C 903.753906 172.785156 904.105469 172.433594 904.535156 172.433594 L 974.109375 172.433594 C 974.539062 172.433594 974.890625 172.785156 974.890625 173.214844 C 974.890625 173.648438 974.539062 174 974.109375 174 " fill-opacity="1" fill-rule="nonzero"/><path fill="#000000" d="M 974.109375 190.417969 L 904.535156 190.417969 C 904.105469 190.417969 903.753906 190.066406 903.753906 189.632812 C 903.753906 189.195312 904.105469 188.847656 904.535156 188.847656 L 974.109375 188.847656 C 974.539062 188.847656 974.890625 189.195312 974.890625 189.632812 C 974.890625 190.066406 974.539062 190.417969 974.109375 190.417969 " fill-opacity="1" fill-rule="nonzero"/><path fill="#000000" d="M 990.519531 206.828125 L 904.535156 206.828125 C 904.105469 206.828125 903.75 206.476562 903.75 206.046875 C 903.75 205.613281 904.105469 205.261719 904.535156 205.261719 L 990.519531 205.261719 C 990.953125 205.261719 991.304688 205.613281 991.304688 206.046875 C 991.304688 206.476562 990.953125 206.828125 990.519531 206.828125 " fill-opacity="1" fill-rule="nonzero"/><path fill="#000000" d="M 990.519531 223.242188 L 904.535156 223.242188 C 904.105469 223.242188 903.75 222.894531 903.75 222.460938 C 903.75 222.027344 904.105469 221.675781 904.535156 221.675781 L 990.519531 221.675781 C 990.953125 221.675781 991.304688 222.027344 991.304688 222.460938 C 991.304688 222.894531 990.953125 223.242188 990.519531 223.242188 " fill-opacity="1" fill-rule="nonzero"/><path fill="#000000" d="M 990.519531 288.898438 L 912.742188 288.898438 C 912.308594 288.898438 911.957031 288.546875 911.957031 288.117188 C 911.957031 287.683594 912.308594 287.335938 912.742188 287.335938 L 990.519531 287.335938 C 990.953125 287.335938 991.304688 287.683594 991.304688 288.117188 C 991.304688 288.546875 990.953125 288.898438 990.519531 288.898438 " fill-opacity="1" fill-rule="nonzero"/><path fill="#000000" d="M 974.109375 305.3125 L 904.535156 305.3125 C 904.105469 305.3125 903.753906 304.960938 903.753906 304.527344 C 903.753906 304.097656 904.105469 303.746094 904.535156 303.746094 L 974.109375 303.746094 C 974.539062 303.746094 974.890625 304.097656 974.890625 304.527344 C 974.890625 304.960938 974.539062 305.3125 974.109375 305.3125 " fill-opacity="1" fill-rule="nonzero"/><path fill="#000000" d="M 990.519531 321.730469 L 904.535156 321.730469 C 904.105469 321.730469 903.75 321.378906 903.75 320.945312 C 903.75 320.511719 904.105469 320.160156 904.535156 320.160156 L 990.519531 320.160156 C 990.953125 320.160156 991.304688 320.511719 991.304688 320.945312 C 991.304688 321.378906 990.953125 321.730469 990.519531 321.730469 " fill-opacity="1" fill-rule="nonzero"/><path fill="#000000" d="M 974.109375 338.140625 L 904.535156 338.140625 C 904.105469 338.140625 903.753906 337.789062 903.753906 337.359375 C 903.753906 336.921875 904.105469 336.574219 904.535156 336.574219 L 974.109375 336.574219 C 974.539062 336.574219 974.890625 336.921875 974.890625 337.359375 C 974.890625 337.789062 974.539062 338.140625 974.109375 338.140625 " fill-opacity="1" fill-rule="nonzero"/><path fill="#000000" d="M 990.519531 354.554688 L 904.535156 354.554688 C 904.105469 354.554688 903.75 354.203125 903.75 353.769531 C 903.75 353.339844 904.105469 352.992188 904.535156 352.992188 L 990.519531 352.992188 C 990.953125 352.992188 991.304688 353.339844 991.304688 353.769531 C 991.304688 354.203125 990.953125 354.554688 990.519531 354.554688 " fill-opacity="1" fill-rule="nonzero"/><path fill="#000000" d="M 974.109375 428.417969 L 912.742188 428.417969 C 912.3125 428.417969 911.960938 428.070312 911.960938 427.636719 C 911.960938 427.203125 912.3125 426.855469 912.742188 426.855469 L 974.109375 426.855469 C 974.539062 426.855469 974.890625 427.203125 974.890625 427.636719 C 974.890625 428.070312 974.539062 428.417969 974.109375 428.417969 " fill-opacity="1" fill-rule="nonzero"/><path fill="#000000" d="M 990.519531 444.835938 L 904.535156 444.835938 C 904.105469 444.835938 903.75 444.484375 903.75 444.050781 C 903.75 443.617188 904.105469 443.265625 904.535156 443.265625 L 990.519531 443.265625 C 990.953125 443.265625 991.304688 443.617188 991.304688 444.050781 C 991.304688 444.484375 990.953125 444.835938 990.519531 444.835938 " fill-opacity="1" fill-rule="nonzero"/><path fill="#000000" d="M 974.109375 461.246094 L 904.535156 461.246094 C 904.105469 461.246094 903.753906 460.898438 903.753906 460.464844 C 903.753906 460.035156 904.105469 459.683594 904.535156 459.683594 L 974.109375 459.683594 C 974.539062 459.683594 974.890625 460.035156 974.890625 460.464844 C 974.890625 460.898438 974.539062 461.246094 974.109375 461.246094 " fill-opacity="1" fill-rule="nonzero"/><path fill="#000000" d="M 974.109375 477.664062 L 904.535156 477.664062 C 904.105469 477.664062 903.753906 477.3125 903.753906 476.878906 C 903.753906 476.445312 904.105469 476.09375 904.535156 476.09375 L 974.109375 476.09375 C 974.539062 476.09375 974.890625 476.445312 974.890625 476.878906 C 974.890625 477.3125 974.539062 477.664062 974.109375 477.664062 " fill-opacity="1" fill-rule="nonzero"/><path fill="#000000" d="M 990.519531 494.078125 L 904.535156 494.078125 C 904.105469 494.078125 903.75 493.726562 903.75 493.292969 C 903.75 492.863281 904.105469 492.511719 904.535156 492.511719 L 990.519531 492.511719 C 990.953125 492.511719 991.304688 492.863281 991.304688 493.292969 C 991.304688 493.726562 990.953125 494.078125 990.519531 494.078125 " fill-opacity="1" fill-rule="nonzero"/><path fill="#000000" d="M 974.109375 567.941406 L 912.742188 567.941406 C 912.3125 567.941406 911.960938 567.589844 911.960938 567.15625 C 911.960938 566.722656 912.3125 566.371094 912.742188 566.371094 L 974.109375 566.371094 C 974.539062 566.371094 974.890625 566.722656 974.890625 567.15625 C 974.890625 567.589844 974.539062 567.941406 974.109375 567.941406 " fill-opacity="1" fill-rule="nonzero"/><path fill="#000000" d="M 990.519531 584.355469 L 904.535156 584.355469 C 904.105469 584.355469 903.75 584.003906 903.75 583.570312 C 903.75 583.140625 904.105469 582.789062 904.535156 582.789062 L 990.519531 582.789062 C 990.953125 582.789062 991.304688 583.140625 991.304688 583.570312 C 991.304688 584.003906 990.953125 584.355469 990.519531 584.355469 " fill-opacity="1" fill-rule="nonzero"/><path fill="#000000" d="M 974.109375 600.769531 L 904.535156 600.769531 C 904.105469 600.769531 903.753906 600.417969 903.753906 599.984375 C 903.753906 599.550781 904.105469 599.199219 904.535156 599.199219 L 974.109375 599.199219 C 974.539062 599.199219 974.890625 599.550781 974.890625 599.984375 C 974.890625 600.417969 974.539062 600.769531 974.109375 600.769531 " fill-opacity="1" fill-rule="nonzero"/><path fill="#000000" d="M 990.519531 617.183594 L 904.535156 617.183594 C 904.105469 617.183594 903.75 616.832031 903.75 616.398438 C 903.75 615.96875 904.105469 615.617188 904.535156 615.617188 L 990.519531 615.617188 C 990.953125 615.617188 991.304688 615.96875 991.304688 616.398438 C 991.304688 616.832031 990.953125 617.183594 990.519531 617.183594 " fill-opacity="1" fill-rule="nonzero"/><path fill="#fda4ff" d="M 640.058594 674.808594 L 586.539062 663.257812 L 606.125 572.058594 L 659.644531 583.609375 L 640.058594 674.808594 " fill-opacity="1" fill-rule="nonzero"/><path fill="#020202" d="M 650.953125 624.085938 L 659.644531 583.609375 L 606.125 572.058594 L 599.179688 604.390625 L 650.953125 624.085938 " fill-opacity="1" fill-rule="nonzero"/><path fill="#fed101" d="M 580.570312 710.289062 L 729.996094 710.289062 L 730.484375 696.144531 C 730.484375 687.664062 724.257812 680.476562 715.878906 679.292969 L 692.46875 675.988281 C 688.75 675.464844 685.226562 674.007812 682.214844 671.757812 L 669.625 664.074219 C 659.777344 658.066406 652.964844 648.132812 650.902344 636.765625 L 650.296875 633.445312 L 586.628906 633.445312 L 580.570312 710.289062 " fill-opacity="1" fill-rule="nonzero"/><path fill="#ffffff" d="M 715.878906 679.292969 L 692.910156 676.050781 L 692.910156 710.289062 L 729.996094 710.289062 L 730.484375 696.144531 C 730.484375 687.664062 724.257812 680.476562 715.878906 679.292969 " fill-opacity="1" fill-rule="nonzero"/><path fill="#020202" d="M 609.472656 707.089844 C 604.59375 687.339844 590.5625 678.972656 583.304688 675.886719 L 580.570312 706.414062 C 579.738281 706.414062 609.472656 707.089844 609.472656 707.089844 " fill-opacity="1" fill-rule="nonzero"/><path fill="#000000" d="M 672.253906 699.226562 C 672.105469 699.226562 671.957031 699.1875 671.828125 699.097656 C 671.460938 698.863281 671.363281 698.378906 671.601562 698.015625 L 686.644531 675.078125 C 686.882812 674.714844 687.367188 674.617188 687.730469 674.855469 C 688.09375 675.09375 688.191406 675.578125 687.953125 675.9375 L 672.910156 698.875 C 672.757812 699.101562 672.511719 699.226562 672.253906 699.226562 " fill-opacity="1" fill-rule="nonzero"/><path fill="#000000" d="M 661.808594 679.664062 C 661.542969 679.664062 661.277344 679.527344 661.132812 679.273438 C 660.917969 678.902344 661.042969 678.421875 661.414062 678.203125 L 676.777344 669.222656 C 677.152344 669 677.628906 669.128906 677.84375 669.5 C 678.066406 669.875 677.941406 670.355469 677.566406 670.574219 L 662.207031 679.554688 C 662.078125 679.628906 661.945312 679.664062 661.808594 679.664062 " fill-opacity="1" fill-rule="nonzero"/><path fill="#000000" d="M 581.417969 709.507812 L 729.238281 709.507812 L 729.703125 696.117188 C 729.703125 688.105469 723.710938 681.191406 715.769531 680.070312 L 692.359375 676.761719 C 688.519531 676.222656 684.855469 674.707031 681.75 672.382812 L 669.21875 664.742188 C 659.191406 658.628906 652.234375 648.480469 650.128906 636.90625 L 649.640625 634.230469 L 587.351562 634.230469 Z M 729.996094 711.074219 L 580.570312 711.074219 C 580.351562 711.074219 580.144531 710.980469 579.996094 710.820312 C 579.847656 710.65625 579.773438 710.445312 579.792969 710.226562 L 585.847656 633.386719 C 585.878906 632.976562 586.21875 632.664062 586.628906 632.664062 L 650.296875 632.664062 C 650.675781 632.664062 651 632.933594 651.066406 633.304688 L 651.667969 636.625 C 653.695312 647.757812 660.386719 657.523438 670.03125 663.40625 L 682.621094 671.085938 C 685.578125 673.296875 689 674.707031 692.578125 675.214844 L 715.988281 678.519531 C 724.699219 679.753906 731.269531 687.324219 731.269531 696.144531 L 730.777344 710.3125 C 730.765625 710.734375 730.417969 711.074219 729.996094 711.074219 " fill-opacity="1" fill-rule="nonzero"/><path fill="#000000" d="M 573.882812 706.335938 L 573.820312 729 L 618.417969 729 L 618.417969 720.972656 L 651.550781 720.972656 L 651.550781 729 L 740.175781 729 L 740.175781 706.339844 L 573.882812 706.335938 " fill-opacity="1" fill-rule="nonzero"/><path fill="#fda4ff" d="M 493.269531 612.601562 L 457.617188 573.894531 L 520.234375 515.929688 L 555.890625 554.632812 L 493.269531 612.601562 " fill-opacity="1" fill-rule="nonzero"/><path fill="#020202" d="M 527.550781 580.867188 L 555.890625 554.632812 L 520.234375 515.929688 L 497.242188 537.210938 L 527.550781 580.867188 " fill-opacity="1" fill-rule="nonzero"/><path fill="#fed101" d="M 521.171875 647.21875 C 517.308594 646.734375 513.742188 644.90625 511.082031 642.054688 L 503.753906 629.605469 C 502.28125 627.109375 502.179688 624.035156 503.480469 621.445312 L 513.414062 601.636719 L 470.183594 553.789062 L 416.117188 603.683594 L 477.246094 671.34375 C 482.75 677.4375 490.5625 680.914062 498.761719 680.914062 L 548.738281 684.429688 L 548.738281 682.132812 C 548.738281 654.328125 530.582031 648.398438 521.171875 647.21875 " fill-opacity="1" fill-rule="nonzero"/><path fill="#ffffff" d="M 521.171875 647.21875 C 521.066406 647.207031 520.96875 647.183594 520.867188 647.167969 L 498.761719 680.914062 L 498.785156 680.914062 L 548.738281 684.066406 L 548.738281 682.132812 C 548.738281 654.328125 530.582031 648.398438 521.171875 647.21875 " fill-opacity="1" fill-rule="nonzero"/><path fill="#020202" d="M 438.015625 627.921875 C 441.824219 620.484375 443.984375 612.058594 443.984375 603.117188 C 443.984375 597.054688 442.765625 590.390625 438.605469 582.929688 L 416.117188 603.683594 L 438.015625 627.921875 " fill-opacity="1" fill-rule="nonzero"/><g clip-path="url(#e178370351)"><path fill="#020202" d="M 498.761719 680.914062 C 490.5625 680.914062 482.75 677.4375 477.246094 671.34375 L 411.015625 598.027344 L 395.613281 612.300781 L 426.648438 645.894531 L 433.589844 639.460938 L 461.035156 669.847656 L 454.433594 675.96875 L 466.167969 688.679688 C 474.109375 697.261719 485.257812 702.140625 496.9375 702.140625 L 558.582031 702.140625 L 558.582031 680.914062 L 498.761719 680.914062 " fill-opacity="1" fill-rule="nonzero"/></g><path fill="#000000" d="M 548.738281 681.695312 C 548.308594 681.695312 547.957031 681.347656 547.957031 680.914062 C 547.957031 662.148438 538.546875 651.046875 520.746094 648.816406 C 519.421875 648.648438 518.113281 648.328125 516.855469 647.863281 C 516.449219 647.710938 516.242188 647.261719 516.394531 646.851562 C 516.546875 646.449219 516.996094 646.242188 517.402344 646.394531 C 518.542969 646.816406 519.734375 647.109375 520.945312 647.261719 C 533.980469 648.898438 549.523438 656.066406 549.523438 680.914062 C 549.523438 681.347656 549.171875 681.695312 548.738281 681.695312 " fill-opacity="1" fill-rule="nonzero"/><path fill="#000000" d="M 492.589844 666.761719 C 492.359375 666.761719 492.125 666.65625 491.96875 666.457031 C 491.707031 666.113281 491.773438 665.625 492.113281 665.359375 L 516.558594 646.574219 C 516.902344 646.308594 517.394531 646.375 517.65625 646.714844 C 517.917969 647.058594 517.855469 647.550781 517.511719 647.816406 L 493.070312 666.601562 C 492.925781 666.710938 492.757812 666.761719 492.589844 666.761719 " fill-opacity="1" fill-rule="nonzero"/><path fill="#000000" d="M 486.21875 650.59375 C 485.914062 650.59375 485.625 650.417969 485.496094 650.117188 C 485.332031 649.71875 485.515625 649.261719 485.914062 649.089844 L 507.945312 639.808594 C 508.34375 639.648438 508.800781 639.828125 508.96875 640.226562 C 509.136719 640.628906 508.949219 641.082031 508.550781 641.253906 L 486.523438 650.535156 C 486.425781 650.578125 486.320312 650.59375 486.21875 650.59375 " fill-opacity="1" fill-rule="nonzero"/><path fill="#fed101" d="M 609.621094 347.238281 L 542.03125 347.238281 L 542.03125 468.953125 L 494.988281 516.875 L 545.226562 572.691406 L 587.34375 527.867188 C 601.652344 512.640625 609.621094 492.503906 609.621094 471.582031 L 609.621094 347.238281 " fill-opacity="1" fill-rule="nonzero"/><path fill="#fcb503" d="M 609.621094 471.582031 L 609.621094 462.882812 C 595.328125 470.828125 585.648438 486.097656 585.648438 503.644531 C 585.648438 511.070312 587.390625 518.085938 590.472656 524.316406 C 602.804688 509.574219 609.621094 490.917969 609.621094 471.582031 " fill-opacity="1" fill-rule="nonzero"/><path fill="#fed101" d="M 651.464844 373.519531 L 651.464844 332.613281 L 582.386719 332.613281 L 582.386719 368.265625 C 582.386719 381.730469 585.929688 394.953125 592.660156 406.605469 L 628.3125 468.320312 L 594.789062 585.878906 L 662.085938 599.933594 L 694.042969 486.105469 C 698.710938 469.496094 696.488281 451.699219 687.882812 436.753906 L 651.464844 373.519531 " fill-opacity="1" fill-rule="nonzero"/><path fill="#fed101" d="M 651.464844 373.519531 L 651.464844 332.613281 L 582.386719 332.613281 L 582.386719 368.265625 C 582.386719 381.730469 585.929688 394.953125 592.660156 406.605469 L 628.3125 468.320312 L 594.789062 585.878906 L 662.085938 599.933594 L 694.042969 486.105469 C 698.710938 469.496094 696.488281 451.699219 687.882812 436.753906 L 651.464844 373.519531 " fill-opacity="1" fill-rule="nonzero"/><path fill="#fcb503" d="M 684.835938 431.46875 C 678.746094 439.347656 675.113281 449.226562 675.113281 459.96875 C 675.113281 474.160156 681.453125 486.859375 691.4375 495.402344 L 694.042969 486.105469 C 698.710938 469.496094 696.488281 451.699219 687.882812 436.753906 L 684.835938 431.46875 " fill-opacity="1" fill-rule="nonzero"/><path fill="#000000" d="M 595.773438 585.289062 L 661.53125 599.019531 L 693.289062 485.894531 C 697.871094 469.585938 695.652344 451.816406 687.199219 437.140625 L 650.789062 373.910156 C 650.71875 373.792969 650.683594 373.65625 650.683594 373.519531 L 650.683594 333.394531 L 583.171875 333.394531 L 583.171875 368.265625 C 583.171875 381.574219 586.6875 394.695312 593.339844 406.214844 L 628.992188 467.929688 C 629.097656 468.109375 629.125 468.332031 629.066406 468.535156 Z M 662.089844 600.714844 C 662.035156 600.714844 661.984375 600.710938 661.929688 600.699219 L 594.628906 586.648438 C 594.417969 586.601562 594.234375 586.472656 594.121094 586.289062 C 594.007812 586.101562 593.976562 585.875 594.035156 585.667969 L 627.46875 468.425781 L 591.984375 406.996094 C 585.191406 395.242188 581.605469 381.847656 581.605469 368.265625 L 581.605469 332.613281 C 581.605469 332.175781 581.953125 331.824219 582.386719 331.824219 L 651.464844 331.824219 C 651.894531 331.824219 652.246094 332.175781 652.246094 332.613281 L 652.246094 373.3125 L 688.554688 436.359375 C 697.21875 451.398438 699.492188 469.605469 694.800781 486.316406 L 662.84375 600.148438 C 662.746094 600.488281 662.433594 600.714844 662.089844 600.714844 " fill-opacity="1" fill-rule="nonzero"/><path fill="#000000" d="M 651.464844 298.996094 L 542.03125 298.996094 L 542.03125 368.070312 C 556.484375 370.898438 564.066406 371.964844 576.722656 370.203125 C 595.339844 367.605469 604.335938 359.238281 614.257812 354.914062 C 638.675781 344.265625 638.660156 355.976562 651.464844 363.347656 L 651.464844 298.996094 " fill-opacity="1" fill-rule="nonzero"/><path fill="#fda4ff" d="M 598.109375 225.285156 L 581.25 225.285156 L 581.25 200.683594 L 598.109375 200.683594 L 598.109375 225.285156 " fill-opacity="1" fill-rule="nonzero"/><path fill="#000000" d="M 614.082031 157.042969 L 614.082031 176.535156 C 614.082031 183.671875 608.308594 189.464844 601.183594 189.464844 L 595.367188 189.464844 L 577.332031 192.988281 L 577.332031 186.992188 C 577.332031 180.609375 580.847656 174.742188 586.476562 171.746094 L 614.082031 157.042969 " fill-opacity="1" fill-rule="nonzero"/><path fill="#fda4ff" d="M 577.550781 198.929688 C 578.882812 207.117188 585.957031 212.777344 593.347656 211.570312 C 600.738281 210.359375 605.648438 202.738281 604.316406 194.546875 C 602.980469 186.359375 595.910156 180.703125 588.519531 181.914062 C 581.128906 183.121094 576.21875 190.742188 577.550781 198.929688 " fill-opacity="1" fill-rule="nonzero"/><path fill="#000000" d="M 591.359375 212.511719 C 587.34375 212.511719 583.4375 210.667969 580.59375 207.355469 C 580.3125 207.027344 580.351562 206.53125 580.679688 206.25 C 581.007812 205.964844 581.503906 206.007812 581.78125 206.335938 C 584.765625 209.808594 589.039062 211.476562 593.222656 210.789062 C 600.175781 209.652344 604.808594 202.421875 603.542969 194.675781 C 602.929688 190.90625 601.03125 187.582031 598.199219 185.316406 C 595.390625 183.066406 592 182.136719 588.644531 182.683594 C 588.222656 182.757812 587.816406 182.460938 587.746094 182.035156 C 587.675781 181.605469 587.964844 181.207031 588.394531 181.136719 C 592.183594 180.519531 596.019531 181.566406 599.179688 184.089844 C 602.3125 186.601562 604.414062 190.265625 605.089844 194.421875 C 606.492188 203.023438 601.28125 211.0625 593.476562 212.339844 C 592.769531 212.453125 592.0625 212.511719 591.359375 212.511719 " fill-opacity="1" fill-rule="nonzero"/><path fill="#000000" d="M 577.054688 200.597656 C 579.15625 208.402344 586.238281 213.582031 593.617188 212.375 C 601 211.160156 606.066406 204 605.585938 195.929688 L 577.054688 200.597656 " fill-opacity="1" fill-rule="nonzero"/><path fill="#ffffff" d="M 598.144531 203.730469 C 597.488281 204.746094 596.519531 205.570312 595.300781 206.027344 C 592.589844 207.039062 589.601562 205.886719 588.222656 203.433594 L 598.144531 203.730469 " fill-opacity="1" fill-rule="nonzero"/><path fill="#000000" d="M 590.625 178.914062 C 583.28125 178.914062 577.332031 185.507812 577.332031 193.640625 C 577.332031 194.371094 577.382812 195.089844 577.476562 195.792969 L 586.082031 189.429688 L 603.121094 189.429688 C 601.484375 183.347656 596.644531 178.914062 590.625 178.914062 " fill-opacity="1" fill-rule="nonzero"/><path fill="#fda4ff" d="M 555.308594 304.605469 C 555.308594 318.632812 543.96875 330 529.972656 330 C 515.984375 330 504.640625 318.632812 504.640625 304.605469 C 504.640625 290.582031 515.984375 279.210938 529.972656 279.210938 C 543.96875 279.210938 555.308594 290.582031 555.308594 304.605469 " fill-opacity="1" fill-rule="nonzero"/><path fill="#000000" d="M 529.972656 279.996094 C 516.4375 279.996094 505.425781 291.035156 505.425781 304.605469 C 505.425781 318.179688 516.4375 329.21875 529.972656 329.21875 C 543.511719 329.21875 554.523438 318.179688 554.523438 304.605469 C 554.523438 291.035156 543.511719 279.996094 529.972656 279.996094 Z M 529.972656 330.785156 C 515.574219 330.785156 503.859375 319.042969 503.859375 304.605469 C 503.859375 290.171875 515.574219 278.429688 529.972656 278.429688 C 544.375 278.429688 556.089844 290.171875 556.089844 304.605469 C 556.089844 319.042969 544.375 330.785156 529.972656 330.785156 " fill-opacity="1" fill-rule="nonzero"/><path fill="#8c7bff" d="M 690.507812 257.386719 L 655.394531 289.339844 L 605.574219 221.1875 L 621.441406 221.1875 C 644.394531 221.1875 666.296875 230.855469 681.792969 247.835938 L 690.507812 257.386719 " fill-opacity="1" fill-rule="nonzero"/><path fill="#8c7bff" d="M 514.457031 260.585938 L 549.570312 292.542969 L 601.589844 221.1875 L 585.820312 221.1875 C 562.015625 221.1875 539.394531 231.582031 523.855469 249.65625 L 514.457031 260.585938 " fill-opacity="1" fill-rule="nonzero"/><path fill="#8c7bff" d="M 657.539062 347.789062 L 643.417969 347.789062 L 625.269531 323.871094 L 606.769531 347.789062 L 533.140625 347.789062 L 540.117188 263.628906 C 542.105469 239.640625 562.113281 221.1875 586.125 221.1875 L 609.207031 221.1875 C 635.902344 221.1875 657.539062 242.882812 657.539062 269.636719 L 657.539062 347.789062 " fill-opacity="1" fill-rule="nonzero"/><path fill="#000000" d="M 649.726562 279.496094 L 628.761719 262.304688 L 538.285156 285.679688 L 536.015625 313.078125 C 549.054688 314.035156 563.710938 314.117188 577.746094 300.707031 C 591.15625 287.890625 620.574219 275.335938 649.726562 279.496094 " fill-opacity="1" fill-rule="nonzero"/><path fill="#000000" d="M 681.789062 247.839844 L 627.03125 261.546875 L 640.605469 275.183594 L 685.007812 255.265625 L 681.789062 247.839844 " fill-opacity="1" fill-rule="nonzero"/><path fill="#4ada85" d="M 452.992188 336.308594 L 434.535156 286.5625 L 751.308594 168.464844 L 769.765625 218.214844 L 452.992188 336.308594 " fill-opacity="1" fill-rule="nonzero"/><path fill="#000000" d="M 435.542969 287.023438 L 453.453125 335.304688 L 768.761719 217.753906 L 750.847656 169.472656 Z M 452.992188 337.089844 C 452.878906 337.089844 452.769531 337.070312 452.667969 337.019531 C 452.476562 336.9375 452.328125 336.777344 452.257812 336.582031 L 433.800781 286.835938 C 433.652344 286.429688 433.859375 285.980469 434.261719 285.828125 L 751.035156 167.734375 C 751.234375 167.660156 751.449219 167.667969 751.636719 167.753906 C 751.828125 167.835938 751.96875 167.996094 752.046875 168.191406 L 770.5 217.941406 C 770.652344 218.347656 770.449219 218.796875 770.039062 218.949219 L 453.265625 337.042969 C 453.175781 337.078125 453.082031 337.089844 452.992188 337.089844 " fill-opacity="1" fill-rule="nonzero"/><path fill="#000000" d="M 434.535156 287.34375 C 434.21875 287.34375 433.921875 287.148438 433.800781 286.835938 C 433.652344 286.433594 433.859375 285.976562 434.261719 285.828125 L 751.039062 167.730469 C 751.441406 167.582031 751.894531 167.789062 752.046875 168.191406 C 752.195312 168.597656 751.988281 169.046875 751.585938 169.199219 L 434.8125 287.296875 C 434.71875 287.328125 434.625 287.34375 434.535156 287.34375 " fill-opacity="1" fill-rule="nonzero"/><path fill="#000000" d="M 439.152344 299.785156 C 438.832031 299.785156 438.535156 299.589844 438.417969 299.273438 C 438.265625 298.867188 438.472656 298.417969 438.878906 298.265625 L 755.652344 180.167969 C 756.050781 180.023438 756.507812 180.222656 756.660156 180.628906 C 756.8125 181.03125 756.601562 181.484375 756.199219 181.636719 L 439.425781 299.730469 C 439.332031 299.769531 439.242188 299.785156 439.152344 299.785156 " fill-opacity="1" fill-rule="nonzero"/><path fill="#000000" d="M 443.765625 312.21875 C 443.445312 312.21875 443.148438 312.019531 443.03125 311.707031 C 442.878906 311.300781 443.085938 310.851562 443.492188 310.699219 L 760.269531 192.601562 C 760.675781 192.453125 761.125 192.660156 761.273438 193.066406 C 761.425781 193.464844 761.222656 193.921875 760.816406 194.070312 L 444.039062 312.167969 C 443.949219 312.203125 443.855469 312.21875 443.765625 312.21875 " fill-opacity="1" fill-rule="nonzero"/><path fill="#000000" d="M 448.378906 324.652344 C 448.0625 324.652344 447.761719 324.460938 447.644531 324.144531 C 447.492188 323.742188 447.699219 323.289062 448.105469 323.136719 L 764.886719 205.039062 C 765.289062 204.894531 765.738281 205.09375 765.890625 205.5 C 766.039062 205.90625 765.835938 206.359375 765.429688 206.507812 L 448.652344 324.605469 C 448.5625 324.636719 448.46875 324.652344 448.378906 324.652344 " fill-opacity="1" fill-rule="nonzero"/><path fill="#ffffff" d="M 751.308594 168.464844 L 769.765625 218.214844 L 804.5 176.949219 L 751.308594 168.464844 " fill-opacity="1" fill-rule="nonzero"/><path fill="#4ada85" d="M 788.632812 174.417969 L 794.136719 189.261719 L 804.503906 176.949219 L 788.632812 174.417969 " fill-opacity="1" fill-rule="nonzero"/><path fill="#ffffff" d="M 452.992188 336.308594 C 439.289062 341.417969 424.046875 334.425781 418.949219 320.6875 C 413.855469 306.945312 420.832031 291.667969 434.535156 286.5625 C 448.242188 281.453125 463.480469 288.445312 468.578125 302.183594 C 473.675781 315.921875 466.699219 331.199219 452.992188 336.308594 " fill-opacity="1" fill-rule="nonzero"/><path fill="#000000" d="M 443.777344 285.664062 C 440.753906 285.664062 437.726562 286.207031 434.8125 287.292969 C 421.53125 292.246094 414.746094 307.101562 419.683594 320.414062 C 422.082031 326.867188 426.839844 332.003906 433.089844 334.863281 C 439.328125 337.71875 446.296875 337.96875 452.71875 335.574219 C 465.996094 330.625 472.78125 315.765625 467.84375 302.457031 C 465.449219 296 460.6875 290.867188 454.4375 288.007812 C 451.03125 286.449219 447.410156 285.664062 443.777344 285.664062 Z M 443.75 338.769531 C 439.894531 338.769531 436.054688 337.941406 432.441406 336.285156 C 425.808594 333.253906 420.757812 327.804688 418.214844 320.957031 C 412.980469 306.835938 420.179688 291.078125 434.261719 285.824219 C 441.078125 283.285156 448.472656 283.550781 455.089844 286.582031 C 461.71875 289.617188 466.773438 295.0625 469.3125 301.910156 C 474.550781 316.027344 467.351562 331.789062 453.265625 337.039062 C 450.171875 338.195312 446.957031 338.769531 443.75 338.769531 " fill-opacity="1" fill-rule="nonzero"/><path fill="#4ada85" d="M 448.011719 322.886719 C 441.703125 325.238281 434.6875 322.015625 432.339844 315.691406 C 429.992188 309.367188 433.207031 302.332031 439.515625 299.980469 C 445.824219 297.628906 452.84375 300.847656 455.1875 307.175781 C 457.535156 313.5 454.320312 320.535156 448.011719 322.886719 " fill-opacity="1" fill-rule="nonzero"/><path fill="#000000" d="M 752.511719 169.449219 L 770.035156 216.679688 L 803.007812 177.503906 Z M 769.769531 219 C 769.722656 219 769.675781 218.996094 769.632812 218.988281 C 769.355469 218.9375 769.132812 218.75 769.035156 218.488281 L 750.578125 168.742188 C 750.480469 168.476562 750.53125 168.183594 750.707031 167.96875 C 750.882812 167.753906 751.15625 167.644531 751.433594 167.691406 L 804.625 176.179688 C 804.902344 176.222656 805.136719 176.410156 805.238281 176.679688 C 805.332031 176.941406 805.28125 177.238281 805.101562 177.453125 L 770.363281 218.722656 C 770.214844 218.898438 770 219 769.769531 219 " fill-opacity="1" fill-rule="nonzero"/><path fill="#000000" d="M 717.113281 218.953125 L 724.683594 178.386719 L 681.574219 194.460938 L 680.996094 197.496094 C 680.027344 202.523438 680.042969 207.6875 681.039062 212.707031 L 688.136719 248.644531 L 720.554688 236.558594 L 717.113281 218.953125 " fill-opacity="1" fill-rule="nonzero"/><path fill="#fda4ff" d="M 676.972656 180.925781 L 686.683594 182.800781 L 689.46875 168.292969 L 692.132812 168.808594 L 692.929688 164.636719 C 693.589844 161.210938 691.351562 157.898438 687.929688 157.238281 C 684.515625 156.582031 681.210938 158.824219 680.550781 162.253906 L 676.972656 180.925781 " fill-opacity="1" fill-rule="nonzero"/><path fill="#fda4ff" d="M 687.089844 180.636719 L 696.804688 182.511719 L 699.582031 168.003906 L 702.25 168.523438 L 703.089844 164.140625 C 703.722656 160.832031 701.558594 157.628906 698.253906 156.992188 L 697.835938 156.914062 C 694.535156 156.277344 691.34375 158.445312 690.707031 161.757812 L 687.089844 180.636719 " fill-opacity="1" fill-rule="nonzero"/><path fill="#fda4ff" d="M 696.265625 185.238281 L 705.976562 187.113281 L 708.757812 172.605469 L 711.425781 173.121094 L 712.261719 168.742188 C 712.898438 165.429688 710.734375 162.226562 707.429688 161.59375 L 707.015625 161.511719 C 703.710938 160.875 700.519531 163.046875 699.882812 166.359375 L 696.265625 185.238281 " fill-opacity="1" fill-rule="nonzero"/><path fill="#fda4ff" d="M 705.535156 189.289062 L 715.25 191.160156 L 717.320312 180.730469 L 724.761719 177.96875 L 725.417969 174.574219 C 726.15625 170.71875 723.640625 166.992188 719.792969 166.246094 L 717.28125 165.761719 C 713.429688 165.015625 709.707031 167.539062 708.96875 171.402344 L 705.535156 189.289062 " fill-opacity="1" fill-rule="nonzero"/><path fill="#fda4ff" d="M 673.511719 211.113281 L 682.988281 198.390625 C 682.988281 198.390625 679.375 182.675781 678.570312 178.828125 C 678.371094 178.210938 678.089844 173.945312 674.125 168.960938 C 674.019531 168.882812 670.839844 163.894531 664.753906 165.175781 L 664.597656 165.207031 C 662.046875 165.738281 660.953125 168.789062 662.585938 170.824219 C 664.515625 173.234375 666.066406 174.871094 666.773438 178.273438 L 673.511719 211.113281 " fill-opacity="1" fill-rule="nonzero"/><path fill="#fda4ff" d="M 673.792969 197.496094 C 672.832031 202.519531 672.84375 207.6875 673.835938 212.710938 L 683.035156 259.277344 L 656.546875 286.46875 L 676.828125 302.636719 C 683.886719 308.265625 693.316406 309.914062 701.859375 307.015625 L 703.550781 306.441406 C 716.144531 302.164062 723.640625 289.207031 721.082031 276.128906 L 709.910156 218.953125 L 717.007812 181.960938 L 678.210938 174.480469 L 673.792969 197.496094 " fill-opacity="1" fill-rule="nonzero"/><path fill="#000000" d="M 687.210938 180.78125 C 687.160156 180.78125 687.113281 180.777344 687.0625 180.765625 C 686.636719 180.6875 686.359375 180.273438 686.441406 179.851562 L 689.9375 161.605469 C 690.285156 159.804688 691.3125 158.238281 692.832031 157.207031 C 694.351562 156.175781 696.183594 155.796875 697.984375 156.144531 L 698.40625 156.226562 C 701.269531 156.777344 703.480469 159.09375 703.910156 161.992188 C 703.972656 162.414062 703.675781 162.8125 703.25 162.875 C 702.8125 162.949219 702.421875 162.644531 702.359375 162.214844 C 702.03125 159.976562 700.320312 158.191406 698.109375 157.765625 L 697.6875 157.683594 C 696.296875 157.414062 694.886719 157.707031 693.710938 158.503906 C 692.539062 159.296875 691.742188 160.507812 691.476562 161.90625 L 687.980469 180.148438 C 687.90625 180.519531 687.574219 180.78125 687.210938 180.78125 " fill-opacity="1" fill-rule="nonzero"/><path fill="#000000" d="M 696.414062 185.246094 C 696.363281 185.246094 696.3125 185.242188 696.265625 185.234375 C 695.839844 185.15625 695.558594 184.742188 695.640625 184.316406 L 699.113281 166.207031 C 699.460938 164.398438 700.488281 162.839844 702.011719 161.804688 C 703.527344 160.773438 705.363281 160.398438 707.164062 160.742188 L 707.585938 160.824219 C 710.464844 161.378906 712.679688 163.707031 713.089844 166.621094 C 713.148438 167.046875 712.855469 167.441406 712.421875 167.503906 C 711.992188 167.570312 711.601562 167.265625 711.539062 166.839844 C 711.222656 164.589844 709.511719 162.792969 707.285156 162.363281 L 706.867188 162.28125 C 705.472656 162.011719 704.0625 162.304688 702.886719 163.101562 C 701.714844 163.894531 700.917969 165.105469 700.652344 166.503906 L 697.179688 184.609375 C 697.105469 184.984375 696.78125 185.246094 696.414062 185.246094 " fill-opacity="1" fill-rule="nonzero"/><path fill="#000000" d="M 674.316406 195.539062 C 674.265625 195.539062 674.21875 195.535156 674.171875 195.527344 C 673.746094 195.445312 673.46875 195.035156 673.550781 194.609375 L 679.785156 162.105469 C 680.144531 160.242188 681.199219 158.628906 682.765625 157.566406 C 684.335938 156.5 686.222656 156.113281 688.082031 156.472656 C 689.730469 156.789062 691.222656 157.6875 692.269531 159.003906 C 692.542969 159.339844 692.484375 159.832031 692.148438 160.101562 C 691.8125 160.375 691.316406 160.316406 691.046875 159.980469 C 690.230469 158.957031 689.070312 158.257812 687.78125 158.011719 C 686.335938 157.730469 684.867188 158.039062 683.648438 158.863281 C 682.425781 159.691406 681.601562 160.949219 681.320312 162.402344 L 675.089844 194.902344 C 675.015625 195.28125 674.683594 195.539062 674.316406 195.539062 " fill-opacity="1" fill-rule="nonzero"/><path fill="#000000" d="M 685.070312 270.394531 C 684.703125 270.394531 684.378906 270.132812 684.300781 269.761719 L 681.066406 253.375 C 680.980469 252.953125 681.257812 252.539062 681.683594 252.457031 C 682.105469 252.371094 682.519531 252.648438 682.601562 253.074219 L 685.839844 269.457031 C 685.921875 269.882812 685.648438 270.292969 685.222656 270.378906 C 685.171875 270.386719 685.117188 270.394531 685.070312 270.394531 " fill-opacity="1" fill-rule="nonzero"/><path fill="#000000" d="M 693.355469 309.199219 C 687.253906 309.199219 681.257812 307.140625 676.324219 303.183594 L 656.148438 286.992188 C 655.972656 286.855469 655.867188 286.648438 655.851562 286.429688 C 655.84375 286.207031 655.917969 285.996094 656.074219 285.835938 L 682.183594 259.027344 L 673.066406 212.859375 L 669.914062 197.113281 L 666.011719 178.429688 C 665.410156 175.546875 664.203125 174.054688 662.53125 171.996094 L 661.980469 171.3125 C 661.039062 170.140625 660.78125 168.601562 661.289062 167.1875 C 661.792969 165.769531 662.96875 164.742188 664.4375 164.4375 L 664.589844 164.402344 C 670.113281 163.242188 673.484375 166.804688 674.679688 168.386719 L 674.675781 168.394531 C 674.699219 168.414062 674.722656 168.445312 674.746094 168.46875 C 676.5625 170.757812 677.882812 173.21875 678.664062 175.773438 C 678.792969 176.1875 678.558594 176.628906 678.144531 176.753906 C 677.734375 176.878906 677.296875 176.648438 677.167969 176.234375 C 676.445312 173.875 675.222656 171.597656 673.539062 169.46875 C 673.503906 169.433594 673.472656 169.386719 673.429688 169.332031 C 672.414062 167.988281 669.558594 164.964844 664.917969 165.933594 L 664.761719 165.96875 C 663.828125 166.164062 663.082031 166.816406 662.761719 167.714844 C 662.441406 168.613281 662.605469 169.589844 663.199219 170.332031 L 663.746094 171.011719 C 665.421875 173.074219 666.863281 174.851562 667.542969 178.105469 L 671.445312 196.796875 L 674.601562 212.554688 L 683.800781 259.128906 C 683.851562 259.378906 683.773438 259.640625 683.59375 259.824219 L 657.800781 286.308594 L 677.304688 301.957031 C 684.195312 307.488281 693.304688 309.09375 701.660156 306.253906 L 703.300781 305.699219 C 715.46875 301.566406 722.78125 288.921875 720.316406 276.277344 L 709.144531 219.105469 C 709.128906 219.003906 709.128906 218.90625 709.144531 218.804688 L 716.550781 180.582031 C 716.605469 180.316406 716.789062 180.09375 717.046875 180 L 724.082031 177.382812 L 724.648438 174.429688 C 725.304688 171 723.0625 167.675781 719.644531 167.011719 L 717.128906 166.53125 C 715.480469 166.207031 713.800781 166.550781 712.402344 167.496094 C 711.003906 168.445312 710.054688 169.886719 709.738281 171.550781 L 706.4375 188.738281 C 706.355469 189.160156 705.945312 189.4375 705.519531 189.359375 C 705.097656 189.28125 704.816406 188.867188 704.898438 188.441406 L 708.195312 171.253906 C 708.59375 169.179688 709.777344 167.382812 711.523438 166.199219 C 713.265625 165.023438 715.363281 164.589844 717.425781 164.988281 L 719.941406 165.476562 C 724.207031 166.304688 727.007812 170.445312 726.1875 174.722656 L 725.539062 178.113281 C 725.484375 178.382812 725.292969 178.605469 725.042969 178.703125 L 718.007812 181.3125 L 710.710938 218.953125 L 721.851562 275.980469 C 724.472656 289.386719 716.714844 302.796875 703.804688 307.183594 L 702.164062 307.738281 C 699.273438 308.71875 696.304688 309.199219 693.355469 309.199219 " fill-opacity="1" fill-rule="nonzero"/><path fill="#000000" d="M 656.625 287.15625 C 656.449219 287.15625 656.277344 287.097656 656.132812 286.984375 L 639.625 273.742188 C 639.289062 273.46875 639.234375 272.976562 639.503906 272.640625 C 639.777344 272.304688 640.269531 272.25 640.605469 272.515625 L 657.113281 285.761719 C 657.453125 286.035156 657.503906 286.527344 657.238281 286.863281 C 657.082031 287.058594 656.851562 287.15625 656.625 287.15625 " fill-opacity="1" fill-rule="nonzero"/><path fill="#4ada85" d="M 482.140625 201.535156 C 479.402344 201.535156 477.175781 203.769531 477.175781 206.519531 C 477.175781 209.269531 479.402344 211.507812 482.140625 211.507812 C 484.875 211.507812 487.105469 209.269531 487.105469 206.519531 C 487.105469 203.769531 484.875 201.535156 482.140625 201.535156 Z M 482.140625 213.074219 C 478.535156 213.074219 475.605469 210.136719 475.605469 206.519531 C 475.605469 202.910156 478.535156 199.96875 482.140625 199.96875 C 485.742188 199.96875 488.671875 202.910156 488.671875 206.519531 C 488.671875 210.136719 485.742188 213.074219 482.140625 213.074219 " fill-opacity="1" fill-rule="nonzero"/><path fill="#fed101" d="M 442.796875 169.585938 C 445.785156 173.105469 447.972656 177.328125 449.070312 181.984375 C 450.167969 177.328125 452.351562 173.105469 455.34375 169.585938 C 452.351562 166.066406 450.167969 161.839844 449.070312 157.1875 C 447.972656 161.839844 445.785156 166.066406 442.796875 169.585938 " fill-opacity="1" fill-rule="nonzero"/><path fill="#fda4ff" d="M 468.164062 116.257812 C 472.085938 120.871094 474.949219 126.410156 476.390625 132.511719 C 477.828125 126.410156 480.691406 120.871094 484.613281 116.257812 C 480.691406 111.648438 477.828125 106.109375 476.390625 100.007812 C 474.949219 106.109375 472.085938 111.648438 468.164062 116.257812 " fill-opacity="1" fill-rule="nonzero"/><g clip-path="url(#f59171e31c)"><path stroke-linecap="butt" transform="matrix(0.0749046, 0, 0, 0.0749046, 1319.612292, -59.739997)" fill="none" stroke-linejoin="miter" d="M 3051.81045 4162.398993 C 2909.024721 4183.623898 2177.886695 4292.19946 1763.192716 3862.90358 C 1371.079533 3456.918591 1675.685611 2998.106012 1293.898058 2588.783447 C 885.514186 2150.882875 316.978753 2440.000509 94.195468 2107.077173 C -275.910564 1554.186634 733.289371 -78.410161 1414.520187 19.213975 C 1995.519385 102.392659 2083.182939 1407.80258 2599.203679 1409.784266 C 3071.105819 1411.609504 3293.00256 320.899673 3705.089057 369.190245 C 3942.109194 396.986006 4056.577666 788.89059 4240.874512 1259.123941 C 4326.712828 1477.996002 4548.609569 2065.722505 4415.575824 2792.375662 C 4367.806749 3054.010432 4311.589431 3347.925833 4076.185932 3630.211863 C 3714.475993 4063.888313 3201.688531 4140.078944 3051.81045 4162.398993 Z M 3051.81045 4162.398993 " stroke="#d19dff" stroke-width="30" stroke-opacity="1" stroke-miterlimit="10"/></g><g fill="#000000" fill-opacity="1"><g transform="translate(1310.390441, 789.687508)"><g><path d="M 0.78125 -2.734375 C 1.226562 -3.097656 1.4375 -3.265625 1.40625 -3.234375 C 2.707031 -4.316406 3.734375 -5.203125 4.484375 -5.890625 C 5.242188 -6.585938 5.882812 -7.316406 6.40625 -8.078125 C 6.925781 -8.835938 7.1875 -9.578125 7.1875 -10.296875 C 7.1875 -10.847656 7.054688 -11.273438 6.796875 -11.578125 C 6.546875 -11.890625 6.164062 -12.046875 5.65625 -12.046875 C 5.15625 -12.046875 4.757812 -11.851562 4.46875 -11.46875 C 4.1875 -11.09375 4.046875 -10.554688 4.046875 -9.859375 L 0.734375 -9.859375 C 0.765625 -10.992188 1.007812 -11.941406 1.46875 -12.703125 C 1.925781 -13.460938 2.53125 -14.019531 3.28125 -14.375 C 4.039062 -14.738281 4.878906 -14.921875 5.796875 -14.921875 C 7.390625 -14.921875 8.585938 -14.515625 9.390625 -13.703125 C 10.191406 -12.890625 10.59375 -11.828125 10.59375 -10.515625 C 10.59375 -9.085938 10.109375 -7.765625 9.140625 -6.546875 C 8.171875 -5.328125 6.929688 -4.140625 5.421875 -2.984375 L 10.8125 -2.984375 L 10.8125 -0.203125 L 0.78125 -0.203125 Z M 0.78125 -2.734375 "/></g></g></g><g fill="#000000" fill-opacity="1"><g transform="translate(1321.805933, 789.687508)"><g><path d="M 0.90625 -7.5 C 0.90625 -9.789062 1.347656 -11.597656 2.234375 -12.921875 C 3.117188 -14.242188 4.546875 -14.90625 6.515625 -14.90625 C 8.492188 -14.90625 9.925781 -14.242188 10.8125 -12.921875 C 11.695312 -11.597656 12.140625 -9.789062 12.140625 -7.5 C 12.140625 -5.175781 11.695312 -3.351562 10.8125 -2.03125 C 9.925781 -0.71875 8.492188 -0.0625 6.515625 -0.0625 C 4.546875 -0.0625 3.117188 -0.71875 2.234375 -2.03125 C 1.347656 -3.351562 0.90625 -5.175781 0.90625 -7.5 Z M 8.78125 -7.5 C 8.78125 -8.84375 8.632812 -9.878906 8.34375 -10.609375 C 8.050781 -11.335938 7.441406 -11.703125 6.515625 -11.703125 C 5.597656 -11.703125 4.992188 -11.335938 4.703125 -10.609375 C 4.410156 -9.878906 4.265625 -8.84375 4.265625 -7.5 C 4.265625 -6.59375 4.316406 -5.84375 4.421875 -5.25 C 4.523438 -4.65625 4.738281 -4.175781 5.0625 -3.8125 C 5.394531 -3.445312 5.878906 -3.265625 6.515625 -3.265625 C 7.160156 -3.265625 7.644531 -3.445312 7.96875 -3.8125 C 8.289062 -4.175781 8.503906 -4.65625 8.609375 -5.25 C 8.722656 -5.84375 8.78125 -6.59375 8.78125 -7.5 Z M 8.78125 -7.5 "/></g></g></g><g fill="#000000" fill-opacity="1"><g transform="translate(1334.840788, 789.687508)"><g><path d="M 0.78125 -2.734375 C 1.226562 -3.097656 1.4375 -3.265625 1.40625 -3.234375 C 2.707031 -4.316406 3.734375 -5.203125 4.484375 -5.890625 C 5.242188 -6.585938 5.882812 -7.316406 6.40625 -8.078125 C 6.925781 -8.835938 7.1875 -9.578125 7.1875 -10.296875 C 7.1875 -10.847656 7.054688 -11.273438 6.796875 -11.578125 C 6.546875 -11.890625 6.164062 -12.046875 5.65625 -12.046875 C 5.15625 -12.046875 4.757812 -11.851562 4.46875 -11.46875 C 4.1875 -11.09375 4.046875 -10.554688 4.046875 -9.859375 L 0.734375 -9.859375 C 0.765625 -10.992188 1.007812 -11.941406 1.46875 -12.703125 C 1.925781 -13.460938 2.53125 -14.019531 3.28125 -14.375 C 4.039062 -14.738281 4.878906 -14.921875 5.796875 -14.921875 C 7.390625 -14.921875 8.585938 -14.515625 9.390625 -13.703125 C 10.191406 -12.890625 10.59375 -11.828125 10.59375 -10.515625 C 10.59375 -9.085938 10.109375 -7.765625 9.140625 -6.546875 C 8.171875 -5.328125 6.929688 -4.140625 5.421875 -2.984375 L 10.8125 -2.984375 L 10.8125 -0.203125 L 0.78125 -0.203125 Z M 0.78125 -2.734375 "/></g></g></g><g fill="#000000" fill-opacity="1"><g transform="translate(1346.25628, 789.687508)"><g><path d="M 8.125 -10.65625 C 8.007812 -11.15625 7.816406 -11.523438 7.546875 -11.765625 C 7.285156 -12.015625 6.910156 -12.140625 6.421875 -12.140625 C 5.660156 -12.140625 5.113281 -11.804688 4.78125 -11.140625 C 4.445312 -10.484375 4.273438 -9.441406 4.265625 -8.015625 C 4.554688 -8.484375 4.976562 -8.847656 5.53125 -9.109375 C 6.082031 -9.378906 6.691406 -9.515625 7.359375 -9.515625 C 8.660156 -9.515625 9.707031 -9.101562 10.5 -8.28125 C 11.300781 -7.457031 11.703125 -6.300781 11.703125 -4.8125 C 11.703125 -3.84375 11.503906 -2.988281 11.109375 -2.25 C 10.710938 -1.519531 10.140625 -0.945312 9.390625 -0.53125 C 8.640625 -0.125 7.75 0.078125 6.71875 0.078125 C 4.664062 0.078125 3.238281 -0.5625 2.4375 -1.84375 C 1.632812 -3.132812 1.234375 -4.988281 1.234375 -7.40625 C 1.234375 -9.9375 1.65625 -11.816406 2.5 -13.046875 C 3.351562 -14.285156 4.710938 -14.90625 6.578125 -14.90625 C 7.578125 -14.90625 8.421875 -14.707031 9.109375 -14.3125 C 9.796875 -13.914062 10.316406 -13.394531 10.671875 -12.75 C 11.023438 -12.113281 11.234375 -11.414062 11.296875 -10.65625 Z M 6.546875 -6.8125 C 5.972656 -6.8125 5.492188 -6.640625 5.109375 -6.296875 C 4.734375 -5.960938 4.546875 -5.484375 4.546875 -4.859375 C 4.546875 -4.222656 4.71875 -3.722656 5.0625 -3.359375 C 5.414062 -2.992188 5.921875 -2.8125 6.578125 -2.8125 C 7.160156 -2.8125 7.625 -2.988281 7.96875 -3.34375 C 8.3125 -3.695312 8.484375 -4.179688 8.484375 -4.796875 C 8.484375 -5.421875 8.316406 -5.910156 7.984375 -6.265625 C 7.648438 -6.628906 7.171875 -6.8125 6.546875 -6.8125 Z M 6.546875 -6.8125 "/></g></g></g></svg>