<svg xmlns="http://www.w3.org/2000/svg" xmlns:xlink="http://www.w3.org/1999/xlink" width="1920" zoomAndPan="magnify" viewBox="0 0 1440 809.999993" height="1080" preserveAspectRatio="xMidYMid meet" version="1.0"><defs><g/><clipPath id="7fc2f85e6a"><path d="M 579 693 L 594 693 L 594 708.699219 L 579 708.699219 Z M 579 693 " clip-rule="nonzero"/></clipPath><clipPath id="190d9a41d5"><path d="M 0 485 L 351 485 L 351 810 L 0 810 Z M 0 485 " clip-rule="nonzero"/></clipPath><clipPath id="bee94d4d4f"><path d="M 533.339844 775.859375 L 242.433594 1048.945312 L -124.589844 657.972656 L 166.3125 384.886719 Z M 533.339844 775.859375 " clip-rule="nonzero"/></clipPath><clipPath id="4dc55dc9c2"><path d="M 533.339844 775.859375 L 242.433594 1048.945312 L -124.589844 657.972656 L 166.3125 384.886719 Z M 533.339844 775.859375 " clip-rule="nonzero"/></clipPath><clipPath id="52656afa55"><path d="M 0 780.375 L 1081.507812 780.375 L 1081.507812 810 L 0 810 Z M 0 780.375 " clip-rule="nonzero"/></clipPath><clipPath id="f9cf508da4"><path d="M 0 0.375 L 1081.507812 0.375 L 1081.507812 30 L 0 30 Z M 0 0.375 " clip-rule="nonzero"/></clipPath><clipPath id="683911a0f8"><rect x="0" width="1082" y="0" height="30"/></clipPath><clipPath id="bef530eddb"><path d="M 1081.507812 760.367188 L 1440 760.367188 L 1440 810 L 1081.507812 810 Z M 1081.507812 760.367188 " clip-rule="nonzero"/></clipPath><clipPath id="bd7bc36c5f"><path d="M 0.507812 0.367188 L 359 0.367188 L 359 50 L 0.507812 50 Z M 0.507812 0.367188 " clip-rule="nonzero"/></clipPath><clipPath id="70374273bf"><rect x="0" width="359" y="0" height="50"/></clipPath></defs><path fill="#fed101" d="M 1331.085938 245.808594 C 1332.445312 245.703125 1333.589844 245.050781 1334.765625 244.535156 C 1352.382812 236.925781 1369.457031 228.160156 1386.769531 219.90625 C 1402.398438 212.453125 1418.136719 205.246094 1434.734375 200.1875 C 1443.722656 197.457031 1452.835938 195.347656 1462.296875 195.207031 C 1475.859375 195.003906 1488.410156 198.710938 1500.277344 205.074219 C 1508.574219 209.523438 1515.824219 215.496094 1523.554688 220.800781 C 1523.925781 221.046875 1524.253906 221.335938 1524.546875 221.667969 C 1524.792969 221.90625 1524.941406 222.195312 1524.996094 222.535156 C 1525.046875 222.875 1524.992188 223.195312 1524.832031 223.496094 C 1524.414062 224.289062 1523.683594 224.613281 1522.890625 224.316406 C 1521.964844 223.957031 1521.09375 223.5 1520.269531 222.945312 C 1515.664062 219.914062 1511.117188 216.800781 1506.488281 213.808594 C 1496.652344 207.441406 1486.042969 203.007812 1474.402344 201.191406 C 1464.214844 199.601562 1454.1875 200.597656 1444.265625 203.085938 C 1430.847656 206.453125 1418.09375 211.648438 1405.488281 217.257812 C 1392.089844 223.210938 1379.042969 229.921875 1365.859375 236.328125 C 1354.941406 241.621094 1344.113281 247.078125 1332.855469 251.621094 C 1329.878906 252.820312 1326.902344 253.9375 1323.742188 254.570312 C 1322.886719 254.777344 1322.015625 254.90625 1321.136719 254.953125 C 1319.355469 254.988281 1317.890625 254.292969 1317.011719 252.683594 C 1316.167969 251.15625 1316.589844 249.660156 1317.496094 248.320312 C 1319.058594 246.003906 1321.15625 244.199219 1323.203125 242.367188 C 1334.046875 232.652344 1344.601562 222.628906 1354.5625 212.003906 C 1367.171875 198.558594 1379.0625 184.515625 1388.890625 168.84375 C 1393.355469 161.730469 1397.277344 154.335938 1399.871094 146.304688 C 1401.058594 142.617188 1401.90625 138.855469 1402.023438 134.972656 C 1402.214844 128.261719 1399.535156 123.027344 1393.898438 119.308594 C 1388.261719 115.589844 1381.902344 113.84375 1375.320312 112.886719 C 1364.046875 111.230469 1352.710938 111.078125 1341.351562 111.945312 C 1337.179688 112.277344 1332.992188 112.355469 1328.8125 112.589844 C 1311.210938 113.582031 1293.621094 115.058594 1275.972656 114.660156 C 1264.625 114.40625 1253.273438 113.925781 1242.125 111.476562 C 1233.230469 109.523438 1224.769531 106.480469 1217.121094 101.394531 C 1206.167969 94.117188 1200.34375 83.957031 1199.523438 70.8125 C 1198.90625 60.886719 1201.242188 51.554688 1204.78125 42.449219 C 1209.820312 29.472656 1217.4375 18.019531 1226.054688 7.183594 C 1243.421875 -14.644531 1264.703125 -32.003906 1288.042969 -46.96875 C 1306.933594 -59.082031 1327.078125 -68.832031 1347.433594 -78.160156 C 1363.765625 -85.648438 1380.183594 -92.941406 1396.390625 -100.695312 C 1412.21875 -108.261719 1427.558594 -116.753906 1441.613281 -127.371094 C 1448.058594 -132.246094 1453.878906 -137.789062 1458.789062 -144.242188 C 1461.121094 -147.214844 1462.945312 -150.472656 1464.261719 -154.015625 C 1466.109375 -159.226562 1465.277344 -163.882812 1460.894531 -167.453125 C 1453.492188 -173.480469 1445.441406 -178.394531 1436.117188 -180.921875 C 1435.375 -181.121094 1434.410156 -181.148438 1434.601562 -182.214844 C 1434.769531 -183.148438 1435.695312 -183.171875 1436.476562 -183.1875 C 1437.929688 -183.183594 1439.324219 -182.894531 1440.664062 -182.324219 C 1448.171875 -179.332031 1455.289062 -175.625 1461.703125 -170.648438 C 1462.222656 -170.246094 1462.730469 -169.816406 1463.210938 -169.363281 C 1468.757812 -164.164062 1469.945312 -158.703125 1466.996094 -151.679688 C 1465.011719 -146.964844 1462.238281 -142.75 1459 -138.800781 C 1453.28125 -131.832031 1446.460938 -126.109375 1439.152344 -120.9375 C 1429.144531 -113.855469 1418.535156 -107.757812 1407.722656 -102.019531 C 1392.132812 -93.75 1375.96875 -86.691406 1359.988281 -79.21875 C 1347.085938 -73.191406 1334.214844 -67.179688 1321.585938 -60.628906 C 1301.667969 -50.300781 1282.675781 -38.527344 1265.304688 -24.242188 C 1246.398438 -8.710938 1229.949219 8.945312 1217.746094 30.292969 C 1212.34375 39.746094 1208.296875 49.730469 1206.882812 60.621094 C 1206.027344 67.234375 1206.222656 73.824219 1208.5625 80.195312 C 1211.332031 87.710938 1216.71875 92.878906 1223.574219 96.699219 C 1232.390625 101.617188 1241.960938 104.015625 1251.890625 105.214844 C 1264.730469 106.769531 1277.636719 106.90625 1290.523438 106.363281 C 1302.847656 105.84375 1315.160156 105.089844 1327.464844 104.097656 C 1337.238281 103.316406 1347.039062 102.546875 1356.847656 102.773438 C 1366.980469 102.992188 1377.128906 103.511719 1386.917969 106.605469 C 1393.414062 108.65625 1399.398438 111.613281 1404.117188 116.695312 C 1409.410156 122.390625 1411.269531 129.222656 1410.597656 136.8125 C 1409.65625 147.375 1405.414062 156.808594 1400.304688 165.898438 C 1392.976562 178.929688 1383.839844 190.671875 1374.140625 201.992188 C 1364.300781 213.472656 1353.679688 224.207031 1342.753906 234.648438 C 1339.25 238 1335.597656 241.191406 1332.015625 244.464844 C 1331.640625 244.792969 1331.050781 244.996094 1331.085938 245.808594 Z M 1331.085938 245.808594 " fill-opacity="1" fill-rule="nonzero"/><path fill="#ffffff" d="M 534.785156 434.078125 L 674.742188 633.542969 L 897.703125 477.164062 L 716.859375 219.425781 L 545.363281 343.773438 L 534.785156 434.078125 " fill-opacity="1" fill-rule="nonzero"/><path fill="#000000" d="M 674.738281 634.320312 C 674.496094 634.320312 674.25 634.207031 674.101562 633.988281 L 534.148438 434.523438 C 533.902344 434.171875 533.988281 433.691406 534.339844 433.441406 C 534.691406 433.199219 535.175781 433.28125 535.421875 433.636719 L 674.929688 632.460938 L 896.617188 476.976562 L 716.675781 220.515625 L 545.820312 344.402344 C 545.472656 344.65625 544.988281 344.578125 544.734375 344.230469 C 544.484375 343.882812 544.5625 343.398438 544.90625 343.144531 L 716.40625 218.796875 C 716.570312 218.675781 716.78125 218.625 716.988281 218.660156 C 717.191406 218.691406 717.378906 218.808594 717.496094 218.976562 L 898.335938 476.722656 C 898.457031 476.886719 898.503906 477.097656 898.46875 477.300781 C 898.429688 477.503906 898.316406 477.683594 898.144531 477.804688 L 675.1875 634.179688 C 675.050781 634.273438 674.894531 634.320312 674.738281 634.320312 " fill-opacity="1" fill-rule="nonzero"/><path fill="#ffffff" d="M 953.324219 403.566406 L 772.480469 145.828125 L 716.859375 219.425781 L 897.707031 477.164062 L 953.324219 403.566406 " fill-opacity="1" fill-rule="nonzero"/><path fill="#000000" d="M 717.820312 219.441406 L 897.726562 475.847656 L 952.359375 403.550781 L 772.453125 147.148438 Z M 897.707031 477.945312 C 897.699219 477.945312 897.691406 477.945312 897.6875 477.945312 C 897.4375 477.9375 897.210938 477.816406 897.066406 477.613281 L 716.226562 219.871094 C 716.027344 219.597656 716.035156 219.222656 716.238281 218.957031 L 771.859375 145.359375 C 772.007812 145.164062 772.25 145.046875 772.492188 145.054688 C 772.742188 145.058594 772.972656 145.179688 773.113281 145.382812 L 953.953125 403.125 C 954.152344 403.398438 954.144531 403.773438 953.941406 404.039062 L 898.324219 477.632812 C 898.171875 477.828125 897.949219 477.945312 897.707031 477.945312 " fill-opacity="1" fill-rule="nonzero"/><path fill="#4ada85" d="M 927.609375 394.0625 L 778.445312 181.464844 L 742.570312 228.929688 L 891.738281 441.53125 L 927.609375 394.0625 " fill-opacity="1" fill-rule="nonzero"/><path fill="#fcb503" d="M 695.949219 321.046875 L 665.738281 277.984375 L 697.316406 255.839844 L 727.527344 298.894531 L 695.949219 321.046875 " fill-opacity="1" fill-rule="nonzero"/><path fill="#fcb503" d="M 738.101562 381.117188 L 707.890625 338.0625 L 739.46875 315.910156 L 769.679688 358.964844 L 738.101562 381.117188 " fill-opacity="1" fill-rule="nonzero"/><path fill="#fcb503" d="M 780.25 441.1875 L 750.039062 398.132812 L 781.617188 375.984375 L 811.828125 419.042969 L 780.25 441.1875 " fill-opacity="1" fill-rule="nonzero"/><path fill="#8c7bff" d="M 822.402344 501.261719 L 792.191406 458.203125 L 823.769531 436.054688 L 853.980469 479.109375 L 822.402344 501.261719 " fill-opacity="1" fill-rule="nonzero"/><path fill="#000000" d="M 620.453125 310.699219 L 649.769531 352.484375 L 680.078125 331.230469 L 650.761719 289.445312 Z M 649.578125 354.34375 C 649.539062 354.34375 649.492188 354.339844 649.445312 354.328125 C 649.246094 354.292969 649.0625 354.183594 648.945312 354.011719 L 618.734375 310.957031 C 618.488281 310.605469 618.574219 310.117188 618.925781 309.871094 L 650.503906 287.726562 C 650.671875 287.605469 650.882812 287.558594 651.085938 287.597656 C 651.285156 287.628906 651.46875 287.746094 651.585938 287.914062 L 681.796875 330.972656 C 682.042969 331.324219 681.957031 331.808594 681.605469 332.054688 L 650.027344 354.203125 C 649.898438 354.292969 649.738281 354.34375 649.578125 354.34375 " fill-opacity="1" fill-rule="nonzero"/><path fill="#000000" d="M 662.601562 370.769531 L 691.921875 412.554688 L 722.226562 391.300781 L 692.910156 349.515625 Z M 691.730469 414.414062 C 691.488281 414.414062 691.246094 414.296875 691.09375 414.085938 L 660.882812 371.027344 C 660.765625 370.859375 660.71875 370.652344 660.757812 370.445312 C 660.789062 370.246094 660.90625 370.0625 661.074219 369.945312 L 692.652344 347.796875 C 693.003906 347.550781 693.488281 347.632812 693.738281 347.988281 L 723.945312 391.042969 C 724.0625 391.210938 724.109375 391.421875 724.074219 391.625 C 724.039062 391.828125 723.925781 392.007812 723.757812 392.128906 L 692.179688 414.273438 C 692.042969 414.367188 691.886719 414.414062 691.730469 414.414062 " fill-opacity="1" fill-rule="nonzero"/><path fill="#000000" d="M 704.753906 430.847656 L 734.070312 472.628906 L 764.375 451.371094 L 735.058594 409.585938 Z M 733.882812 474.484375 C 733.636719 474.484375 733.394531 474.371094 733.246094 474.15625 L 703.035156 431.097656 C 702.914062 430.929688 702.867188 430.722656 702.902344 430.519531 C 702.9375 430.316406 703.054688 430.136719 703.222656 430.015625 L 734.800781 407.871094 C 735.15625 407.625 735.636719 407.710938 735.882812 408.058594 L 766.097656 451.117188 C 766.214844 451.285156 766.261719 451.492188 766.226562 451.695312 C 766.191406 451.898438 766.074219 452.078125 765.90625 452.199219 L 734.328125 474.34375 C 734.191406 474.441406 734.035156 474.484375 733.882812 474.484375 " fill-opacity="1" fill-rule="nonzero"/><path fill="#fcb503" d="M 776.03125 533.78125 L 745.820312 490.726562 L 777.398438 468.578125 L 807.609375 511.636719 L 776.03125 533.78125 " fill-opacity="1" fill-rule="nonzero"/><path fill="#000000" d="M 574.085938 343.21875 L 603.402344 385.007812 L 633.707031 363.75 L 604.390625 321.964844 Z M 603.210938 386.863281 C 603.167969 386.863281 603.125 386.859375 603.078125 386.851562 C 602.875 386.820312 602.695312 386.703125 602.574219 386.53125 L 572.363281 343.476562 C 572.117188 343.125 572.203125 342.640625 572.554688 342.394531 L 604.132812 320.246094 C 604.304688 320.128906 604.511719 320.082031 604.714844 320.117188 C 604.917969 320.152344 605.097656 320.265625 605.21875 320.4375 L 635.425781 363.496094 C 635.671875 363.84375 635.589844 364.332031 635.234375 364.578125 L 603.660156 386.722656 C 603.527344 386.820312 603.371094 386.863281 603.210938 386.863281 " fill-opacity="1" fill-rule="nonzero"/><path fill="#000000" d="M 616.234375 403.292969 L 645.550781 445.078125 L 675.855469 423.824219 L 646.542969 382.039062 Z M 645.363281 446.9375 C 645.117188 446.9375 644.875 446.824219 644.722656 446.609375 L 614.515625 403.546875 C 614.398438 403.382812 614.351562 403.171875 614.386719 402.972656 C 614.421875 402.765625 614.535156 402.585938 614.707031 402.46875 L 646.285156 380.320312 C 646.636719 380.074219 647.121094 380.15625 647.367188 380.511719 L 677.578125 423.566406 C 677.695312 423.734375 677.742188 423.945312 677.703125 424.148438 C 677.667969 424.347656 677.554688 424.53125 677.386719 424.648438 L 645.808594 446.796875 C 645.671875 446.890625 645.515625 446.9375 645.363281 446.9375 " fill-opacity="1" fill-rule="nonzero"/><path fill="#000000" d="M 658.382812 463.367188 L 687.703125 505.148438 L 718.003906 483.894531 L 688.6875 442.109375 Z M 687.511719 507.007812 C 687.46875 507.007812 687.421875 507.007812 687.378906 507 C 687.171875 506.964844 686.996094 506.847656 686.875 506.679688 L 656.664062 463.621094 C 656.417969 463.269531 656.503906 462.789062 656.855469 462.542969 L 688.433594 440.390625 C 688.601562 440.273438 688.808594 440.226562 689.015625 440.261719 C 689.21875 440.300781 689.398438 440.414062 689.515625 440.582031 L 719.726562 483.636719 C 719.972656 483.988281 719.886719 484.472656 719.535156 484.71875 L 687.957031 506.867188 C 687.824219 506.960938 687.671875 507.007812 687.511719 507.007812 " fill-opacity="1" fill-rule="nonzero"/><path fill="#fcb503" d="M 729.660156 566.304688 L 699.449219 523.25 L 731.027344 501.101562 L 761.238281 544.15625 L 729.660156 566.304688 " fill-opacity="1" fill-rule="nonzero"/><path fill="#000000" d="M 556.84375 419.386719 C 556.597656 419.386719 556.359375 419.269531 556.207031 419.054688 C 555.960938 418.703125 556.046875 418.21875 556.398438 417.972656 L 587.339844 396.273438 L 558.019531 354.488281 L 548.167969 361.398438 C 547.816406 361.644531 547.332031 361.558594 547.085938 361.207031 C 546.839844 360.855469 546.925781 360.375 547.277344 360.125 L 557.765625 352.769531 C 557.933594 352.648438 558.140625 352.601562 558.347656 352.640625 C 558.546875 352.671875 558.730469 352.789062 558.847656 352.960938 L 589.058594 396.015625 C 589.304688 396.367188 589.21875 396.851562 588.867188 397.097656 L 557.289062 419.246094 C 557.152344 419.339844 557 419.386719 556.84375 419.386719 " fill-opacity="1" fill-rule="nonzero"/><path fill="#000000" d="M 569.863281 435.8125 L 599.183594 477.597656 L 629.488281 456.34375 L 600.171875 414.558594 Z M 598.992188 479.457031 C 598.75 479.457031 598.507812 479.34375 598.355469 479.128906 L 568.144531 436.070312 C 568.027344 435.902344 567.980469 435.695312 568.015625 435.488281 C 568.050781 435.289062 568.167969 435.105469 568.335938 434.988281 L 599.914062 412.839844 C 600.265625 412.59375 600.75 412.675781 600.996094 413.03125 L 631.207031 456.085938 C 631.328125 456.253906 631.371094 456.46875 631.335938 456.667969 C 631.300781 456.871094 631.1875 457.050781 631.015625 457.171875 L 599.4375 479.316406 C 599.304688 479.410156 599.148438 479.457031 598.992188 479.457031 " fill-opacity="1" fill-rule="nonzero"/><path fill="#000000" d="M 612.015625 495.890625 L 641.332031 537.671875 L 671.640625 516.417969 L 642.320312 474.628906 Z M 641.140625 539.53125 C 640.898438 539.53125 640.65625 539.414062 640.503906 539.203125 L 610.296875 496.140625 C 610.175781 495.972656 610.128906 495.765625 610.167969 495.5625 C 610.203125 495.359375 610.316406 495.179688 610.484375 495.0625 L 642.0625 472.914062 C 642.414062 472.667969 642.902344 472.753906 643.148438 473.105469 L 673.355469 516.160156 C 673.601562 516.511719 673.515625 516.996094 673.167969 517.242188 L 641.589844 539.386719 C 641.453125 539.488281 641.296875 539.53125 641.140625 539.53125 " fill-opacity="1" fill-rule="nonzero"/><path fill="#fcb503" d="M 683.289062 598.824219 L 653.078125 555.769531 L 684.660156 533.625 L 714.867188 576.679688 L 683.289062 598.824219 " fill-opacity="1" fill-rule="nonzero"/><path fill="#000000" d="M 676.816406 132.96875 C 676.816406 141.464844 669.929688 148.359375 661.429688 148.359375 C 652.929688 148.359375 646.039062 141.464844 646.039062 132.96875 C 646.039062 124.472656 652.929688 117.585938 661.429688 117.585938 C 669.929688 117.585938 676.816406 124.472656 676.816406 132.96875 " fill-opacity="1" fill-rule="nonzero"/><path fill="#000000" d="M 700.917969 137.324219 C 700.917969 145.820312 694.027344 152.707031 685.527344 152.707031 C 677.03125 152.707031 670.140625 145.820312 670.140625 137.324219 C 670.140625 128.828125 677.03125 121.9375 685.527344 121.9375 C 694.027344 121.9375 700.917969 128.828125 700.917969 137.324219 " fill-opacity="1" fill-rule="nonzero"/><path fill="#000000" d="M 725.015625 141.675781 C 725.015625 150.175781 718.128906 157.066406 709.628906 157.066406 C 701.128906 157.066406 694.238281 150.175781 694.238281 141.675781 C 694.238281 133.179688 701.128906 126.292969 709.628906 126.292969 C 718.128906 126.292969 725.015625 133.179688 725.015625 141.675781 " fill-opacity="1" fill-rule="nonzero"/><path fill="#fda4ff" d="M 661.707031 152.992188 L 649.585938 152.992188 L 649.585938 137.324219 L 661.707031 137.324219 L 661.707031 152.992188 " fill-opacity="1" fill-rule="nonzero"/><path fill="#000000" d="M 661.707031 141.917969 L 661.707031 137.324219 L 649.585938 137.324219 L 649.585938 147.46875 C 650.675781 147.6875 652.859375 147.957031 655.363281 147.132812 C 659.285156 145.84375 661.210938 142.78125 661.707031 141.917969 " fill-opacity="1" fill-rule="nonzero"/><path fill="#fda4ff" d="M 663.753906 133.746094 C 663.753906 139.699219 659.390625 144.523438 654.003906 144.523438 C 648.617188 144.523438 644.253906 139.699219 644.253906 133.746094 C 644.253906 127.796875 648.617188 122.972656 654.003906 122.972656 C 659.390625 122.972656 663.753906 127.796875 663.753906 133.746094 " fill-opacity="1" fill-rule="nonzero"/><path fill="#000000" d="M 653.902344 122.777344 C 652.890625 122.777344 651.914062 122.945312 650.992188 123.257812 C 652.277344 129.886719 657.105469 135.246094 663.425781 137.296875 C 663.746094 136.214844 663.929688 135.054688 663.929688 133.851562 C 663.929688 127.734375 659.441406 122.777344 653.902344 122.777344 " fill-opacity="1" fill-rule="nonzero"/><path fill="#ffffff" d="M 658.238281 138.480469 C 657.296875 139.34375 656.085938 139.925781 654.714844 140.066406 C 651.664062 140.378906 648.910156 138.390625 648.152344 135.515625 L 658.238281 138.480469 " fill-opacity="1" fill-rule="nonzero"/><path fill="#000000" d="M 497.808594 389.769531 L 455.746094 396.300781 L 445.128906 327.9375 L 487.191406 321.40625 L 497.808594 389.769531 " fill-opacity="1" fill-rule="nonzero"/><path fill="#4ada85" d="M 412.757812 421.367188 L 430.207031 405.972656 L 443.503906 378.363281 L 470.949219 381.886719 C 476.777344 382.636719 482.652344 380.90625 487.144531 377.128906 L 487.921875 376.476562 C 492.460938 372.65625 494.40625 366.574219 492.929688 360.832031 L 492.558594 359.382812 C 491.828125 356.53125 495.363281 354.570312 497.394531 356.699219 L 536.128906 397.285156 L 522.609375 410.265625 C 515.441406 417.152344 507.257812 422.898438 498.347656 427.308594 L 494.773438 429.074219 C 473.050781 439.816406 449.820312 447.1875 425.875 450.941406 L 408.691406 453.632812 L 401.59375 447.722656 L 401.316406 447.160156 C 399.324219 443.132812 399.171875 438.441406 400.90625 434.300781 L 400.929688 434.242188 C 401.785156 432.199219 403.066406 430.359375 404.691406 428.851562 L 412.757812 421.367188 " fill-opacity="1" fill-rule="nonzero"/><path fill="#ffffff" d="M 455.152344 379.859375 L 443.503906 378.363281 L 430.207031 405.972656 L 440.917969 400.671875 C 444.492188 398.90625 447.371094 395.996094 449.105469 392.40625 L 455.152344 379.859375 " fill-opacity="1" fill-rule="nonzero"/><path fill="#000000" d="M 443.960938 379.203125 L 431.886719 404.273438 L 440.574219 399.976562 C 443.976562 398.292969 446.757812 395.484375 448.402344 392.066406 L 453.984375 380.492188 Z M 430.207031 406.746094 C 430.007812 406.746094 429.808594 406.671875 429.660156 406.523438 C 429.425781 406.289062 429.363281 405.933594 429.507812 405.632812 L 442.804688 378.023438 C 442.949219 377.722656 443.273438 377.546875 443.601562 377.589844 L 455.25 379.085938 C 455.5 379.117188 455.71875 379.265625 455.835938 379.488281 C 455.957031 379.707031 455.960938 379.96875 455.851562 380.195312 L 449.804688 392.742188 C 448.007812 396.472656 444.972656 399.535156 441.261719 401.371094 L 430.550781 406.667969 C 430.441406 406.722656 430.324219 406.746094 430.207031 406.746094 " fill-opacity="1" fill-rule="nonzero"/><path fill="#ffffff" d="M 476.546875 405.726562 L 479.773438 412.253906 L 498.222656 388.261719 L 504.523438 399.96875 L 515.085938 375.238281 L 519.007812 374.394531 L 538.613281 395.175781 L 522.472656 410.511719 C 515.390625 417.238281 507.339844 422.855469 498.585938 427.1875 L 494.773438 429.074219 C 473.050781 439.816406 449.820312 447.1875 425.875 450.941406 L 408.691406 453.632812 L 401.59375 447.722656 L 410.015625 445.367188 C 440.855469 436.371094 456.949219 417.445312 456.949219 417.445312 L 459.394531 422.734375 L 476.546875 405.726562 " fill-opacity="1" fill-rule="nonzero"/><path fill="#000000" d="M 403.226562 448.074219 L 408.921875 452.8125 L 425.753906 450.171875 C 449.648438 446.429688 472.753906 439.09375 494.429688 428.375 L 498.242188 426.492188 C 506.933594 422.191406 514.90625 416.628906 521.9375 409.945312 L 537.515625 395.148438 L 518.742188 375.246094 L 515.644531 375.910156 L 505.238281 400.273438 C 505.121094 400.550781 504.855469 400.730469 504.558594 400.742188 C 504.246094 400.757812 503.980469 400.597656 503.839844 400.335938 L 498.105469 389.691406 L 480.390625 412.722656 C 480.226562 412.9375 479.96875 413.050781 479.699219 413.023438 C 479.429688 412.996094 479.195312 412.835938 479.078125 412.597656 L 476.328125 407.035156 L 459.9375 423.289062 C 459.757812 423.46875 459.503906 423.542969 459.253906 423.5 C 459.003906 423.453125 458.792969 423.289062 458.6875 423.0625 L 456.734375 418.835938 C 453.082031 422.703125 437.132812 438.265625 410.230469 446.113281 Z M 408.691406 454.410156 C 408.511719 454.410156 408.335938 454.347656 408.195312 454.230469 L 401.09375 448.320312 C 400.875 448.132812 400.773438 447.839844 400.832031 447.558594 C 400.894531 447.277344 401.105469 447.050781 401.382812 446.972656 L 409.804688 444.621094 C 440.066406 435.789062 456.199219 417.128906 456.359375 416.941406 C 456.53125 416.742188 456.789062 416.640625 457.054688 416.671875 C 457.320312 416.714844 457.546875 416.878906 457.65625 417.117188 L 459.632812 421.402344 L 476 405.171875 C 476.175781 404.996094 476.425781 404.914062 476.671875 404.957031 C 476.917969 405 477.132812 405.15625 477.242188 405.382812 L 479.917969 410.789062 L 497.605469 387.789062 C 497.765625 387.582031 498.023438 387.46875 498.285156 387.492188 C 498.546875 387.511719 498.78125 387.664062 498.90625 387.894531 L 504.441406 398.179688 L 514.371094 374.933594 C 514.472656 374.699219 514.675781 374.53125 514.921875 374.476562 L 518.84375 373.636719 C 519.113281 373.574219 519.386719 373.664062 519.574219 373.859375 L 539.179688 394.644531 C 539.472656 394.957031 539.457031 395.445312 539.148438 395.738281 L 523.007812 411.074219 C 515.863281 417.859375 507.761719 423.515625 498.929688 427.886719 L 495.117188 429.765625 C 473.300781 440.5625 450.042969 447.9375 425.996094 451.710938 L 408.8125 454.402344 C 408.773438 454.40625 408.734375 454.410156 408.691406 454.410156 " fill-opacity="1" fill-rule="nonzero"/><path fill="#000000" d="M 563.878906 492.332031 L 521.3125 492.332031 L 521.3125 446.277344 L 563.878906 446.277344 L 563.878906 492.332031 " fill-opacity="1" fill-rule="nonzero"/><path fill="#4ada85" d="M 464.902344 488.5 L 487.367188 482.433594 L 511.53125 463.582031 L 534.566406 478.90625 C 539.460938 482.160156 545.492188 483.214844 551.195312 481.820312 L 552.179688 481.578125 C 557.941406 480.167969 562.382812 475.578125 563.609375 469.777344 L 563.917969 468.3125 C 564.523438 465.433594 568.566406 465.242188 569.441406 468.050781 L 586.164062 521.601562 L 568.289062 527.246094 C 558.808594 530.238281 548.925781 531.761719 538.984375 531.761719 L 535 531.761719 C 510.761719 531.761719 486.667969 528.074219 463.542969 520.820312 L 446.949219 515.617188 L 443.207031 507.171875 L 443.207031 506.542969 C 443.207031 502.054688 445.152344 497.785156 448.542969 494.839844 L 448.589844 494.796875 C 450.261719 493.339844 452.226562 492.265625 454.351562 491.632812 L 464.902344 488.5 " fill-opacity="1" fill-rule="nonzero"/><path fill="#ffffff" d="M 521.308594 470.085938 L 511.53125 463.582031 L 487.367188 482.433594 L 499.320312 482.433594 C 503.308594 482.433594 507.179688 481.097656 510.324219 478.652344 L 521.308594 470.085938 " fill-opacity="1" fill-rule="nonzero"/><path fill="#000000" d="M 489.628906 481.65625 L 499.320312 481.65625 C 503.113281 481.65625 506.851562 480.371094 509.84375 478.039062 L 519.980469 470.136719 L 511.566406 464.535156 Z M 499.320312 483.210938 L 487.367188 483.210938 C 487.035156 483.210938 486.742188 483 486.632812 482.683594 C 486.527344 482.371094 486.628906 482.023438 486.890625 481.820312 L 511.054688 462.96875 C 511.316406 462.761719 511.683594 462.746094 511.960938 462.933594 L 521.738281 469.4375 C 521.949219 469.574219 522.074219 469.808594 522.085938 470.054688 C 522.09375 470.304688 521.984375 470.542969 521.789062 470.699219 L 510.800781 479.265625 C 507.539062 481.808594 503.460938 483.210938 499.320312 483.210938 " fill-opacity="1" fill-rule="nonzero"/><path fill="#ffffff" d="M 529.015625 502.753906 L 529.015625 510.035156 L 556.1875 496.710938 L 556.644531 509.992188 L 577.078125 492.511719 L 580.96875 493.492188 L 589.324219 520.8125 L 568.058594 527.402344 C 558.726562 530.289062 549.015625 531.761719 539.25 531.761719 L 535 531.761719 C 510.761719 531.761719 486.667969 528.074219 463.542969 520.820312 L 446.949219 515.617188 L 443.207031 507.171875 L 451.800781 508.796875 C 483.433594 514.402344 506.253906 504.570312 506.253906 504.570312 L 506.09375 510.394531 L 529.015625 502.753906 " fill-opacity="1" fill-rule="nonzero"/><path fill="#000000" d="M 447.515625 514.984375 L 463.777344 520.078125 C 486.851562 527.316406 510.816406 530.984375 535 530.984375 L 539.25 530.984375 C 548.949219 530.984375 558.5625 529.527344 567.828125 526.65625 L 588.355469 520.296875 L 580.355469 494.136719 L 577.28125 493.363281 L 557.148438 510.585938 C 556.921875 510.78125 556.601562 510.828125 556.332031 510.707031 C 556.058594 510.585938 555.878906 510.316406 555.867188 510.023438 L 555.449219 497.9375 L 529.355469 510.730469 C 529.113281 510.851562 528.828125 510.835938 528.601562 510.691406 C 528.375 510.550781 528.234375 510.300781 528.234375 510.035156 L 528.234375 503.832031 L 506.339844 511.132812 C 506.101562 511.214844 505.835938 511.171875 505.632812 511.019531 C 505.429688 510.871094 505.3125 510.628906 505.316406 510.375 L 505.445312 505.71875 C 500.457031 507.570312 479.257812 514.453125 451.664062 509.5625 L 444.515625 508.210938 Z M 539.25 532.539062 L 535 532.539062 C 510.65625 532.539062 486.539062 528.84375 463.3125 521.5625 L 446.714844 516.359375 C 446.503906 516.292969 446.328125 516.136719 446.238281 515.929688 L 442.496094 507.488281 C 442.378906 507.222656 442.417969 506.917969 442.597656 506.6875 C 442.777344 506.464844 443.066406 506.355469 443.351562 506.410156 L 451.945312 508.03125 C 482.980469 513.53125 505.71875 503.957031 505.945312 503.859375 C 506.1875 503.753906 506.46875 503.777344 506.6875 503.929688 C 506.910156 504.078125 507.035156 504.328125 507.03125 504.59375 L 506.902344 509.308594 L 528.765625 502.015625 C 529.003906 501.9375 529.265625 501.972656 529.46875 502.121094 C 529.671875 502.265625 529.789062 502.503906 529.789062 502.753906 L 529.789062 508.785156 L 555.84375 496.011719 C 556.078125 495.894531 556.359375 495.910156 556.585938 496.042969 C 556.8125 496.179688 556.953125 496.421875 556.960938 496.683594 L 557.367188 508.355469 L 576.574219 491.921875 C 576.765625 491.753906 577.023438 491.695312 577.269531 491.753906 L 581.160156 492.738281 C 581.421875 492.804688 581.632812 493.007812 581.710938 493.265625 L 590.066406 520.582031 C 590.191406 520.996094 589.960938 521.429688 589.554688 521.550781 L 568.289062 528.140625 C 558.875 531.058594 549.105469 532.539062 539.25 532.539062 " fill-opacity="1" fill-rule="nonzero"/><path fill="#8c7bff" d="M 625.011719 228.816406 L 452.308594 228.816406 C 435.308594 228.816406 422.449219 244.1875 425.453125 260.917969 L 441.742188 351.648438 L 498.40625 351.648438 L 488.566406 287.273438 L 588.585938 287.273438 C 608.703125 287.273438 625.011719 270.96875 625.011719 250.855469 L 625.011719 228.816406 " fill-opacity="1" fill-rule="nonzero"/><path fill="#8c7bff" d="M 665.707031 254.367188 L 673.863281 222.210938 L 608.367188 222.210938 L 526.792969 285.132812 C 515.902344 293.535156 509.523438 306.507812 509.523438 320.261719 L 509.523438 455.628906 L 574.546875 455.628906 L 574.546875 330.195312 L 618.167969 287.007812 L 624.0625 286.972656 C 643.75 286.851562 660.867188 273.449219 665.707031 254.367188 " fill-opacity="1" fill-rule="nonzero"/><path fill="#000000" d="M 510.300781 455.488281 L 573.769531 455.488281 L 573.769531 330.199219 C 573.769531 329.988281 573.851562 329.789062 573.996094 329.644531 L 617.621094 286.457031 C 617.765625 286.320312 617.957031 286.234375 618.164062 286.230469 L 624.058594 286.199219 C 643.386719 286.078125 660.203125 272.914062 664.953125 254.179688 L 672.859375 222.992188 L 608.632812 222.992188 L 527.269531 285.75 C 516.644531 293.945312 510.300781 306.851562 510.300781 320.265625 Z M 574.546875 457.039062 L 509.523438 457.039062 C 509.097656 457.039062 508.746094 456.691406 508.746094 456.261719 L 508.746094 320.265625 C 508.746094 306.371094 515.316406 293.007812 526.320312 284.519531 L 607.890625 221.597656 C 608.027344 221.488281 608.195312 221.433594 608.367188 221.433594 L 673.863281 221.433594 C 674.101562 221.433594 674.328125 221.546875 674.476562 221.734375 C 674.625 221.925781 674.671875 222.171875 674.613281 222.402344 L 666.457031 254.5625 C 661.535156 273.976562 644.101562 287.625 624.066406 287.75 L 618.488281 287.789062 L 575.320312 330.519531 L 575.320312 456.261719 C 575.320312 456.691406 574.976562 457.039062 574.546875 457.039062 " fill-opacity="1" fill-rule="nonzero"/><path fill="#fda4ff" d="M 559.25 189.386719 L 536.558594 181.777344 C 533.375 180.714844 529.859375 181.597656 527.554688 184.046875 L 522.289062 189.648438 C 520.953125 191.066406 519.941406 192.761719 519.320312 194.609375 L 517.890625 198.882812 C 517.277344 200.703125 518.261719 202.679688 520.085938 203.289062 L 520.542969 203.441406 C 522.367188 204.054688 524.339844 203.070312 524.953125 201.246094 L 525.886719 198.457031 C 526.492188 196.648438 527.484375 194.996094 528.789062 193.609375 L 531.519531 190.703125 C 532.71875 189.429688 534.550781 188.96875 536.210938 189.523438 L 556.882812 196.449219 L 559.25 189.386719 " fill-opacity="1" fill-rule="nonzero"/><path fill="#fda4ff" d="M 551.328125 192.59375 L 538.195312 188.191406 C 535.007812 187.121094 531.492188 188.003906 529.191406 190.453125 L 523.921875 196.054688 C 522.585938 197.472656 521.574219 199.171875 520.953125 201.019531 L 519.523438 205.285156 C 518.910156 207.113281 519.894531 209.085938 521.71875 209.699219 L 522.175781 209.851562 C 524 210.464844 525.976562 209.476562 526.585938 207.65625 L 527.523438 204.867188 C 528.128906 203.0625 529.117188 201.40625 530.421875 200.019531 L 533.152344 197.113281 C 534.355469 195.835938 536.183594 195.378906 537.84375 195.933594 L 548.957031 199.65625 L 551.328125 192.59375 " fill-opacity="1" fill-rule="nonzero"/><path fill="#fda4ff" d="M 553.523438 198.359375 L 540.390625 193.957031 C 537.203125 192.890625 533.6875 193.773438 531.386719 196.222656 L 526.121094 201.820312 C 524.785156 203.242188 523.769531 204.9375 523.152344 206.789062 L 521.71875 211.058594 C 521.109375 212.878906 522.089844 214.851562 523.914062 215.460938 L 524.375 215.617188 C 526.199219 216.230469 528.171875 215.246094 528.785156 213.421875 L 529.71875 210.632812 C 530.324219 208.828125 531.3125 207.171875 532.617188 205.785156 L 535.351562 202.878906 C 536.550781 201.605469 538.382812 201.144531 540.042969 201.703125 L 551.15625 205.421875 L 553.523438 198.359375 " fill-opacity="1" fill-rule="nonzero"/><path fill="#fda4ff" d="M 585.621094 206.660156 L 585.621094 186.167969 L 550.84375 186.199219 L 541.847656 183.429688 L 536.148438 200.4375 L 548.675781 204.636719 L 548.425781 204.917969 C 547.390625 206.113281 545.886719 206.796875 544.308594 206.796875 L 537.289062 206.796875 C 535.417969 206.796875 533.898438 208.3125 533.898438 210.1875 L 533.898438 210.417969 C 533.898438 212.285156 535.40625 213.800781 537.273438 213.808594 C 540.351562 213.820312 546.359375 213.832031 547.074219 213.789062 C 547.457031 213.765625 547.839844 213.71875 548.21875 213.648438 L 585.621094 206.660156 " fill-opacity="1" fill-rule="nonzero"/><path fill="#fda4ff" d="M 548.214844 213.648438 C 549.351562 213.4375 550.449219 213.011719 551.445312 212.375 L 560.636719 206.660156 L 585.617188 206.660156 L 548.214844 213.648438 " fill-opacity="1" fill-rule="nonzero"/><path fill="#000000" d="M 525.480469 216.570312 C 525.03125 216.570312 524.578125 216.503906 524.128906 216.351562 L 523.667969 216.199219 C 521.441406 215.449219 520.238281 213.03125 520.984375 210.804688 L 522.414062 206.539062 C 523.066406 204.59375 524.152344 202.777344 525.554688 201.285156 L 530.820312 195.683594 C 533.320312 193.027344 537.175781 192.058594 540.636719 193.21875 L 542.753906 193.925781 C 543.160156 194.0625 543.378906 194.5 543.242188 194.910156 C 543.105469 195.316406 542.664062 195.535156 542.257812 195.402344 L 540.144531 194.691406 C 537.253906 193.722656 534.039062 194.53125 531.953125 196.75 L 526.6875 202.351562 C 525.4375 203.679688 524.46875 205.300781 523.886719 207.03125 L 522.457031 211.300781 C 521.984375 212.710938 522.75 214.25 524.164062 214.726562 L 524.621094 214.878906 C 526.035156 215.351562 527.574219 214.585938 528.046875 213.171875 L 528.980469 210.386719 C 529.617188 208.484375 530.679688 206.707031 532.054688 205.253906 L 534.785156 202.34375 C 536.1875 200.851562 538.347656 200.308594 540.289062 200.960938 L 548.519531 203.714844 C 548.925781 203.851562 549.144531 204.292969 549.007812 204.699219 C 548.871094 205.109375 548.429688 205.328125 548.023438 205.191406 L 539.796875 202.433594 C 538.429688 201.972656 536.90625 202.359375 535.917969 203.410156 L 533.183594 206.316406 C 531.964844 207.613281 531.023438 209.1875 530.457031 210.878906 L 529.523438 213.667969 C 528.925781 215.445312 527.261719 216.570312 525.480469 216.570312 " fill-opacity="1" fill-rule="nonzero"/><path fill="#000000" d="M 522.019531 210.578125 C 521.9375 210.578125 521.855469 210.566406 521.773438 210.539062 L 521.472656 210.4375 C 519.242188 209.691406 518.039062 207.273438 518.785156 205.046875 L 520.214844 200.773438 C 520.867188 198.835938 521.953125 197.019531 523.355469 195.523438 L 528.621094 189.925781 C 531.125 187.265625 534.976562 186.296875 538.4375 187.457031 L 542.320312 188.757812 C 542.726562 188.890625 542.945312 189.332031 542.808594 189.742188 C 542.671875 190.148438 542.234375 190.371094 541.824219 190.234375 L 537.945312 188.933594 C 535.054688 187.960938 531.839844 188.769531 529.753906 190.992188 L 524.488281 196.589844 C 523.238281 197.917969 522.269531 199.539062 521.6875 201.269531 L 520.257812 205.539062 C 519.785156 206.957031 520.550781 208.492188 521.964844 208.964844 L 522.265625 209.066406 C 522.675781 209.203125 522.894531 209.644531 522.757812 210.046875 C 522.648438 210.371094 522.34375 210.578125 522.019531 210.578125 " fill-opacity="1" fill-rule="nonzero"/><path fill="#000000" d="M 543.132812 214.636719 C 542.261719 214.636719 541.324219 214.628906 540.316406 214.617188 C 539.371094 214.605469 538.359375 214.59375 537.265625 214.589844 C 534.980469 214.578125 533.121094 212.707031 533.121094 210.421875 L 533.121094 210.1875 C 533.121094 207.894531 534.992188 206.027344 537.289062 206.027344 L 544.304688 206.027344 C 545.664062 206.027344 546.949219 205.4375 547.835938 204.414062 L 548.085938 204.128906 C 548.367188 203.804688 548.859375 203.769531 549.183594 204.054688 C 549.507812 204.335938 549.542969 204.824219 549.257812 205.148438 L 549.011719 205.433594 C 547.828125 206.796875 546.109375 207.578125 544.304688 207.578125 L 537.289062 207.578125 C 535.847656 207.578125 534.675781 208.753906 534.675781 210.1875 L 534.675781 210.421875 C 534.675781 211.855469 535.84375 213.027344 537.277344 213.035156 C 538.371094 213.039062 539.386719 213.050781 540.332031 213.0625 C 545.765625 213.125 548.765625 213.160156 551.027344 211.71875 L 560.222656 206.003906 C 560.347656 205.925781 560.488281 205.886719 560.632812 205.886719 L 584.84375 205.886719 L 584.84375 187.011719 L 551.101562 186.980469 C 551.027344 186.980469 550.953125 186.972656 550.878906 186.949219 L 536.332031 182.523438 C 533.421875 181.554688 530.207031 182.359375 528.121094 184.582031 L 522.855469 190.179688 C 521.601562 191.507812 520.636719 193.128906 520.054688 194.859375 L 518.625 199.128906 C 518.152344 200.542969 518.914062 202.082031 520.332031 202.554688 C 520.738281 202.6875 520.957031 203.128906 520.820312 203.539062 C 520.683594 203.945312 520.246094 204.164062 519.835938 204.027344 C 517.609375 203.28125 516.40625 200.863281 517.152344 198.636719 L 518.582031 194.367188 C 519.234375 192.421875 520.320312 190.609375 521.722656 189.117188 L 526.988281 183.511719 C 529.488281 180.855469 533.34375 179.886719 536.804688 181.046875 L 551.21875 185.429688 L 585.621094 185.460938 C 586.050781 185.460938 586.394531 185.808594 586.394531 186.238281 L 586.394531 206.664062 C 586.394531 207.09375 586.046875 207.4375 585.617188 207.4375 L 560.855469 207.4375 L 551.855469 213.035156 C 549.691406 214.414062 547.058594 214.636719 543.132812 214.636719 " fill-opacity="1" fill-rule="nonzero"/><path fill="#fed101" d="M 626.246094 158.183594 L 606.964844 179.921875 C 604.363281 182.859375 600.628906 184.535156 596.707031 184.535156 L 564.148438 184.535156 L 564.148438 212.265625 L 604.890625 212.246094 C 611.007812 212.242188 616.824219 209.613281 620.867188 205.023438 L 652.253906 169.382812 L 638.394531 157.382812 C 634.8125 154.273438 629.390625 154.628906 626.246094 158.183594 " fill-opacity="1" fill-rule="nonzero"/><path fill="#fed101" d="M 679.074219 235.058594 L 600.097656 235.058594 L 600.363281 225.597656 L 618.941406 225.597656 L 621.542969 170.742188 C 622.148438 159.976562 630.035156 151.777344 640.511719 151.777344 L 664.066406 151.777344 L 679.074219 235.058594 " fill-opacity="1" fill-rule="nonzero"/><path fill="#000000" d="M 536.148438 226.949219 L 455.617188 226.949219 L 417.742188 162.085938 L 498.273438 162.085938 L 536.148438 226.949219 " fill-opacity="1" fill-rule="nonzero"/><path fill="#000000" d="M 455.617188 235.140625 L 600.414062 235.140625 L 600.414062 226.949219 L 455.617188 226.949219 L 455.617188 235.140625 " fill-opacity="1" fill-rule="nonzero"/><path fill="#ffffff" d="M 470.90625 196.71875 C 470.058594 193.628906 471.753906 190.46875 474.695312 189.664062 C 477.636719 188.859375 480.707031 190.707031 481.554688 193.800781 C 482.398438 196.890625 480.703125 200.050781 477.765625 200.855469 C 474.824219 201.660156 471.753906 199.8125 470.90625 196.71875 " fill-opacity="1" fill-rule="nonzero"/><path fill="#fda4ff" d="M 611.066406 204.570312 L 580.976562 204.558594 L 580.976562 229.164062 L 611.066406 229.171875 L 611.066406 204.570312 " fill-opacity="1" fill-rule="nonzero"/><path fill="#fda4ff" d="M 553.957031 212.214844 L 551.289062 215.097656 C 549.941406 216.554688 549.804688 218.761719 550.964844 220.375 L 553.585938 224.011719 L 559.941406 216.925781 L 599.875 216.925781 L 599.875 208.570312 L 562.304688 208.570312 C 559.136719 208.570312 556.109375 209.890625 553.957031 212.214844 " fill-opacity="1" fill-rule="nonzero"/><path fill="#fda4ff" d="M 555.191406 207 L 553.679688 208.632812 C 552.332031 210.085938 552.195312 212.296875 553.355469 213.90625 L 555.980469 217.546875 L 562.335938 210.457031 L 599.875 210.457031 L 599.875 204.644531 L 593.503906 204.644531 C 590.871094 204.644531 586.167969 202.101562 580.21875 202.101562 L 566.402344 202.101562 C 562.144531 202.101562 558.082031 203.875 555.191406 207 " fill-opacity="1" fill-rule="nonzero"/><path fill="#000000" d="M 550.96875 221.148438 C 550.722656 221.148438 550.488281 221.039062 550.335938 220.824219 C 548.964844 218.921875 549.125 216.289062 550.71875 214.570312 L 553.390625 211.683594 C 555.683594 209.207031 558.929688 207.789062 562.308594 207.789062 L 569.65625 207.789062 C 570.085938 207.789062 570.433594 208.136719 570.433594 208.566406 C 570.433594 208.996094 570.085938 209.34375 569.65625 209.34375 L 562.308594 209.34375 C 559.363281 209.34375 556.53125 210.578125 554.53125 212.742188 L 551.859375 215.625 C 550.765625 216.804688 550.65625 218.609375 551.597656 219.917969 C 551.847656 220.265625 551.769531 220.75 551.417969 221.003906 C 551.28125 221.101562 551.125 221.148438 550.96875 221.148438 " fill-opacity="1" fill-rule="nonzero"/><path fill="#fda4ff" d="M 553.027344 217.824219 L 549.824219 221.289062 C 548.472656 222.742188 548.339844 224.949219 549.5 226.558594 L 552.121094 230.203125 L 558.476562 223.109375 L 583.21875 223.109375 L 583.21875 214.753906 L 560.058594 214.753906 C 557.386719 214.753906 554.839844 215.871094 553.027344 217.824219 " fill-opacity="1" fill-rule="nonzero"/><path fill="#000000" d="M 550.519531 228.757812 C 550.277344 228.757812 550.039062 228.644531 549.890625 228.433594 L 548.867188 227.015625 C 547.496094 225.113281 547.660156 222.484375 549.25 220.761719 L 552.453125 217.300781 C 554.410156 215.191406 557.179688 213.980469 560.058594 213.980469 L 569.722656 213.980469 C 570.152344 213.980469 570.5 214.328125 570.5 214.757812 C 570.5 215.1875 570.152344 215.53125 569.722656 215.53125 L 560.058594 215.53125 C 557.613281 215.53125 555.257812 216.5625 553.597656 218.355469 L 550.394531 221.816406 C 549.300781 223 549.191406 224.804688 550.128906 226.105469 L 551.152344 227.527344 C 551.402344 227.875 551.320312 228.359375 550.972656 228.609375 C 550.835938 228.707031 550.679688 228.757812 550.519531 228.757812 " fill-opacity="1" fill-rule="nonzero"/><path fill="#fda4ff" d="M 554.199219 223.914062 L 550.855469 227.523438 C 549.617188 228.863281 549.492188 230.886719 550.558594 232.367188 C 551.988281 234.351562 554.890625 234.507812 556.523438 232.683594 L 558.339844 230.660156 C 559.203125 229.695312 560.441406 229.140625 561.742188 229.140625 L 582.515625 229.140625 C 587.945312 229.140625 591.769531 228.832031 597 220.78125 L 561.351562 220.785156 C 558.636719 220.785156 556.042969 221.917969 554.199219 223.914062 " fill-opacity="1" fill-rule="nonzero"/><path fill="#000000" d="M 553.671875 234.738281 C 553.589844 234.738281 553.507812 234.734375 553.421875 234.730469 C 552.019531 234.65625 550.746094 233.960938 549.925781 232.824219 C 548.648438 231.050781 548.800781 228.597656 550.285156 226.996094 L 553.625 223.386719 C 555.613281 221.238281 558.429688 220.011719 561.351562 220.011719 L 569.398438 220.011719 C 569.828125 220.011719 570.175781 220.359375 570.175781 220.789062 C 570.175781 221.214844 569.828125 221.566406 569.398438 221.566406 L 561.351562 221.566406 C 558.859375 221.566406 556.460938 222.613281 554.769531 224.441406 L 551.425781 228.050781 C 550.441406 229.117188 550.34375 230.738281 551.1875 231.914062 C 551.730469 232.667969 552.578125 233.132812 553.507812 233.179688 C 554.4375 233.226562 555.324219 232.859375 555.945312 232.167969 L 557.757812 230.140625 C 558.769531 229.015625 560.222656 228.367188 561.738281 228.367188 L 584.714844 228.367188 C 588.457031 228.367188 591.945312 226.515625 594.046875 223.414062 C 594.289062 223.0625 594.769531 222.96875 595.125 223.207031 C 595.480469 223.449219 595.574219 223.933594 595.332031 224.285156 C 592.941406 227.816406 588.972656 229.917969 584.714844 229.917969 L 561.738281 229.917969 C 560.664062 229.917969 559.632812 230.378906 558.914062 231.179688 L 557.101562 233.207031 C 556.222656 234.1875 554.984375 234.738281 553.671875 234.738281 " fill-opacity="1" fill-rule="nonzero"/><path fill="#000000" d="M 611.066406 229.957031 L 576.785156 229.957031 C 576.355469 229.957031 576.007812 229.609375 576.007812 229.179688 C 576.007812 228.75 576.355469 228.398438 576.785156 228.398438 L 610.289062 228.398438 L 610.289062 205.351562 L 594.695312 205.351562 C 592.1875 205.351562 590.242188 204.816406 588.183594 204.246094 C 585.746094 203.574219 583.226562 202.882812 579.296875 202.882812 L 566.402344 202.882812 C 562.375 202.882812 558.496094 204.578125 555.761719 207.53125 L 554.25 209.160156 C 553.304688 210.183594 553.074219 211.65625 553.667969 212.910156 C 553.851562 213.300781 553.683594 213.761719 553.292969 213.945312 C 552.90625 214.125 552.441406 213.960938 552.257812 213.574219 C 551.398438 211.738281 551.730469 209.59375 553.109375 208.105469 L 554.621094 206.476562 C 557.648438 203.203125 561.941406 201.328125 566.402344 201.328125 L 579.296875 201.328125 C 583.433594 201.328125 586.175781 202.082031 588.59375 202.75 C 590.636719 203.308594 592.398438 203.796875 594.695312 203.796875 L 611.066406 203.796875 C 611.496094 203.796875 611.84375 204.148438 611.84375 204.574219 L 611.84375 229.179688 C 611.84375 229.609375 611.496094 229.957031 611.066406 229.957031 " fill-opacity="1" fill-rule="nonzero"/><path fill="#fed101" d="M 665.625 151.777344 L 663.78125 151.777344 L 652.066406 197.984375 C 651.304688 200.988281 648.601562 203.085938 645.503906 203.082031 L 602.859375 203.050781 L 602.835938 232.527344 L 653.359375 232.570312 C 665.277344 232.582031 675.683594 224.496094 678.613281 212.941406 L 687.125 179.410156 C 690.6875 165.390625 680.09375 151.777344 665.625 151.777344 " fill-opacity="1" fill-rule="nonzero"/><path fill="#000000" d="M 653.378906 233.351562 C 653.371094 233.351562 653.363281 233.351562 653.359375 233.351562 L 602.835938 233.308594 C 602.40625 233.308594 602.058594 232.960938 602.058594 232.53125 L 602.082031 203.050781 C 602.082031 202.625 602.429688 202.273438 602.859375 202.273438 L 645.507812 202.308594 C 648.25 202.308594 650.636719 200.457031 651.308594 197.796875 L 657.089844 175 C 657.195312 174.585938 657.617188 174.332031 658.035156 174.4375 C 658.449219 174.542969 658.699219 174.96875 658.59375 175.382812 L 652.816406 198.179688 C 651.96875 201.523438 648.964844 203.863281 645.507812 203.863281 C 645.507812 203.863281 645.507812 203.863281 645.503906 203.863281 L 603.636719 203.828125 L 603.613281 231.753906 L 653.359375 231.796875 C 653.363281 231.796875 653.371094 231.796875 653.378906 231.796875 C 664.949219 231.796875 675.015625 223.96875 677.859375 212.753906 L 686.375 179.222656 C 688.007812 172.773438 686.605469 166.066406 682.523438 160.816406 C 678.4375 155.566406 672.277344 152.554688 665.625 152.554688 L 662.09375 152.554688 C 661.667969 152.554688 661.320312 152.207031 661.320312 151.78125 C 661.320312 151.351562 661.667969 151.003906 662.09375 151.003906 L 665.625 151.003906 C 672.765625 151.003906 679.367188 154.230469 683.75 159.859375 C 688.128906 165.492188 689.632812 172.6875 687.878906 179.601562 L 679.367188 213.136719 C 676.347656 225.042969 665.660156 233.351562 653.378906 233.351562 " fill-opacity="1" fill-rule="nonzero"/><path fill="#000000" d="M 1040.171875 556.269531 C 1035.941406 556.515625 1021.324219 557.976562 1008.910156 566.550781 C 996.503906 575.121094 989.992188 588.253906 988.269531 592.121094 C 992.5 591.871094 1007.128906 590.410156 1019.535156 581.835938 C 1031.945312 573.265625 1038.453125 560.132812 1040.171875 556.269531 Z M 987.074219 593.726562 C 986.824219 593.726562 986.582031 593.601562 986.4375 593.390625 C 986.292969 593.179688 986.253906 592.910156 986.347656 592.671875 C 986.414062 592.5 993.011719 575.648438 1008.027344 565.273438 C 1023.042969 554.898438 1041.183594 554.664062 1041.363281 554.660156 C 1041.617188 554.644531 1041.863281 554.785156 1042.011719 554.996094 C 1042.152344 555.207031 1042.1875 555.476562 1042.09375 555.71875 C 1042.03125 555.886719 1035.4375 572.738281 1020.417969 583.113281 C 1005.398438 593.488281 987.261719 593.722656 987.082031 593.726562 C 987.078125 593.726562 987.078125 593.726562 987.074219 593.726562 " fill-opacity="1" fill-rule="nonzero"/><path fill="#000000" d="M 986.894531 654.707031 C 986.460938 654.707031 986.109375 654.363281 986.109375 653.933594 L 986.109375 593.496094 C 986.109375 593.070312 986.460938 592.722656 986.894531 592.722656 C 987.320312 592.722656 987.667969 593.070312 987.667969 593.496094 L 987.667969 653.933594 C 987.667969 654.363281 987.320312 654.707031 986.894531 654.707031 " fill-opacity="1" fill-rule="nonzero"/><path fill="#4ada85" d="M 1006.003906 546.871094 C 990.929688 573.632812 963.839844 587.003906 963.839844 587.003906 C 963.839844 587.003906 961.191406 556.976562 976.269531 530.210938 C 991.347656 503.445312 1018.4375 490.078125 1018.4375 490.078125 C 1018.4375 490.078125 1021.082031 520.101562 1006.003906 546.871094 " fill-opacity="1" fill-rule="nonzero"/><path fill="#000000" d="M 963.835938 655.664062 C 963.40625 655.664062 963.054688 655.316406 963.054688 654.886719 L 963.054688 587.003906 C 963.054688 586.574219 963.40625 586.226562 963.835938 586.226562 C 964.265625 586.226562 964.613281 586.574219 964.613281 587.003906 L 964.613281 654.886719 C 964.613281 655.316406 964.265625 655.664062 963.835938 655.664062 " fill-opacity="1" fill-rule="nonzero"/><path fill="#4ada85" d="M 906.136719 562.175781 C 921.324219 589.132812 948.609375 602.597656 948.609375 602.597656 C 948.609375 602.597656 951.273438 572.355469 936.089844 545.394531 C 920.902344 518.4375 893.617188 504.972656 893.617188 504.972656 C 893.617188 504.972656 890.953125 535.214844 906.136719 562.175781 " fill-opacity="1" fill-rule="nonzero"/><path fill="#ffffff" d="M 948.609375 633.105469 L 947.953125 422.492188 L 948.609375 633.105469 " fill-opacity="1" fill-rule="nonzero"/><path fill="#000000" d="M 948.613281 633.882812 C 948.183594 633.882812 947.835938 633.539062 947.835938 633.109375 L 947.175781 422.488281 C 947.175781 422.0625 947.527344 421.714844 947.949219 421.710938 C 947.953125 421.710938 947.953125 421.710938 947.953125 421.710938 C 948.382812 421.710938 948.730469 422.054688 948.734375 422.484375 L 949.390625 633.105469 C 949.390625 633.53125 949.042969 633.882812 948.613281 633.882812 " fill-opacity="1" fill-rule="nonzero"/><path fill="#ffffff" d="M 948.605469 552.003906 L 977.625 533.632812 L 948.605469 552.003906 " fill-opacity="1" fill-rule="nonzero"/><path fill="#000000" d="M 948.609375 552.78125 C 948.351562 552.78125 948.097656 552.65625 947.945312 552.417969 C 947.71875 552.058594 947.828125 551.578125 948.1875 551.347656 L 977.207031 532.976562 C 977.574219 532.746094 978.050781 532.851562 978.28125 533.214844 C 978.507812 533.578125 978.402344 534.058594 978.042969 534.289062 L 949.019531 552.664062 C 948.894531 552.742188 948.75 552.78125 948.609375 552.78125 " fill-opacity="1" fill-rule="nonzero"/><path fill="#000000" d="M 990.101562 538.472656 C 988.738281 546.386719 981.199219 551.691406 973.265625 550.328125 C 965.328125 548.96875 960.003906 541.449219 961.371094 533.539062 C 962.738281 525.628906 970.277344 520.316406 978.210938 521.679688 C 986.144531 523.042969 991.46875 530.5625 990.101562 538.472656 " fill-opacity="1" fill-rule="nonzero"/><path fill="#ffffff" d="M 988.800781 537.6875 C 987.433594 545.597656 979.890625 550.902344 971.960938 549.542969 C 964.023438 548.179688 958.703125 540.660156 960.066406 532.75 C 961.433594 524.839844 968.972656 519.527344 976.90625 520.890625 C 984.839844 522.257812 990.164062 529.769531 988.800781 537.6875 " fill-opacity="1" fill-rule="nonzero"/><path fill="#000000" d="M 974.421875 521.457031 C 967.835938 521.457031 961.988281 526.191406 960.832031 532.886719 C 960.203125 536.503906 961.03125 540.152344 963.15625 543.152344 C 965.28125 546.15625 968.453125 548.152344 972.089844 548.777344 C 979.589844 550.0625 986.738281 545.03125 988.03125 537.550781 C 988.65625 533.929688 987.828125 530.285156 985.703125 527.28125 C 983.578125 524.28125 980.40625 522.285156 976.773438 521.65625 C 975.984375 521.523438 975.199219 521.457031 974.421875 521.457031 Z M 974.441406 550.53125 C 973.578125 550.53125 972.703125 550.460938 971.820312 550.308594 C 967.78125 549.617188 964.253906 547.390625 961.886719 544.050781 C 959.523438 540.710938 958.605469 536.652344 959.300781 532.621094 C 960.734375 524.296875 968.695312 518.695312 977.035156 520.128906 C 981.078125 520.824219 984.605469 523.042969 986.972656 526.382812 C 989.335938 529.726562 990.257812 533.785156 989.5625 537.816406 C 988.277344 545.261719 981.769531 550.53125 974.441406 550.53125 " fill-opacity="1" fill-rule="nonzero"/><path fill="#fed101" d="M 972.136719 543.832031 L 972.464844 541.796875 C 971.042969 541.546875 969.71875 540.980469 968.980469 540.40625 L 970.023438 537.976562 C 970.839844 538.585938 972.03125 539.203125 973.417969 539.378906 C 974.636719 539.539062 975.542969 539.175781 975.679688 538.316406 C 975.808594 537.503906 975.210938 536.898438 973.714844 536.160156 C 971.558594 535.09375 970.167969 533.820312 970.503906 531.742188 C 970.804688 529.851562 972.367188 528.546875 974.726562 528.390625 L 975.054688 526.355469 L 977.140625 526.625 L 976.839844 528.511719 C 978.261719 528.757812 979.171875 529.1875 979.824219 529.621094 L 978.816406 531.964844 C 978.296875 531.652344 977.394531 531.035156 975.855469 530.835938 C 974.472656 530.65625 973.925781 531.199219 973.832031 531.796875 C 973.714844 532.507812 974.390625 533.054688 976.097656 533.972656 C 978.492188 535.203125 979.328125 536.511719 979.015625 538.441406 C 978.710938 540.347656 977.101562 541.804688 974.578125 541.917969 L 974.226562 544.101562 L 972.136719 543.832031 " fill-opacity="1" fill-rule="nonzero"/><path fill="#ffffff" d="M 948.894531 493.320312 L 978.773438 474.613281 L 948.894531 493.320312 " fill-opacity="1" fill-rule="nonzero"/><path fill="#000000" d="M 948.898438 494.097656 C 948.640625 494.097656 948.386719 493.96875 948.234375 493.730469 C 948.007812 493.367188 948.121094 492.890625 948.484375 492.660156 L 978.359375 473.953125 C 978.730469 473.730469 979.207031 473.839844 979.4375 474.199219 C 979.664062 474.5625 979.554688 475.042969 979.1875 475.273438 L 949.308594 493.980469 C 949.179688 494.058594 949.039062 494.097656 948.898438 494.097656 " fill-opacity="1" fill-rule="nonzero"/><path fill="#000000" d="M 1009.78125 472.082031 C 1005.894531 483.105469 993.777344 488.898438 982.722656 485.019531 C 971.667969 481.140625 965.859375 469.0625 969.75 458.039062 C 973.632812 447.015625 985.753906 441.21875 996.808594 445.097656 C 1007.859375 448.972656 1013.671875 461.058594 1009.78125 472.082031 " fill-opacity="1" fill-rule="nonzero"/><path fill="#ffffff" d="M 1008.097656 470.632812 C 1004.210938 481.65625 992.097656 487.449219 981.039062 483.574219 C 969.988281 479.695312 964.179688 467.613281 968.066406 456.589844 C 971.957031 445.570312 984.070312 439.769531 995.125 443.652344 C 1006.179688 447.527344 1011.988281 459.609375 1008.097656 470.632812 " fill-opacity="1" fill-rule="nonzero"/><path fill="#000000" d="M 988.105469 443.226562 C 979.667969 443.226562 971.753906 448.472656 968.800781 456.851562 C 966.992188 461.976562 967.292969 467.5 969.644531 472.40625 C 972.007812 477.320312 976.140625 481.03125 981.304688 482.839844 C 991.9375 486.566406 1003.632812 480.976562 1007.371094 470.371094 C 1009.179688 465.246094 1008.878906 459.722656 1006.527344 454.816406 C 1004.167969 449.898438 1000.027344 446.191406 994.871094 444.382812 C 992.632812 443.601562 990.347656 443.226562 988.105469 443.226562 Z M 988.0625 485.550781 C 985.652344 485.550781 983.195312 485.148438 980.785156 484.304688 C 975.238281 482.359375 970.78125 478.371094 968.242188 473.078125 C 965.707031 467.796875 965.386719 461.847656 967.332031 456.332031 C 971.359375 444.921875 983.941406 438.902344 995.386719 442.917969 C 1000.933594 444.863281 1005.390625 448.851562 1007.925781 454.144531 C 1010.464844 459.421875 1010.78125 465.371094 1008.839844 470.890625 C 1005.65625 479.902344 997.140625 485.550781 988.0625 485.550781 " fill-opacity="1" fill-rule="nonzero"/><path fill="#fed101" d="M 982.691406 475.417969 L 983.65625 472.574219 C 981.671875 471.875 979.910156 470.742188 978.996094 469.734375 L 981.082031 466.507812 C 982.109375 467.578125 983.664062 468.75 985.609375 469.339844 C 987.320312 469.863281 988.710938 469.558594 989.121094 468.363281 C 989.503906 467.226562 988.792969 466.214844 986.828125 464.792969 C 983.980469 462.734375 982.308594 460.570312 983.289062 457.667969 C 984.183594 455.035156 986.742188 453.535156 990.164062 453.882812 L 991.132812 451.039062 L 994.070312 451.933594 C 994.070312 451.9375 994.070312 451.9375 994.070312 451.9375 L 993.175781 454.570312 C 995.148438 455.269531 996.363281 456.101562 997.183594 456.882812 L 995.167969 460 C 994.496094 459.433594 993.351562 458.328125 991.199219 457.667969 C 989.25 457.070312 988.335938 457.71875 988.046875 458.558594 C 987.71875 459.542969 988.550781 460.492188 990.773438 462.226562 C 993.917969 464.574219 994.792969 466.65625 993.878906 469.351562 C 992.972656 472.015625 990.3125 473.714844 986.660156 473.261719 L 985.625 476.316406 L 982.691406 475.417969 " fill-opacity="1" fill-rule="nonzero"/><path fill="#ffffff" d="M 922.160156 488.960938 L 948.230469 511.273438 L 922.160156 488.960938 " fill-opacity="1" fill-rule="nonzero"/><path fill="#000000" d="M 948.230469 512.050781 C 948.054688 512.050781 947.871094 511.988281 947.730469 511.863281 L 921.65625 489.550781 C 921.328125 489.269531 921.292969 488.78125 921.566406 488.453125 C 921.847656 488.128906 922.34375 488.089844 922.667969 488.367188 L 948.738281 510.683594 C 949.066406 510.960938 949.101562 511.453125 948.824219 511.78125 C 948.667969 511.957031 948.449219 512.050781 948.230469 512.050781 " fill-opacity="1" fill-rule="nonzero"/><path fill="#000000" d="M 932.261719 472.570312 C 935.296875 483.484375 928.882812 494.78125 917.941406 497.804688 C 907 500.832031 895.664062 494.4375 892.632812 483.527344 C 889.601562 472.613281 896.015625 461.3125 906.957031 458.289062 C 917.902344 455.261719 929.230469 461.65625 932.261719 472.570312 " fill-opacity="1" fill-rule="nonzero"/><path fill="#ffffff" d="M 930.128906 472.347656 C 933.160156 483.261719 926.746094 494.558594 915.804688 497.582031 C 904.863281 500.609375 893.527344 494.210938 890.496094 483.300781 C 887.464844 472.386719 893.875 461.089844 904.816406 458.0625 C 915.761719 455.039062 927.09375 461.433594 930.128906 472.347656 " fill-opacity="1" fill-rule="nonzero"/><path fill="#000000" d="M 910.308594 458.09375 C 908.558594 458.09375 906.789062 458.328125 905.023438 458.8125 C 899.925781 460.222656 895.683594 463.53125 893.085938 468.125 C 890.484375 472.707031 889.835938 478.023438 891.242188 483.089844 C 894.164062 493.574219 905.085938 499.738281 915.59375 496.832031 C 920.695312 495.421875 924.9375 492.113281 927.539062 487.519531 C 930.136719 482.9375 930.785156 477.621094 929.375 472.554688 C 926.953125 463.828125 918.976562 458.09375 910.308594 458.09375 Z M 910.316406 499.105469 C 900.96875 499.105469 892.363281 492.921875 889.75 483.507812 C 888.226562 478.035156 888.929688 472.304688 891.730469 467.363281 C 894.535156 462.402344 899.109375 458.832031 904.609375 457.316406 C 915.945312 454.183594 927.730469 460.832031 930.875 472.140625 C 932.394531 477.609375 931.691406 483.339844 928.894531 488.285156 C 926.085938 493.242188 921.515625 496.8125 916.011719 498.328125 C 914.109375 498.855469 912.199219 499.105469 910.316406 499.105469 " fill-opacity="1" fill-rule="nonzero"/><path fill="#fed101" d="M 912.578125 490.195312 L 911.765625 487.402344 C 909.808594 487.933594 907.773438 488.011719 906.488281 487.714844 L 906.355469 483.996094 C 907.761719 484.28125 909.648438 484.347656 911.527344 483.746094 C 913.175781 483.214844 914.113281 482.207031 913.773438 481.03125 C 913.445312 479.914062 912.316406 479.503906 909.964844 479.457031 C 906.566406 479.390625 904.027344 478.601562 903.195312 475.746094 C 902.445312 473.160156 903.644531 470.554688 906.558594 468.941406 L 905.746094 466.144531 L 908.578125 465.238281 L 909.328125 467.824219 C 911.292969 467.292969 912.714844 467.285156 913.808594 467.445312 L 913.933594 471.039062 C 913.085938 470.960938 911.5625 470.707031 909.476562 471.378906 C 907.601562 471.984375 907.234375 473.003906 907.472656 473.824219 C 907.753906 474.796875 908.945312 475.089844 911.675781 475.242188 C 915.476562 475.367188 917.332031 476.539062 918.105469 479.1875 C 918.867188 481.804688 917.695312 484.625 914.539062 486.285156 L 915.414062 489.28125 L 912.578125 490.195312 " fill-opacity="1" fill-rule="nonzero"/><path fill="#000000" d="M 978.867188 403.957031 C 979.007812 420.1875 965.925781 433.460938 949.648438 433.601562 C 933.371094 433.738281 920.058594 420.695312 919.917969 404.460938 C 919.78125 388.226562 932.859375 374.949219 949.136719 374.816406 C 965.417969 374.675781 978.726562 387.722656 978.867188 403.957031 " fill-opacity="1" fill-rule="nonzero"/><path fill="#ffffff" d="M 975.988281 402.855469 C 976.125 419.085938 963.042969 432.363281 946.761719 432.5 C 930.488281 432.640625 917.179688 419.589844 917.039062 403.359375 C 916.894531 387.125 929.976562 373.855469 946.257812 373.714844 C 962.535156 373.574219 975.847656 386.621094 975.988281 402.855469 " fill-opacity="1" fill-rule="nonzero"/><path fill="#000000" d="M 946.511719 374.492188 C 946.429688 374.492188 946.347656 374.496094 946.261719 374.496094 C 938.59375 374.554688 931.417969 377.597656 926.042969 383.050781 C 920.667969 388.5 917.746094 395.710938 917.808594 403.351562 C 917.949219 419.050781 930.796875 431.722656 946.503906 431.722656 C 946.589844 431.722656 946.667969 431.722656 946.753906 431.722656 C 954.421875 431.65625 961.605469 428.621094 966.976562 423.167969 C 972.347656 417.71875 975.273438 410.503906 975.203125 402.863281 C 975.070312 387.167969 962.226562 374.492188 946.511719 374.492188 Z M 946.503906 433.277344 C 929.945312 433.277344 916.398438 419.917969 916.253906 403.367188 C 916.1875 395.308594 919.269531 387.703125 924.933594 381.957031 C 930.597656 376.210938 938.171875 373.007812 946.25 372.941406 C 946.335938 372.9375 946.429688 372.9375 946.511719 372.9375 C 963.078125 372.9375 976.621094 386.300781 976.761719 402.847656 C 976.832031 410.90625 973.75 418.511719 968.085938 424.257812 C 962.421875 430.003906 954.851562 433.207031 946.765625 433.277344 C 946.683594 433.277344 946.59375 433.277344 946.503906 433.277344 " fill-opacity="1" fill-rule="nonzero"/><path fill="#fed101" d="M 945.058594 421.074219 L 944.964844 416.90625 C 942.050781 416.917969 939.210938 416.269531 937.539062 415.390625 L 938.738281 410.1875 C 940.582031 411.105469 943.164062 411.898438 945.996094 411.757812 C 948.476562 411.632812 950.152344 410.582031 950.113281 408.824219 C 950.082031 407.15625 948.667969 406.175781 945.425781 405.238281 C 940.742188 403.894531 937.523438 401.855469 937.433594 397.601562 C 937.355469 393.738281 939.988281 390.574219 944.621094 389.421875 L 944.539062 385.246094 L 948.800781 385.035156 L 948.878906 388.898438 C 951.800781 388.886719 953.769531 389.402344 955.21875 390.027344 L 954.058594 395.054688 C 952.917969 394.625 950.894531 393.722656 947.761719 393.875 C 944.9375 394.015625 944.046875 395.292969 944.070312 396.523438 C 944.105469 397.96875 945.644531 398.8125 949.371094 400.035156 C 954.578125 401.617188 956.71875 403.925781 956.800781 407.878906 C 956.878906 411.78125 954.210938 415.257812 949.226562 416.382812 L 949.316406 420.863281 L 945.058594 421.074219 " fill-opacity="1" fill-rule="nonzero"/><path fill="#8c7bff" d="M 971.5 706.199219 L 956.203125 706.199219 C 932.332031 706.199219 912.980469 686.847656 912.980469 662.984375 L 912.980469 621.519531 L 1014.722656 621.519531 L 1014.722656 662.984375 C 1014.722656 686.847656 995.371094 706.199219 971.5 706.199219 " fill-opacity="1" fill-rule="nonzero"/><path fill="#000000" d="M 912.980469 663.039062 C 912.980469 666.054688 913.292969 668.992188 913.882812 671.828125 C 927.902344 671.785156 942.234375 666.046875 954.125 649.835938 C 966.652344 632.757812 979.421875 634.609375 992.429688 638.605469 C 999.210938 640.695312 1007.507812 641.742188 1014.722656 642.269531 L 1014.722656 621.519531 L 912.980469 621.519531 L 912.980469 663.039062 " fill-opacity="1" fill-rule="nonzero"/><path fill="#ff7dce" d="M 435.222656 688.722656 L 419.289062 688.722656 L 419.289062 644.617188 L 435.222656 644.617188 L 435.222656 688.722656 " fill-opacity="1" fill-rule="nonzero"/><path fill="#ff7dce" d="M 464.976562 688.722656 L 449.042969 688.722656 L 449.042969 637.738281 L 464.976562 637.738281 L 464.976562 688.722656 " fill-opacity="1" fill-rule="nonzero"/><path fill="#ff7dce" d="M 494.730469 688.722656 L 478.800781 688.722656 L 478.800781 644.617188 L 494.730469 644.617188 L 494.730469 688.722656 " fill-opacity="1" fill-rule="nonzero"/><path fill="#ff7dce" d="M 524.488281 688.722656 L 508.554688 688.722656 L 508.554688 624.34375 L 524.488281 624.34375 L 524.488281 688.722656 " fill-opacity="1" fill-rule="nonzero"/><path fill="#ff7dce" d="M 554.242188 688.722656 L 538.3125 688.722656 L 538.3125 608.25 L 554.242188 608.25 L 554.242188 688.722656 " fill-opacity="1" fill-rule="nonzero"/><path fill="#ff7dce" d="M 583.996094 688.722656 L 568.066406 688.722656 L 568.066406 581.394531 L 583.996094 581.394531 L 583.996094 688.722656 " fill-opacity="1" fill-rule="nonzero"/><path fill="#000000" d="M 425.601562 635.125 C 425.273438 635.125 424.96875 634.914062 424.863281 634.582031 C 424.730469 634.175781 424.957031 633.738281 425.367188 633.609375 L 456.773438 623.605469 C 456.917969 623.558594 457.070312 623.554688 457.214844 623.59375 L 486.617188 631.671875 L 575.582031 568.601562 C 575.933594 568.355469 576.417969 568.441406 576.664062 568.789062 C 576.914062 569.136719 576.832031 569.625 576.480469 569.871094 L 487.214844 633.152344 C 487.027344 633.285156 486.785156 633.328125 486.558594 633.269531 L 457.027344 625.152344 L 425.839844 635.085938 C 425.761719 635.117188 425.679688 635.125 425.601562 635.125 " fill-opacity="1" fill-rule="nonzero"/><path fill="#000000" d="M 572.507812 577.671875 C 572.382812 577.671875 572.257812 577.644531 572.144531 577.582031 C 571.761719 577.378906 571.621094 576.910156 571.824219 576.53125 L 575.519531 569.597656 L 567.558594 571.007812 C 567.136719 571.082031 566.734375 570.796875 566.660156 570.375 C 566.585938 569.953125 566.867188 569.550781 567.289062 569.472656 L 576.820312 567.785156 C 577.113281 567.734375 577.410156 567.851562 577.585938 568.09375 C 577.761719 568.335938 577.78125 568.65625 577.640625 568.917969 L 573.195312 577.261719 C 573.054688 577.523438 572.785156 577.671875 572.507812 577.671875 " fill-opacity="1" fill-rule="nonzero"/><path fill="#000000" d="M 589.222656 702.394531 L 404.449219 702.394531 C 404.019531 702.394531 403.671875 702.042969 403.671875 701.617188 L 403.671875 577.578125 C 403.671875 577.148438 404.019531 576.800781 404.449219 576.800781 C 404.878906 576.800781 405.226562 577.148438 405.226562 577.578125 L 405.226562 700.839844 L 589.222656 700.839844 C 589.652344 700.839844 590 701.1875 590 701.617188 C 590 702.042969 589.652344 702.394531 589.222656 702.394531 " fill-opacity="1" fill-rule="nonzero"/><g clip-path="url(#7fc2f85e6a)"><path fill="#000000" d="M 580.066406 708.699219 C 579.785156 708.699219 579.515625 708.546875 579.375 708.285156 C 579.175781 707.902344 579.324219 707.429688 579.707031 707.234375 L 590.847656 701.414062 L 579.695312 695.417969 C 579.320312 695.210938 579.175781 694.738281 579.378906 694.363281 C 579.585938 693.980469 580.054688 693.839844 580.433594 694.046875 L 592.875 700.738281 C 593.128906 700.878906 593.285156 701.140625 593.28125 701.429688 C 593.28125 701.714844 593.121094 701.980469 592.863281 702.113281 L 580.425781 708.613281 C 580.308594 708.671875 580.1875 708.699219 580.066406 708.699219 " fill-opacity="1" fill-rule="nonzero"/></g><path fill="#000000" d="M 411.0625 588.140625 C 410.785156 588.140625 410.515625 587.988281 410.375 587.71875 L 404.535156 576.605469 L 398.515625 587.730469 C 398.3125 588.105469 397.84375 588.246094 397.464844 588.042969 C 397.085938 587.839844 396.945312 587.367188 397.148438 586.988281 L 403.863281 574.582031 C 404 574.332031 404.261719 574.175781 404.546875 574.175781 C 404.550781 574.175781 404.550781 574.175781 404.550781 574.175781 C 404.839844 574.175781 405.101562 574.339844 405.234375 574.59375 L 411.753906 586.996094 C 411.953125 587.378906 411.804688 587.851562 411.425781 588.046875 C 411.308594 588.105469 411.1875 588.140625 411.0625 588.140625 " fill-opacity="1" fill-rule="nonzero"/><path fill="#000000" d="M 856.9375 648.386719 C 852.371094 673.5625 828.257812 690.269531 803.082031 685.707031 C 777.902344 681.144531 761.1875 657.035156 765.75 631.859375 C 770.3125 606.683594 794.425781 589.972656 819.609375 594.535156 C 844.789062 599.097656 861.5 623.207031 856.9375 648.386719 " fill-opacity="1" fill-rule="nonzero"/><path fill="#ffffff" d="M 850.050781 645.164062 C 845.492188 670.339844 821.378906 687.050781 796.195312 682.488281 C 771.015625 677.925781 754.300781 653.816406 758.867188 628.640625 C 763.429688 603.460938 787.542969 586.753906 812.726562 591.316406 C 837.90625 595.878906 854.617188 619.988281 850.050781 645.164062 " fill-opacity="1" fill-rule="nonzero"/><path fill="#000000" d="M 804.371094 591.335938 C 795.179688 591.335938 786.222656 594.121094 778.507812 599.460938 C 768.507812 606.394531 761.804688 616.804688 759.632812 628.773438 C 757.460938 640.75 760.085938 652.851562 767.019531 662.851562 C 773.949219 672.851562 784.363281 679.550781 796.335938 681.722656 C 808.316406 683.894531 820.414062 681.269531 830.417969 674.335938 C 840.417969 667.40625 847.121094 656.996094 849.292969 645.023438 C 853.773438 620.3125 837.304688 596.558594 812.589844 592.078125 C 809.84375 591.582031 807.097656 591.335938 804.371094 591.335938 Z M 804.5625 684.019531 C 801.738281 684.019531 798.898438 683.765625 796.058594 683.25 C 783.675781 681.007812 772.910156 674.074219 765.742188 663.734375 C 758.574219 653.390625 755.859375 640.878906 758.101562 628.5 C 760.347656 616.117188 767.28125 605.355469 777.625 598.1875 C 787.96875 591.015625 800.484375 588.308594 812.863281 590.550781 C 838.425781 595.183594 855.457031 619.746094 850.820312 645.300781 C 848.578125 657.683594 841.644531 668.449219 831.300781 675.617188 C 823.332031 681.140625 814.0625 684.019531 804.5625 684.019531 " fill-opacity="1" fill-rule="nonzero"/><path fill="#fed101" d="M 790.390625 661.472656 L 793.070312 655.46875 C 788.90625 653.535156 785.300781 650.710938 783.511719 648.332031 L 788.710938 641.71875 C 790.71875 644.261719 793.867188 647.125 797.984375 648.8125 C 801.59375 650.296875 804.683594 649.917969 805.808594 647.386719 C 806.878906 644.988281 805.527344 642.636719 801.546875 639.136719 C 795.785156 634.078125 792.570312 629.023438 795.300781 622.894531 C 797.78125 617.332031 803.652344 614.582031 811.019531 616.035156 L 813.695312 610.03125 L 819.902344 612.578125 L 817.421875 618.136719 C 821.582031 620.070312 824.039062 622.125 825.679688 623.996094 L 820.65625 630.378906 C 819.320312 629.007812 817.054688 626.363281 812.492188 624.492188 C 808.378906 622.800781 806.257812 624.027344 805.46875 625.796875 C 804.542969 627.882812 806.167969 630.117188 810.644531 634.347656 C 817 640.09375 818.492188 644.820312 815.957031 650.507812 C 813.449219 656.128906 807.320312 659.296875 799.472656 657.570312 L 796.597656 664.019531 L 790.390625 661.472656 " fill-opacity="1" fill-rule="nonzero"/><path fill="#000000" d="M 1039.449219 111.597656 C 1035.742188 132.039062 1016.164062 145.609375 995.714844 141.902344 C 975.265625 138.195312 961.695312 118.617188 965.402344 98.179688 C 969.105469 77.734375 988.6875 64.164062 1009.136719 67.867188 C 1029.582031 71.578125 1043.152344 91.152344 1039.449219 111.597656 " fill-opacity="1" fill-rule="nonzero"/><path fill="#ffffff" d="M 1033.855469 108.984375 C 1030.148438 129.421875 1010.570312 142.996094 990.121094 139.285156 C 969.679688 135.582031 956.105469 116.007812 959.808594 95.5625 C 963.519531 75.117188 983.097656 61.550781 1003.542969 65.253906 C 1023.992188 68.964844 1037.566406 88.539062 1033.855469 108.984375 " fill-opacity="1" fill-rule="nonzero"/><path fill="#000000" d="M 996.824219 65.421875 C 979.359375 65.421875 963.804688 77.921875 960.578125 95.695312 C 956.953125 115.6875 970.277344 134.894531 990.265625 138.519531 C 999.953125 140.277344 1009.742188 138.152344 1017.824219 132.550781 C 1025.921875 126.945312 1031.339844 118.523438 1033.09375 108.839844 C 1034.851562 99.15625 1032.730469 89.371094 1027.125 81.28125 C 1021.515625 73.195312 1013.09375 67.773438 1003.410156 66.019531 C 1001.195312 65.621094 998.996094 65.421875 996.824219 65.421875 Z M 996.917969 140.675781 C 994.621094 140.675781 992.304688 140.46875 989.988281 140.050781 C 969.152344 136.273438 955.273438 116.253906 959.046875 95.417969 C 962.824219 74.589844 982.855469 60.710938 1003.6875 64.488281 C 1013.785156 66.320312 1022.558594 71.96875 1028.402344 80.394531 C 1034.246094 88.824219 1036.453125 99.023438 1034.625 109.117188 C 1032.796875 119.207031 1027.148438 127.984375 1018.714844 133.824219 C 1012.214844 138.332031 1004.664062 140.675781 996.917969 140.675781 " fill-opacity="1" fill-rule="nonzero"/><path fill="#fed101" d="M 1002.675781 124.601562 L 1000.800781 119.605469 C 997.292969 120.859375 993.597656 121.285156 991.203125 120.925781 L 990.4375 114.140625 C 993.046875 114.464844 996.5 114.324219 999.84375 112.957031 C 1002.777344 111.753906 1004.351562 109.777344 1003.558594 107.671875 C 1002.804688 105.671875 1000.6875 105.085938 996.386719 105.328125 C 990.167969 105.691406 985.433594 104.601562 983.511719 99.5 C 981.777344 94.867188 983.601562 89.9375 988.691406 86.574219 L 986.8125 81.578125 L 991.851562 79.511719 L 993.59375 84.140625 C 997.097656 82.886719 999.6875 82.675781 1001.699219 82.820312 L 1002.441406 89.371094 C 1000.886719 89.34375 998.066406 89.101562 994.363281 90.621094 C 991.019531 91.992188 990.492188 93.90625 991.050781 95.378906 C 991.699219 97.113281 993.914062 97.480469 998.917969 97.371094 C 1005.867188 97.074219 1009.425781 98.953125 1011.199219 103.6875 C 1012.960938 108.371094 1011.222656 113.695312 1005.703125 117.171875 L 1007.714844 122.535156 L 1002.675781 124.601562 " fill-opacity="1" fill-rule="nonzero"/><path fill="#000000" d="M 776.652344 236.839844 L 881.949219 260.355469 L 910.613281 132.023438 L 805.320312 108.515625 Z M 882.542969 262.058594 C 882.484375 262.058594 882.425781 262.054688 882.371094 262.042969 L 775.558594 238.1875 C 775.140625 238.09375 774.878906 237.679688 774.96875 237.261719 L 803.972656 107.417969 C 804.070312 107 804.484375 106.734375 804.898438 106.828125 L 911.710938 130.675781 C 911.914062 130.726562 912.089844 130.84375 912.199219 131.023438 C 912.3125 131.195312 912.347656 131.40625 912.304688 131.605469 L 883.296875 261.449219 C 883.253906 261.652344 883.128906 261.828125 882.957031 261.9375 C 882.832031 262.019531 882.683594 262.058594 882.542969 262.058594 " fill-opacity="1" fill-rule="nonzero"/><path fill="#ffffff" d="M 834.390625 156.421875 L 807.136719 150.339844 L 813.21875 123.09375 L 840.472656 129.179688 L 834.390625 156.421875 " fill-opacity="1" fill-rule="nonzero"/><path fill="#000000" d="M 808.070312 149.746094 L 833.804688 155.496094 L 839.550781 129.761719 L 813.8125 124.019531 Z M 834.390625 157.199219 C 834.335938 157.199219 834.277344 157.195312 834.222656 157.183594 L 806.96875 151.097656 C 806.769531 151.046875 806.589844 150.925781 806.480469 150.753906 C 806.375 150.578125 806.335938 150.371094 806.378906 150.167969 L 812.464844 122.921875 C 812.558594 122.5 812.980469 122.238281 813.394531 122.332031 L 840.648438 128.414062 C 840.847656 128.460938 841.023438 128.582031 841.132812 128.761719 C 841.246094 128.933594 841.28125 129.144531 841.234375 129.34375 L 835.148438 156.589844 C 835.070312 156.953125 834.746094 157.199219 834.390625 157.199219 " fill-opacity="1" fill-rule="nonzero"/><path fill="#000000" d="M 893.039062 146.023438 C 892.980469 146.023438 892.925781 146.019531 892.871094 146.007812 L 848.914062 136.191406 C 848.496094 136.097656 848.230469 135.679688 848.328125 135.265625 C 848.417969 134.84375 848.835938 134.582031 849.253906 134.675781 L 893.207031 144.488281 C 893.628906 144.582031 893.890625 144.996094 893.796875 145.417969 C 893.722656 145.777344 893.394531 146.023438 893.039062 146.023438 " fill-opacity="1" fill-rule="nonzero"/><path fill="#000000" d="M 877.589844 151.78125 C 877.53125 151.78125 877.476562 151.773438 877.414062 151.761719 L 846.953125 144.960938 C 846.535156 144.867188 846.273438 144.453125 846.363281 144.035156 C 846.457031 143.613281 846.875 143.351562 847.289062 143.445312 L 877.757812 150.246094 C 878.175781 150.339844 878.441406 150.753906 878.34375 151.175781 C 878.269531 151.535156 877.945312 151.78125 877.589844 151.78125 " fill-opacity="1" fill-rule="nonzero"/><path fill="#000000" d="M 889.125 163.558594 C 889.070312 163.558594 889.011719 163.550781 888.957031 163.539062 L 844.996094 153.726562 C 844.582031 153.632812 844.316406 153.214844 844.40625 152.796875 C 844.503906 152.382812 844.921875 152.117188 845.335938 152.207031 L 889.292969 162.023438 C 889.714844 162.117188 889.976562 162.535156 889.882812 162.949219 C 889.804688 163.3125 889.480469 163.558594 889.125 163.558594 " fill-opacity="1" fill-rule="nonzero"/><path fill="#000000" d="M 885.503906 179.75 C 885.453125 179.75 885.394531 179.746094 885.335938 179.734375 L 814.398438 163.890625 C 813.976562 163.796875 813.710938 163.382812 813.804688 162.964844 C 813.898438 162.542969 814.320312 162.28125 814.734375 162.375 L 885.675781 178.214844 C 886.097656 178.304688 886.355469 178.722656 886.261719 179.140625 C 886.179688 179.503906 885.863281 179.75 885.503906 179.75 " fill-opacity="1" fill-rule="nonzero"/><path fill="#000000" d="M 861.777344 183.652344 C 861.722656 183.652344 861.664062 183.644531 861.605469 183.632812 L 812.4375 172.65625 C 812.019531 172.5625 811.753906 172.148438 811.851562 171.730469 C 811.941406 171.308594 812.359375 171.046875 812.777344 171.140625 L 861.945312 182.117188 C 862.359375 182.210938 862.625 182.628906 862.535156 183.046875 C 862.453125 183.410156 862.132812 183.652344 861.777344 183.652344 " fill-opacity="1" fill-rule="nonzero"/><path fill="#000000" d="M 881.585938 197.289062 C 881.53125 197.289062 881.476562 197.28125 881.417969 197.269531 L 810.476562 181.429688 C 810.0625 181.332031 809.796875 180.914062 809.890625 180.5 C 809.984375 180.078125 810.402344 179.816406 810.816406 179.914062 L 881.757812 195.753906 C 882.175781 195.84375 882.441406 196.261719 882.347656 196.675781 C 882.261719 197.042969 881.945312 197.289062 881.585938 197.289062 " fill-opacity="1" fill-rule="nonzero"/><path fill="#000000" d="M 877.972656 213.472656 C 877.917969 213.472656 877.859375 213.464844 877.804688 213.453125 L 806.863281 197.613281 C 806.445312 197.519531 806.183594 197.101562 806.273438 196.683594 C 806.367188 196.265625 806.785156 196.003906 807.199219 196.09375 L 878.144531 211.9375 C 878.5625 212.03125 878.828125 212.445312 878.734375 212.863281 C 878.65625 213.226562 878.332031 213.472656 877.972656 213.472656 " fill-opacity="1" fill-rule="nonzero"/><path fill="#000000" d="M 854.238281 217.378906 C 854.183594 217.378906 854.128906 217.371094 854.070312 217.359375 L 804.90625 206.382812 C 804.488281 206.289062 804.222656 205.871094 804.3125 205.457031 C 804.410156 205.035156 804.828125 204.773438 805.246094 204.863281 L 854.410156 215.84375 C 854.824219 215.9375 855.09375 216.351562 854.996094 216.773438 C 854.917969 217.132812 854.597656 217.378906 854.238281 217.378906 " fill-opacity="1" fill-rule="nonzero"/><path fill="#000000" d="M 874.054688 231.015625 C 873.996094 231.015625 873.941406 231.007812 873.882812 230.996094 L 802.941406 215.152344 C 802.523438 215.058594 802.257812 214.644531 802.355469 214.222656 C 802.445312 213.808594 802.867188 213.542969 803.28125 213.636719 L 874.222656 229.476562 C 874.640625 229.570312 874.910156 229.988281 874.8125 230.402344 C 874.730469 230.765625 874.410156 231.015625 874.054688 231.015625 " fill-opacity="1" fill-rule="nonzero"/><path fill="#000000" d="M 1016.53125 312.71875 L 886.480469 343.988281 L 870.578125 184.007812 L 978.992188 185.570312 L 1016.53125 312.71875 " fill-opacity="1" fill-rule="nonzero"/><path fill="#ffffff" d="M 1016.53125 312.71875 L 894.484375 332.378906 L 870.578125 184.007812 L 992.628906 164.347656 L 1016.53125 312.71875 " fill-opacity="1" fill-rule="nonzero"/><path fill="#000000" d="M 871.464844 184.648438 L 895.128906 331.488281 L 1015.644531 312.078125 L 991.988281 165.238281 Z M 894.480469 333.152344 C 894.105469 333.152344 893.777344 332.882812 893.714844 332.5 L 869.808594 184.132812 C 869.777344 183.925781 869.824219 183.71875 869.945312 183.550781 C 870.066406 183.386719 870.246094 183.269531 870.449219 183.238281 L 992.507812 163.582031 C 992.933594 163.515625 993.328125 163.804688 993.398438 164.226562 L 1017.300781 312.597656 C 1017.335938 312.800781 1017.289062 313.011719 1017.164062 313.175781 C 1017.042969 313.347656 1016.863281 313.457031 1016.664062 313.492188 L 894.605469 333.144531 C 894.5625 333.152344 894.519531 333.152344 894.480469 333.152344 " fill-opacity="1" fill-rule="nonzero"/><path fill="#ffffff" d="M 922.132812 222.84375 L 890.988281 227.859375 L 885.972656 196.722656 L 917.117188 191.710938 L 922.132812 222.84375 " fill-opacity="1" fill-rule="nonzero"/><path fill="#000000" d="M 886.867188 197.367188 L 891.632812 226.96875 L 921.242188 222.203125 L 916.472656 192.601562 Z M 890.992188 228.636719 C 890.828125 228.636719 890.667969 228.585938 890.53125 228.488281 C 890.371094 228.371094 890.257812 228.183594 890.226562 227.984375 L 885.207031 196.847656 C 885.140625 196.421875 885.429688 196.023438 885.851562 195.957031 L 916.992188 190.941406 C 917.199219 190.910156 917.402344 190.957031 917.570312 191.078125 C 917.738281 191.203125 917.855469 191.382812 917.886719 191.585938 L 922.898438 222.71875 C 922.96875 223.144531 922.679688 223.546875 922.253906 223.609375 L 891.113281 228.628906 C 891.074219 228.636719 891.03125 228.636719 890.992188 228.636719 " fill-opacity="1" fill-rule="nonzero"/><path fill="#000000" d="M 928.757812 195.453125 C 928.386719 195.453125 928.054688 195.179688 927.992188 194.800781 C 927.925781 194.375 928.214844 193.976562 928.640625 193.90625 L 978.867188 185.820312 C 979.289062 185.753906 979.6875 186.039062 979.753906 186.460938 C 979.824219 186.886719 979.535156 187.285156 979.113281 187.351562 L 928.882812 195.441406 C 928.839844 195.449219 928.800781 195.453125 928.757812 195.453125 " fill-opacity="1" fill-rule="nonzero"/><path fill="#000000" d="M 930.375 205.472656 C 930.003906 205.472656 929.671875 205.199219 929.609375 204.820312 C 929.539062 204.394531 929.832031 203.992188 930.253906 203.925781 L 965.066406 198.320312 C 965.492188 198.253906 965.886719 198.539062 965.953125 198.964844 C 966.027344 199.386719 965.734375 199.785156 965.3125 199.855469 L 930.5 205.457031 C 930.457031 205.46875 930.417969 205.472656 930.375 205.472656 " fill-opacity="1" fill-rule="nonzero"/><path fill="#000000" d="M 931.988281 215.492188 C 931.613281 215.492188 931.285156 215.222656 931.222656 214.835938 C 931.152344 214.414062 931.441406 214.015625 931.863281 213.949219 L 982.09375 205.859375 C 982.523438 205.789062 982.917969 206.078125 982.988281 206.503906 C 983.054688 206.925781 982.765625 207.324219 982.339844 207.394531 L 932.109375 215.480469 C 932.074219 215.488281 932.03125 215.492188 931.988281 215.492188 " fill-opacity="1" fill-rule="nonzero"/><path fill="#000000" d="M 904.132812 238.957031 C 903.761719 238.957031 903.425781 238.683594 903.367188 238.304688 C 903.300781 237.878906 903.585938 237.480469 904.011719 237.410156 L 985.078125 224.355469 C 985.5 224.289062 985.894531 224.574219 985.964844 225 C 986.035156 225.425781 985.746094 225.824219 985.324219 225.890625 L 904.257812 238.945312 C 904.214844 238.953125 904.171875 238.957031 904.132812 238.957031 " fill-opacity="1" fill-rule="nonzero"/><path fill="#000000" d="M 905.75 248.976562 C 905.375 248.976562 905.042969 248.703125 904.984375 248.320312 C 904.917969 247.898438 905.207031 247.5 905.625 247.425781 L 961.808594 238.382812 C 962.230469 238.3125 962.628906 238.597656 962.695312 239.023438 C 962.769531 239.445312 962.480469 239.847656 962.054688 239.917969 L 905.875 248.960938 C 905.832031 248.96875 905.789062 248.976562 905.75 248.976562 " fill-opacity="1" fill-rule="nonzero"/><path fill="#000000" d="M 907.359375 258.996094 C 906.988281 258.996094 906.65625 258.722656 906.597656 258.34375 C 906.53125 257.914062 906.816406 257.519531 907.242188 257.449219 L 988.304688 244.394531 C 988.726562 244.328125 989.125 244.617188 989.195312 245.039062 C 989.261719 245.460938 988.976562 245.863281 988.554688 245.925781 L 907.488281 258.984375 C 907.445312 258.992188 907.402344 258.996094 907.359375 258.996094 " fill-opacity="1" fill-rule="nonzero"/><path fill="#000000" d="M 910.347656 277.488281 C 909.96875 277.488281 909.640625 277.214844 909.582031 276.835938 C 909.511719 276.410156 909.796875 276.011719 910.222656 275.941406 L 991.285156 262.890625 C 991.710938 262.820312 992.109375 263.109375 992.179688 263.53125 C 992.246094 263.957031 991.960938 264.355469 991.535156 264.425781 L 910.472656 277.480469 C 910.429688 277.488281 910.386719 277.488281 910.347656 277.488281 " fill-opacity="1" fill-rule="nonzero"/><path fill="#000000" d="M 911.957031 287.507812 C 911.585938 287.507812 911.253906 287.238281 911.195312 286.859375 C 911.125 286.429688 911.410156 286.03125 911.832031 285.964844 L 968.019531 276.917969 C 968.441406 276.847656 968.84375 277.136719 968.90625 277.558594 C 968.980469 277.984375 968.691406 278.386719 968.261719 278.453125 L 912.085938 287.5 C 912.042969 287.503906 912 287.507812 911.957031 287.507812 " fill-opacity="1" fill-rule="nonzero"/><path fill="#000000" d="M 913.570312 297.53125 C 913.195312 297.53125 912.867188 297.257812 912.804688 296.875 C 912.734375 296.453125 913.023438 296.054688 913.445312 295.984375 L 994.511719 282.929688 C 994.9375 282.863281 995.335938 283.148438 995.402344 283.574219 C 995.472656 283.996094 995.183594 284.394531 994.761719 284.46875 L 913.695312 297.523438 C 913.65625 297.527344 913.613281 297.53125 913.570312 297.53125 " fill-opacity="1" fill-rule="nonzero"/><g clip-path="url(#190d9a41d5)"><g clip-path="url(#bee94d4d4f)"><g clip-path="url(#4dc55dc9c2)"><path fill="#fed101" d="M 55.980469 503.71875 C 54.855469 504.949219 54.386719 506.492188 53.761719 507.9375 C 44.417969 529.480469 36.527344 551.605469 27.992188 573.46875 C 20.289062 593.210938 12.285156 612.824219 1.710938 631.238281 C -4.019531 641.207031 -10.382812 650.722656 -18.707031 658.769531 C -30.640625 670.3125 -44.941406 677.515625 -60.859375 681.777344 C -71.988281 684.757812 -83.460938 685.503906 -94.800781 687.242188 C -95.335938 687.332031 -95.875 687.351562 -96.414062 687.300781 C -96.832031 687.292969 -97.207031 687.160156 -97.539062 686.902344 C -97.867188 686.644531 -98.089844 686.3125 -98.199219 685.90625 C -98.488281 684.851562 -98.113281 683.949219 -97.152344 683.550781 C -96.027344 683.097656 -94.863281 682.773438 -93.667969 682.578125 C -87.019531 681.425781 -80.355469 680.394531 -73.71875 679.1875 C -59.605469 676.628906 -46.425781 671.699219 -34.519531 663.570312 C -24.101562 656.453125 -15.988281 647.167969 -9.21875 636.636719 C -0.0664062 622.394531 6.964844 607.074219 13.511719 591.511719 C 20.476562 574.976562 26.5 558.0625 32.894531 541.304688 C 38.203125 527.4375 43.292969 513.496094 49.53125 500.015625 C 51.183594 496.453125 52.90625 492.964844 55.195312 489.753906 C 55.785156 488.847656 56.453125 488.007812 57.199219 487.226562 C 58.757812 485.703125 60.648438 485.097656 62.78125 485.796875 C 64.8125 486.453125 65.6875 488.144531 66 490.097656 C 66.546875 493.472656 66.1875 496.839844 65.898438 500.191406 C 64.359375 517.941406 63.339844 535.722656 63.347656 553.542969 C 63.359375 576.105469 64.511719 598.59375 68.867188 620.808594 C 70.847656 630.894531 73.539062 640.777344 77.953125 650.117188 C 79.980469 654.398438 82.375 658.464844 85.527344 662.027344 C 90.972656 668.179688 97.75 670.601562 105.894531 669.199219 C 114.039062 667.796875 121.171875 664.027344 127.847656 659.367188 C 139.292969 651.402344 149.535156 642.046875 158.941406 631.753906 C 162.386719 627.964844 166.0625 624.390625 169.59375 620.679688 C 184.464844 605.050781 198.921875 589 215.003906 574.574219 C 225.34375 565.296875 235.875 556.214844 247.871094 549.0625 C 257.445312 543.355469 267.539062 538.984375 278.625 537.117188 C 294.492188 534.4375 308.199219 538.621094 319.941406 549.664062 C 328.808594 558 334.539062 568.28125 339.007812 579.371094 C 345.382812 595.175781 348.179688 611.769531 349.566406 628.65625 C 352.351562 662.679688 347.90625 695.992188 339.613281 728.894531 C 332.90625 755.523438 323.097656 781.097656 312.75 806.46875 C 304.449219 826.832031 295.910156 847.089844 287.941406 867.582031 C 280.15625 887.59375 273.582031 908.019531 269.941406 929.261719 C 268.269531 939.011719 267.71875 948.832031 268.746094 958.703125 C 269.152344 963.308594 270.253906 967.742188 272.046875 972.007812 C 274.761719 978.199219 279.40625 981.660156 286.304688 981.175781 C 297.960938 980.351562 309.257812 977.992188 319.691406 972.4375 C 320.527344 971.992188 321.40625 971.210938 322.128906 972.324219 C 322.765625 973.296875 321.957031 974.09375 321.273438 974.761719 C 319.972656 975.972656 318.484375 976.886719 316.816406 977.5 C 307.605469 981.117188 298.148438 983.773438 288.261719 984.703125 C 287.457031 984.78125 286.644531 984.820312 285.839844 984.816406 C 276.535156 984.828125 270.902344 980.949219 267.648438 972.214844 C 265.472656 966.34375 264.414062 960.257812 264 954.023438 C 263.261719 943.015625 264.554688 932.199219 266.746094 921.460938 C 269.742188 906.757812 274.101562 892.433594 278.941406 878.257812 C 285.921875 857.820312 294.433594 837.980469 302.433594 817.929688 C 308.898438 801.742188 315.347656 785.601562 321.128906 769.179688 C 330.246094 743.277344 337.332031 716.871094 340.867188 689.570312 C 344.726562 659.878906 344.617188 630.347656 337.621094 601.074219 C 334.527344 588.117188 329.773438 575.820312 321.914062 564.921875 C 317.136719 558.300781 311.441406 552.585938 304.019531 548.859375 C 295.25 544.476562 286.117188 544.375 276.800781 546.707031 C 264.816406 549.707031 254.269531 555.582031 244.402344 562.828125 C 231.644531 572.199219 220.015625 582.886719 208.96875 594.164062 C 198.410156 604.949219 188.054688 615.9375 177.910156 627.128906 C 169.84375 636.007812 161.742188 644.902344 152.800781 652.917969 C 143.578125 661.210938 134.085938 669.246094 122.761719 674.6875 C 115.25 678.300781 107.433594 680.671875 98.960938 680.089844 C 89.46875 679.445312 82.089844 674.90625 76.332031 667.566406 C 68.324219 657.355469 64.210938 645.386719 61.15625 632.996094 C 56.773438 615.230469 55.09375 597.101562 54.265625 578.878906 C 53.429688 560.390625 53.914062 541.914062 54.917969 523.449219 C 55.234375 517.527344 55.824219 511.617188 56.277344 505.699219 C 56.335938 505.089844 56.691406 504.414062 55.980469 503.71875 Z M 55.980469 503.71875 " fill-opacity="1" fill-rule="nonzero"/></g></g></g><g clip-path="url(#52656afa55)"><g transform="matrix(1, 0, 0, 1, 0, 780)"><g clip-path="url(#683911a0f8)"><g clip-path="url(#f9cf508da4)"><path fill="#000000" d="M -51.730469 0.375 L 1081.527344 0.375 L 1081.527344 65.953125 L -51.730469 65.953125 Z M -51.730469 0.375 " fill-opacity="1" fill-rule="nonzero"/></g></g></g></g><g clip-path="url(#bef530eddb)"><g transform="matrix(1, 0, 0, 1, 1081, 760)"><g clip-path="url(#70374273bf)"><g clip-path="url(#bd7bc36c5f)"><path fill="#fed101" d="M 0.507812 0.367188 L 399.6875 0.367188 L 399.6875 85.953125 L 0.507812 85.953125 Z M 0.507812 0.367188 " fill-opacity="1" fill-rule="nonzero"/></g></g></g></g><g fill="#000000" fill-opacity="1"><g transform="translate(1310.389046, 789.687508)"><g><path d="M 0.78125 -2.734375 C 1.226562 -3.097656 1.4375 -3.265625 1.40625 -3.234375 C 2.707031 -4.316406 3.734375 -5.203125 4.484375 -5.890625 C 5.242188 -6.585938 5.882812 -7.316406 6.40625 -8.078125 C 6.925781 -8.835938 7.1875 -9.578125 7.1875 -10.296875 C 7.1875 -10.847656 7.054688 -11.273438 6.796875 -11.578125 C 6.546875 -11.890625 6.164062 -12.046875 5.65625 -12.046875 C 5.15625 -12.046875 4.757812 -11.851562 4.46875 -11.46875 C 4.1875 -11.09375 4.046875 -10.554688 4.046875 -9.859375 L 0.734375 -9.859375 C 0.765625 -10.992188 1.007812 -11.941406 1.46875 -12.703125 C 1.925781 -13.460938 2.53125 -14.019531 3.28125 -14.375 C 4.039062 -14.738281 4.878906 -14.921875 5.796875 -14.921875 C 7.390625 -14.921875 8.585938 -14.515625 9.390625 -13.703125 C 10.191406 -12.890625 10.59375 -11.828125 10.59375 -10.515625 C 10.59375 -9.085938 10.109375 -7.765625 9.140625 -6.546875 C 8.171875 -5.328125 6.929688 -4.140625 5.421875 -2.984375 L 10.8125 -2.984375 L 10.8125 -0.203125 L 0.78125 -0.203125 Z M 0.78125 -2.734375 "/></g></g></g><g fill="#000000" fill-opacity="1"><g transform="translate(1321.804538, 789.687508)"><g><path d="M 0.90625 -7.5 C 0.90625 -9.789062 1.347656 -11.597656 2.234375 -12.921875 C 3.117188 -14.242188 4.546875 -14.90625 6.515625 -14.90625 C 8.492188 -14.90625 9.925781 -14.242188 10.8125 -12.921875 C 11.695312 -11.597656 12.140625 -9.789062 12.140625 -7.5 C 12.140625 -5.175781 11.695312 -3.351562 10.8125 -2.03125 C 9.925781 -0.71875 8.492188 -0.0625 6.515625 -0.0625 C 4.546875 -0.0625 3.117188 -0.71875 2.234375 -2.03125 C 1.347656 -3.351562 0.90625 -5.175781 0.90625 -7.5 Z M 8.78125 -7.5 C 8.78125 -8.84375 8.632812 -9.878906 8.34375 -10.609375 C 8.050781 -11.335938 7.441406 -11.703125 6.515625 -11.703125 C 5.597656 -11.703125 4.992188 -11.335938 4.703125 -10.609375 C 4.410156 -9.878906 4.265625 -8.84375 4.265625 -7.5 C 4.265625 -6.59375 4.316406 -5.84375 4.421875 -5.25 C 4.523438 -4.65625 4.738281 -4.175781 5.0625 -3.8125 C 5.394531 -3.445312 5.878906 -3.265625 6.515625 -3.265625 C 7.160156 -3.265625 7.644531 -3.445312 7.96875 -3.8125 C 8.289062 -4.175781 8.503906 -4.65625 8.609375 -5.25 C 8.722656 -5.84375 8.78125 -6.59375 8.78125 -7.5 Z M 8.78125 -7.5 "/></g></g></g><g fill="#000000" fill-opacity="1"><g transform="translate(1334.839393, 789.687508)"><g><path d="M 0.78125 -2.734375 C 1.226562 -3.097656 1.4375 -3.265625 1.40625 -3.234375 C 2.707031 -4.316406 3.734375 -5.203125 4.484375 -5.890625 C 5.242188 -6.585938 5.882812 -7.316406 6.40625 -8.078125 C 6.925781 -8.835938 7.1875 -9.578125 7.1875 -10.296875 C 7.1875 -10.847656 7.054688 -11.273438 6.796875 -11.578125 C 6.546875 -11.890625 6.164062 -12.046875 5.65625 -12.046875 C 5.15625 -12.046875 4.757812 -11.851562 4.46875 -11.46875 C 4.1875 -11.09375 4.046875 -10.554688 4.046875 -9.859375 L 0.734375 -9.859375 C 0.765625 -10.992188 1.007812 -11.941406 1.46875 -12.703125 C 1.925781 -13.460938 2.53125 -14.019531 3.28125 -14.375 C 4.039062 -14.738281 4.878906 -14.921875 5.796875 -14.921875 C 7.390625 -14.921875 8.585938 -14.515625 9.390625 -13.703125 C 10.191406 -12.890625 10.59375 -11.828125 10.59375 -10.515625 C 10.59375 -9.085938 10.109375 -7.765625 9.140625 -6.546875 C 8.171875 -5.328125 6.929688 -4.140625 5.421875 -2.984375 L 10.8125 -2.984375 L 10.8125 -0.203125 L 0.78125 -0.203125 Z M 0.78125 -2.734375 "/></g></g></g><g fill="#000000" fill-opacity="1"><g transform="translate(1346.254885, 789.687508)"><g><path d="M 8.125 -10.65625 C 8.007812 -11.15625 7.816406 -11.523438 7.546875 -11.765625 C 7.285156 -12.015625 6.910156 -12.140625 6.421875 -12.140625 C 5.660156 -12.140625 5.113281 -11.804688 4.78125 -11.140625 C 4.445312 -10.484375 4.273438 -9.441406 4.265625 -8.015625 C 4.554688 -8.484375 4.976562 -8.847656 5.53125 -9.109375 C 6.082031 -9.378906 6.691406 -9.515625 7.359375 -9.515625 C 8.660156 -9.515625 9.707031 -9.101562 10.5 -8.28125 C 11.300781 -7.457031 11.703125 -6.300781 11.703125 -4.8125 C 11.703125 -3.84375 11.503906 -2.988281 11.109375 -2.25 C 10.710938 -1.519531 10.140625 -0.945312 9.390625 -0.53125 C 8.640625 -0.125 7.75 0.078125 6.71875 0.078125 C 4.664062 0.078125 3.238281 -0.5625 2.4375 -1.84375 C 1.632812 -3.132812 1.234375 -4.988281 1.234375 -7.40625 C 1.234375 -9.9375 1.65625 -11.816406 2.5 -13.046875 C 3.351562 -14.285156 4.710938 -14.90625 6.578125 -14.90625 C 7.578125 -14.90625 8.421875 -14.707031 9.109375 -14.3125 C 9.796875 -13.914062 10.316406 -13.394531 10.671875 -12.75 C 11.023438 -12.113281 11.234375 -11.414062 11.296875 -10.65625 Z M 6.546875 -6.8125 C 5.972656 -6.8125 5.492188 -6.640625 5.109375 -6.296875 C 4.734375 -5.960938 4.546875 -5.484375 4.546875 -4.859375 C 4.546875 -4.222656 4.71875 -3.722656 5.0625 -3.359375 C 5.414062 -2.992188 5.921875 -2.8125 6.578125 -2.8125 C 7.160156 -2.8125 7.625 -2.988281 7.96875 -3.34375 C 8.3125 -3.695312 8.484375 -4.179688 8.484375 -4.796875 C 8.484375 -5.421875 8.316406 -5.910156 7.984375 -6.265625 C 7.648438 -6.628906 7.171875 -6.8125 6.546875 -6.8125 Z M 6.546875 -6.8125 "/></g></g></g></svg>