<svg xmlns="http://www.w3.org/2000/svg" xmlns:xlink="http://www.w3.org/1999/xlink" width="1920" zoomAndPan="magnify" viewBox="0 0 1440 809.999993" height="1080" preserveAspectRatio="xMidYMid meet" version="1.0"><defs><clipPath id="01730e16d5"><path d="M 0 0 L 810 0 L 810 810 L 0 810 Z M 0 0 " clip-rule="nonzero"/></clipPath><clipPath id="4b4a44996f"><path d="M 810 0.753906 L 1440 0.753906 L 1440 810 L 810 810 Z M 810 0.753906 " clip-rule="nonzero"/></clipPath><clipPath id="603509c654"><path d="M 810 735 L 1440 735 L 1440 737 L 810 737 Z M 810 735 " clip-rule="nonzero"/></clipPath><clipPath id="e55fd01d44"><path d="M 810 661 L 1440 661 L 1440 663 L 810 663 Z M 810 661 " clip-rule="nonzero"/></clipPath><clipPath id="4a352f32a2"><path d="M 810 588 L 1440 588 L 1440 590 L 810 590 Z M 810 588 " clip-rule="nonzero"/></clipPath><clipPath id="b87aa69487"><path d="M 810 514 L 1440 514 L 1440 516 L 810 516 Z M 810 514 " clip-rule="nonzero"/></clipPath><clipPath id="dda38f6339"><path d="M 810 441 L 1440 441 L 1440 443 L 810 443 Z M 810 441 " clip-rule="nonzero"/></clipPath><clipPath id="60189dafd3"><path d="M 810 367 L 1440 367 L 1440 369 L 810 369 Z M 810 367 " clip-rule="nonzero"/></clipPath><clipPath id="0243492b48"><path d="M 810 294 L 1440 294 L 1440 296 L 810 296 Z M 810 294 " clip-rule="nonzero"/></clipPath><clipPath id="04a0c57b14"><path d="M 810 220 L 1440 220 L 1440 222 L 810 222 Z M 810 220 " clip-rule="nonzero"/></clipPath><clipPath id="082bf525aa"><path d="M 810 147 L 1440 147 L 1440 149 L 810 149 Z M 810 147 " clip-rule="nonzero"/></clipPath><clipPath id="d2b0ea85d5"><path d="M 810 73 L 1440 73 L 1440 75 L 810 75 Z M 810 73 " clip-rule="nonzero"/></clipPath><clipPath id="7ca7bb8ca8"><path d="M 1396 0.753906 L 1398 0.753906 L 1398 810 L 1396 810 Z M 1396 0.753906 " clip-rule="nonzero"/></clipPath><clipPath id="d2942229b8"><path d="M 1322 0.753906 L 1325 0.753906 L 1325 810 L 1322 810 Z M 1322 0.753906 " clip-rule="nonzero"/></clipPath><clipPath id="dd37042399"><path d="M 1249 0.753906 L 1251 0.753906 L 1251 810 L 1249 810 Z M 1249 0.753906 " clip-rule="nonzero"/></clipPath><clipPath id="3f87c89930"><path d="M 1175 0.753906 L 1178 0.753906 L 1178 810 L 1175 810 Z M 1175 0.753906 " clip-rule="nonzero"/></clipPath><clipPath id="0f9a85231f"><path d="M 1102 0.753906 L 1104 0.753906 L 1104 810 L 1102 810 Z M 1102 0.753906 " clip-rule="nonzero"/></clipPath><clipPath id="28b10acfcf"><path d="M 1028 0.753906 L 1030 0.753906 L 1030 810 L 1028 810 Z M 1028 0.753906 " clip-rule="nonzero"/></clipPath><clipPath id="636fd3dd5e"><path d="M 955 0.753906 L 957 0.753906 L 957 810 L 955 810 Z M 955 0.753906 " clip-rule="nonzero"/></clipPath><clipPath id="5b8232a5fb"><path d="M 881 0.753906 L 883 0.753906 L 883 810 L 881 810 Z M 881 0.753906 " clip-rule="nonzero"/></clipPath></defs><g clip-path="url(#01730e16d5)"><path fill="#fdfcff" d="M 810.039062 810.039062 L 0.0390625 810.039062 L 0.0390625 0.0390625 L 810.039062 0.0390625 Z M 1.160156 808.914062 L 808.914062 808.914062 L 808.914062 1.160156 L 1.160156 1.160156 Z M 1.160156 808.914062 " fill-opacity="1" fill-rule="nonzero"/></g><path fill="#fdfcff" d="M 0.597656 735.382812 L 809.476562 735.382812 L 809.476562 736.503906 L 0.597656 736.503906 Z M 0.597656 735.382812 " fill-opacity="1" fill-rule="nonzero"/><path fill="#fdfcff" d="M 0.597656 661.847656 L 809.476562 661.847656 L 809.476562 662.972656 L 0.597656 662.972656 Z M 0.597656 661.847656 " fill-opacity="1" fill-rule="nonzero"/><path fill="#fdfcff" d="M 0.597656 588.308594 L 809.476562 588.308594 L 809.476562 589.429688 L 0.597656 589.429688 Z M 0.597656 588.308594 " fill-opacity="1" fill-rule="nonzero"/><path fill="#fdfcff" d="M 0.597656 514.773438 L 809.476562 514.773438 L 809.476562 515.898438 L 0.597656 515.898438 Z M 0.597656 514.773438 " fill-opacity="1" fill-rule="nonzero"/><path fill="#fdfcff" d="M 0.597656 441.242188 L 809.476562 441.242188 L 809.476562 442.367188 L 0.597656 442.367188 Z M 0.597656 441.242188 " fill-opacity="1" fill-rule="nonzero"/><path fill="#fdfcff" d="M 0.597656 367.710938 L 809.476562 367.710938 L 809.476562 368.832031 L 0.597656 368.832031 Z M 0.597656 367.710938 " fill-opacity="1" fill-rule="nonzero"/><path fill="#fdfcff" d="M 0.597656 294.175781 L 809.476562 294.175781 L 809.476562 295.300781 L 0.597656 295.300781 Z M 0.597656 294.175781 " fill-opacity="1" fill-rule="nonzero"/><path fill="#fdfcff" d="M 0.597656 220.644531 L 809.476562 220.644531 L 809.476562 221.765625 L 0.597656 221.765625 Z M 0.597656 220.644531 " fill-opacity="1" fill-rule="nonzero"/><path fill="#fdfcff" d="M 0.597656 147.101562 L 809.476562 147.101562 L 809.476562 148.226562 L 0.597656 148.226562 Z M 0.597656 147.101562 " fill-opacity="1" fill-rule="nonzero"/><path fill="#fdfcff" d="M 0.597656 73.570312 L 809.476562 73.570312 L 809.476562 74.695312 L 0.597656 74.695312 Z M 0.597656 73.570312 " fill-opacity="1" fill-rule="nonzero"/><path fill="#fdfcff" d="M 735.382812 0.597656 L 736.503906 0.597656 L 736.503906 809.476562 L 735.382812 809.476562 Z M 735.382812 0.597656 " fill-opacity="1" fill-rule="nonzero"/><path fill="#fdfcff" d="M 661.847656 0.597656 L 662.972656 0.597656 L 662.972656 809.476562 L 661.847656 809.476562 Z M 661.847656 0.597656 " fill-opacity="1" fill-rule="nonzero"/><path fill="#fdfcff" d="M 588.308594 0.597656 L 589.429688 0.597656 L 589.429688 809.476562 L 588.308594 809.476562 Z M 588.308594 0.597656 " fill-opacity="1" fill-rule="nonzero"/><path fill="#fdfcff" d="M 514.773438 0.597656 L 515.898438 0.597656 L 515.898438 809.476562 L 514.773438 809.476562 Z M 514.773438 0.597656 " fill-opacity="1" fill-rule="nonzero"/><path fill="#fdfcff" d="M 441.242188 0.597656 L 442.367188 0.597656 L 442.367188 809.476562 L 441.242188 809.476562 Z M 441.242188 0.597656 " fill-opacity="1" fill-rule="nonzero"/><path fill="#fdfcff" d="M 367.710938 0.597656 L 368.832031 0.597656 L 368.832031 809.476562 L 367.710938 809.476562 Z M 367.710938 0.597656 " fill-opacity="1" fill-rule="nonzero"/><path fill="#fdfcff" d="M 294.175781 0.597656 L 295.300781 0.597656 L 295.300781 809.476562 L 294.175781 809.476562 Z M 294.175781 0.597656 " fill-opacity="1" fill-rule="nonzero"/><path fill="#fdfcff" d="M 220.644531 0.597656 L 221.765625 0.597656 L 221.765625 809.476562 L 220.644531 809.476562 Z M 220.644531 0.597656 " fill-opacity="1" fill-rule="nonzero"/><path fill="#fdfcff" d="M 147.101562 0.597656 L 148.226562 0.597656 L 148.226562 809.476562 L 147.101562 809.476562 Z M 147.101562 0.597656 " fill-opacity="1" fill-rule="nonzero"/><path fill="#fdfcff" d="M 73.570312 0.597656 L 74.695312 0.597656 L 74.695312 809.476562 L 73.570312 809.476562 Z M 73.570312 0.597656 " fill-opacity="1" fill-rule="nonzero"/><g clip-path="url(#4b4a44996f)"><path fill="#fdfcff" d="M 1618.253906 810.039062 L 808.253906 810.039062 L 808.253906 0.0390625 L 1618.253906 0.0390625 Z M 809.378906 808.914062 L 1617.128906 808.914062 L 1617.128906 1.160156 L 809.378906 1.160156 Z M 809.378906 808.914062 " fill-opacity="1" fill-rule="nonzero"/></g><g clip-path="url(#603509c654)"><path fill="#fdfcff" d="M 808.816406 735.382812 L 1617.691406 735.382812 L 1617.691406 736.503906 L 808.816406 736.503906 Z M 808.816406 735.382812 " fill-opacity="1" fill-rule="nonzero"/></g><g clip-path="url(#e55fd01d44)"><path fill="#fdfcff" d="M 808.816406 661.847656 L 1617.691406 661.847656 L 1617.691406 662.972656 L 808.816406 662.972656 Z M 808.816406 661.847656 " fill-opacity="1" fill-rule="nonzero"/></g><g clip-path="url(#4a352f32a2)"><path fill="#fdfcff" d="M 808.816406 588.308594 L 1617.691406 588.308594 L 1617.691406 589.429688 L 808.816406 589.429688 Z M 808.816406 588.308594 " fill-opacity="1" fill-rule="nonzero"/></g><g clip-path="url(#b87aa69487)"><path fill="#fdfcff" d="M 808.816406 514.773438 L 1617.691406 514.773438 L 1617.691406 515.898438 L 808.816406 515.898438 Z M 808.816406 514.773438 " fill-opacity="1" fill-rule="nonzero"/></g><g clip-path="url(#dda38f6339)"><path fill="#fdfcff" d="M 808.816406 441.242188 L 1617.691406 441.242188 L 1617.691406 442.367188 L 808.816406 442.367188 Z M 808.816406 441.242188 " fill-opacity="1" fill-rule="nonzero"/></g><g clip-path="url(#60189dafd3)"><path fill="#fdfcff" d="M 808.816406 367.710938 L 1617.691406 367.710938 L 1617.691406 368.832031 L 808.816406 368.832031 Z M 808.816406 367.710938 " fill-opacity="1" fill-rule="nonzero"/></g><g clip-path="url(#0243492b48)"><path fill="#fdfcff" d="M 808.816406 294.175781 L 1617.691406 294.175781 L 1617.691406 295.300781 L 808.816406 295.300781 Z M 808.816406 294.175781 " fill-opacity="1" fill-rule="nonzero"/></g><g clip-path="url(#04a0c57b14)"><path fill="#fdfcff" d="M 808.816406 220.644531 L 1617.691406 220.644531 L 1617.691406 221.765625 L 808.816406 221.765625 Z M 808.816406 220.644531 " fill-opacity="1" fill-rule="nonzero"/></g><g clip-path="url(#082bf525aa)"><path fill="#fdfcff" d="M 808.816406 147.101562 L 1617.691406 147.101562 L 1617.691406 148.226562 L 808.816406 148.226562 Z M 808.816406 147.101562 " fill-opacity="1" fill-rule="nonzero"/></g><g clip-path="url(#d2b0ea85d5)"><path fill="#fdfcff" d="M 808.816406 73.570312 L 1617.691406 73.570312 L 1617.691406 74.695312 L 808.816406 74.695312 Z M 808.816406 73.570312 " fill-opacity="1" fill-rule="nonzero"/></g><g clip-path="url(#7ca7bb8ca8)"><path fill="#fdfcff" d="M 1396.523438 0.597656 L 1397.648438 0.597656 L 1397.648438 809.476562 L 1396.523438 809.476562 Z M 1396.523438 0.597656 " fill-opacity="1" fill-rule="nonzero"/></g><g clip-path="url(#d2942229b8)"><path fill="#fdfcff" d="M 1322.992188 0.597656 L 1324.117188 0.597656 L 1324.117188 809.476562 L 1322.992188 809.476562 Z M 1322.992188 0.597656 " fill-opacity="1" fill-rule="nonzero"/></g><g clip-path="url(#dd37042399)"><path fill="#fdfcff" d="M 1249.457031 0.597656 L 1250.582031 0.597656 L 1250.582031 809.476562 L 1249.457031 809.476562 Z M 1249.457031 0.597656 " fill-opacity="1" fill-rule="nonzero"/></g><g clip-path="url(#3f87c89930)"><path fill="#fdfcff" d="M 1175.925781 0.597656 L 1177.050781 0.597656 L 1177.050781 809.476562 L 1175.925781 809.476562 Z M 1175.925781 0.597656 " fill-opacity="1" fill-rule="nonzero"/></g><g clip-path="url(#0f9a85231f)"><path fill="#fdfcff" d="M 1102.394531 0.597656 L 1103.515625 0.597656 L 1103.515625 809.476562 L 1102.394531 809.476562 Z M 1102.394531 0.597656 " fill-opacity="1" fill-rule="nonzero"/></g><g clip-path="url(#28b10acfcf)"><path fill="#fdfcff" d="M 1028.859375 0.597656 L 1029.984375 0.597656 L 1029.984375 809.476562 L 1028.859375 809.476562 Z M 1028.859375 0.597656 " fill-opacity="1" fill-rule="nonzero"/></g><g clip-path="url(#636fd3dd5e)"><path fill="#fdfcff" d="M 955.320312 0.597656 L 956.445312 0.597656 L 956.445312 809.476562 L 955.320312 809.476562 Z M 955.320312 0.597656 " fill-opacity="1" fill-rule="nonzero"/></g><g clip-path="url(#5b8232a5fb)"><path fill="#fdfcff" d="M 881.785156 0.597656 L 882.910156 0.597656 L 882.910156 809.476562 L 881.785156 809.476562 Z M 881.785156 0.597656 " fill-opacity="1" fill-rule="nonzero"/></g></svg>