<svg xmlns="http://www.w3.org/2000/svg" xmlns:xlink="http://www.w3.org/1999/xlink" width="1920" zoomAndPan="magnify" viewBox="0 0 1440 809.999993" height="1080" preserveAspectRatio="xMidYMid meet" version="1.0"><defs><clipPath id="73cf355c76"><path d="M 131 42.371094 L 874.941406 42.371094 L 874.941406 783.371094 L 131 783.371094 Z M 131 42.371094 " clip-rule="nonzero"/></clipPath><clipPath id="caa90babf9"><path d="M 0.28125 0.371094 L 743 0.371094 L 743 741 L 0.28125 741 Z M 0.28125 0.371094 " clip-rule="nonzero"/></clipPath><clipPath id="3d7a96da86"><rect x="0" width="744" y="0" height="742"/></clipPath><clipPath id="30e286e3e9"><path d="M 976 0 L 1194.957031 0 L 1194.957031 197.203125 L 976 197.203125 Z M 976 0 " clip-rule="nonzero"/></clipPath><clipPath id="014419e1cf"><path d="M 1127 319 L 1140 319 L 1140 343.976562 L 1127 343.976562 Z M 1127 319 " clip-rule="nonzero"/></clipPath><clipPath id="6796179406"><path d="M 1077 319 L 1091 319 L 1091 343.976562 L 1077 343.976562 Z M 1077 319 " clip-rule="nonzero"/></clipPath><clipPath id="2ef757867b"><path d="M 1027.890625 319 L 1041 319 L 1041 343.976562 L 1027.890625 343.976562 Z M 1027.890625 319 " clip-rule="nonzero"/></clipPath><clipPath id="04c926d662"><path d="M 0.65625 86.183594 L 19.226562 86.183594 L 19.226562 104.753906 L 0.65625 104.753906 Z M 0.65625 86.183594 " clip-rule="nonzero"/></clipPath><clipPath id="b5b159d31c"><path d="M 0.65625 58.507812 L 19.226562 58.507812 L 19.226562 77.078125 L 0.65625 77.078125 Z M 0.65625 58.507812 " clip-rule="nonzero"/></clipPath><clipPath id="266e6da1f9"><path d="M 0.65625 0.957031 L 19.226562 0.957031 L 19.226562 19.527344 L 0.65625 19.527344 Z M 0.65625 0.957031 " clip-rule="nonzero"/></clipPath><clipPath id="a2b42cb18d"><rect x="0" width="20" y="0" height="106"/></clipPath><clipPath id="9e776070e8"><path d="M 85.785156 0.625 L 104.355469 0.625 L 104.355469 19.195312 L 85.785156 19.195312 Z M 85.785156 0.625 " clip-rule="nonzero"/></clipPath><clipPath id="e9e87f6944"><path d="M 58.109375 0.625 L 76.679688 0.625 L 76.679688 19.195312 L 58.109375 19.195312 Z M 58.109375 0.625 " clip-rule="nonzero"/></clipPath><clipPath id="6b1d032110"><path d="M 0.558594 0.625 L 19.128906 0.625 L 19.128906 19.195312 L 0.558594 19.195312 Z M 0.558594 0.625 " clip-rule="nonzero"/></clipPath><clipPath id="99ba60c9ff"><rect x="0" width="105" y="0" height="20"/></clipPath><clipPath id="cd4a82e790"><path d="M 1205.371094 176 L 1440 176 L 1440 596 L 1205.371094 596 Z M 1205.371094 176 " clip-rule="nonzero"/></clipPath><clipPath id="a72bbbd53f"><path d="M 986.3125 596.589844 L 1205.3125 596.589844 L 1205.3125 810 L 986.3125 810 Z M 986.3125 596.589844 " clip-rule="nonzero"/></clipPath></defs><g clip-path="url(#73cf355c76)"><g transform="matrix(1, 0, 0, 1, 131, 42)"><g clip-path="url(#3d7a96da86)"><g clip-path="url(#caa90babf9)"><path fill="#fdfcff" d="M 593.933594 548.378906 C 589.632812 550.097656 585.617188 552.105469 581.316406 553.828125 C 538.875 572.179688 508.476562 598.5625 479.800781 641.863281 C 476.074219 647.3125 472.34375 653.621094 468.332031 659.929688 C 445.964844 696.0625 417.859375 741.371094 371.691406 740.226562 C 317.203125 739.363281 284.511719 683.730469 252.683594 630.105469 C 233.183594 597.128906 214.828125 566.15625 192.460938 548.089844 C 174.96875 534.039062 151.453125 521.421875 126.792969 507.945312 C 67.429688 475.824219 0.328125 439.40625 0.328125 371.730469 C 0.328125 310.363281 67.429688 269.640625 126.503906 233.796875 C 155.753906 216.015625 183.570312 199.382812 201.636719 181.316406 C 219.417969 163.535156 234.042969 137.726562 249.816406 110.199219 C 280.210938 56.285156 311.757812 0.652344 371.117188 0.652344 C 371.117188 0.652344 371.402344 0.652344 371.402344 0.652344 C 565.257812 1.515625 742.191406 178.449219 742.480469 371.730469 C 742.765625 484.140625 680.25 511.097656 593.933594 548.378906 Z M 371.402344 3.234375 C 371.402344 3.234375 371.117188 3.234375 371.117188 3.234375 C 313.476562 3.234375 282.21875 58.292969 252.109375 111.34375 C 236.625 138.875 221.710938 165.257812 203.644531 183.039062 C 185.292969 201.105469 157.476562 218.023438 127.9375 235.800781 C 69.4375 271.648438 3.195312 311.796875 3.195312 371.730469 C 3.195312 437.6875 69.4375 473.53125 127.9375 505.363281 C 152.886719 518.839844 176.402344 531.457031 193.894531 545.796875 C 216.835938 564.148438 235.1875 595.40625 254.976562 628.671875 C 286.234375 681.726562 318.925781 736.496094 371.402344 737.644531 C 371.976562 737.644531 372.265625 737.644531 372.835938 737.644531 C 416.425781 737.644531 443.667969 693.769531 465.464844 658.496094 C 469.476562 652.1875 473.207031 645.878906 476.933594 640.429688 C 506.183594 596.554688 536.867188 569.886719 579.882812 551.246094 C 584.183594 549.523438 588.484375 547.519531 592.5 545.796875 C 677.957031 509.089844 739.898438 482.421875 739.613281 371.730469 C 739.324219 179.597656 563.824219 4.09375 371.402344 3.234375 Z M 371.402344 3.234375 " fill-opacity="1" fill-rule="nonzero"/></g><path fill="#fdfcff" d="M 706.921875 373.738281 C 703.191406 458.332031 637.238281 492.457031 567.265625 528.589844 L 558.664062 533.179688 C 533.714844 546.085938 508.476562 569.597656 484.101562 592.539062 C 447.398438 626.953125 409.257812 662.511719 369.394531 664.230469 C 324.660156 666.238281 282.792969 622.078125 245.511719 583.078125 C 227.734375 564.4375 210.8125 546.65625 194.753906 534.898438 C 179.554688 523.714844 162.0625 513.679688 143.710938 503.355469 C 89.796875 472.671875 33.878906 440.839844 31.871094 374.023438 C 29.863281 315.238281 89.226562 275.949219 141.703125 241.25 C 165.21875 225.765625 187.300781 210.855469 202.785156 195.367188 C 218.269531 179.597656 232.320312 158.660156 246.945312 136.582031 C 279.351562 87.542969 312.617188 37.074219 369.683594 36.5 C 370.542969 36.5 371.402344 36.5 372.265625 36.5 C 456 36.5 542.601562 76.359375 609.992188 146.332031 C 674.804688 213.148438 710.363281 296.308594 706.921875 373.738281 Z M 607.699219 148.050781 C 540.597656 78.652344 454.851562 39.082031 371.976562 39.082031 C 371.117188 39.082031 370.257812 39.082031 369.394531 39.082031 C 313.761719 39.652344 281.070312 89.550781 249.242188 137.726562 C 234.617188 160.097656 220.5625 181.316406 204.792969 197.089844 C 189.308594 212.574219 166.9375 227.484375 143.425781 243.257812 C 91.804688 277.671875 33.019531 316.671875 35.027344 373.738281 C 37.320312 439.121094 92.378906 470.378906 145.429688 500.773438 C 164.070312 511.386719 181.5625 521.421875 196.761719 532.605469 C 213.109375 544.648438 230.027344 562.429688 247.808594 581.070312 C 283.652344 618.636719 324.375 661.363281 366.816406 661.363281 C 367.675781 661.363281 368.535156 661.363281 369.394531 661.363281 C 408.398438 659.644531 445.964844 624.371094 482.382812 590.246094 C 506.757812 567.304688 531.992188 543.789062 557.515625 530.597656 L 566.117188 526.011719 C 635.230469 490.164062 700.613281 456.613281 704.339844 373.738281 C 707.496094 296.882812 672.222656 214.582031 607.699219 148.050781 Z M 607.699219 148.050781 " fill-opacity="1" fill-rule="nonzero"/><path fill="#fdfcff" d="M 542.601562 514.828125 L 536.867188 518.269531 C 521.957031 526.871094 506.757812 537.480469 490.410156 548.378906 C 447.96875 577.339844 404.09375 607.164062 364.519531 608.597656 C 319.5 610.03125 267.878906 573.902344 222.285156 542.070312 C 213.394531 536.046875 205.078125 530.023438 197.335938 524.863281 C 187.585938 518.269531 177.261719 511.957031 166.367188 505.363281 C 116.753906 475.253906 60.261719 441.128906 60.546875 379.472656 C 60.835938 325.273438 111.304688 285.988281 155.753906 251.289062 C 173.246094 237.523438 189.878906 224.617188 203.359375 211.425781 C 215.6875 198.808594 228.019531 183.324219 240.636719 166.691406 C 273.328125 123.964844 310.609375 75.5 363.660156 75.5 C 363.949219 75.5 364.519531 75.5 364.808594 75.5 C 443.667969 76.648438 531.417969 119.949219 593.648438 189.058594 C 646.988281 248.132812 674.230469 317.53125 668.78125 379.757812 C 662.183594 445.140625 598.808594 482.136719 542.601562 514.828125 Z M 591.066406 190.78125 C 529.414062 122.53125 442.523438 79.226562 364.234375 78.367188 C 363.949219 78.367188 363.660156 78.367188 363.085938 78.367188 C 311.46875 78.367188 274.761719 126.257812 242.359375 168.410156 C 229.453125 185.042969 217.410156 200.816406 204.792969 213.433594 C 191.3125 226.914062 174.679688 239.816406 157.1875 253.582031 C 111.019531 289.425781 63.417969 326.707031 63.128906 379.472656 C 62.84375 439.695312 118.476562 473.246094 167.511719 503.070312 C 178.410156 509.664062 189.019531 515.972656 198.769531 522.570312 C 206.800781 528.019531 215.117188 533.753906 223.71875 539.773438 C 265.875 569.3125 318.066406 605.730469 361.652344 605.730469 C 362.515625 605.730469 363.375 605.730469 364.234375 605.730469 C 402.949219 604.296875 446.535156 574.761719 488.691406 546.085938 C 505.035156 534.898438 520.523438 524.578125 535.433594 515.6875 L 541.167969 512.246094 C 596.800781 479.839844 659.605469 443.132812 665.339844 379.1875 C 670.789062 317.816406 643.832031 249.28125 591.066406 190.78125 Z M 591.066406 190.78125 " fill-opacity="1" fill-rule="nonzero"/><path fill="#fdfcff" d="M 513.925781 508.230469 C 447.683594 549.238281 394.632812 569.597656 356.492188 569.597656 C 307.742188 569.3125 182.996094 518.554688 121.34375 456.039062 C 97.828125 432.238281 85.785156 409.007812 86.070312 387.214844 C 86.644531 333.589844 131.667969 294.015625 171.527344 259.316406 C 182.996094 249.28125 193.894531 239.816406 203.359375 230.066406 C 212.820312 220.605469 221.710938 210.28125 231.460938 199.382812 C 265.585938 160.957031 304.011719 117.367188 356.492188 116.792969 C 357.066406 116.792969 357.640625 116.792969 358.5 116.792969 C 426.75 116.792969 503.890625 155.222656 559.808594 217.164062 C 608.558594 271.363281 633.222656 333.304688 626.914062 387.214844 C 620.605469 442.5625 558.949219 480.703125 513.925781 508.230469 Z M 557.515625 219.457031 C 502.167969 158.089844 425.890625 119.949219 358.5 119.949219 C 357.925781 119.949219 357.351562 119.949219 356.492188 119.949219 C 305.445312 120.523438 269.027344 161.816406 233.753906 201.390625 C 224.003906 212.289062 214.828125 222.609375 205.367188 232.074219 C 195.617188 241.824219 184.71875 251.289062 173.246094 261.324219 C 133.960938 295.738281 89.511719 335.023438 88.9375 387.214844 C 88.652344 408.148438 100.410156 430.515625 123.351562 454.03125 C 183.285156 514.828125 309.175781 566.445312 356.492188 566.730469 C 356.777344 566.730469 356.777344 566.730469 357.066406 566.730469 C 394.632812 566.730469 447.109375 546.085938 512.78125 505.648438 C 557.230469 478.121094 618.023438 440.554688 624.332031 386.929688 C 630.066406 334.164062 605.980469 272.796875 557.515625 219.457031 Z M 557.515625 219.457031 " fill-opacity="1" fill-rule="nonzero"/><path fill="#fdfcff" d="M 485.824219 498.480469 C 436.5 525.722656 379.433594 544.648438 347.027344 544.648438 C 301.71875 544.648438 193.894531 517.121094 140.269531 462.921875 C 120.195312 442.5625 110.160156 420.480469 110.160156 397.539062 C 110.734375 343.914062 152.886719 303.191406 189.878906 267.058594 C 195.042969 262.183594 199.917969 257.308594 204.792969 252.433594 C 209.378906 247.847656 213.683594 243.257812 218.269531 238.671875 C 253.828125 202.25 293.976562 161.242188 346.742188 160.667969 C 347.316406 160.667969 347.601562 160.667969 348.175781 160.667969 C 410.117188 160.667969 476.648438 193.359375 525.972656 248.132812 C 568.125 295.164062 589.058594 349.648438 583.609375 397.539062 C 580.167969 429.65625 544.324219 466.363281 485.824219 498.480469 Z M 523.964844 250.140625 C 475.785156 196.515625 408.683594 163.535156 348.460938 163.535156 C 348.175781 163.535156 347.601562 163.535156 347.316406 163.535156 C 295.695312 163.824219 255.835938 204.542969 220.851562 240.675781 C 216.261719 245.265625 211.675781 250.140625 207.371094 254.441406 C 202.496094 259.316406 197.621094 264.191406 192.460938 269.066406 C 155.753906 304.625 114.171875 345.347656 113.601562 397.539062 C 113.3125 419.621094 123.0625 441.128906 142.851562 460.914062 C 195.328125 513.964844 304.011719 541.78125 347.601562 541.78125 C 412.410156 541.78125 573.289062 466.363281 581.316406 397.253906 C 586.480469 350.222656 565.542969 296.597656 523.964844 250.140625 Z M 523.964844 250.140625 " fill-opacity="1" fill-rule="nonzero"/><path fill="#fdfcff" d="M 337.851562 529.738281 C 337.566406 529.738281 336.992188 529.738281 336.703125 529.738281 C 297.992188 529.164062 203.644531 513.105469 158.050781 466.363281 C 141.417969 449.445312 133.386719 429.945312 133.675781 408.722656 C 134.246094 371.15625 161.492188 320.683594 204.792969 277.097656 C 248.953125 232.933594 298.277344 205.980469 336.703125 205.40625 C 337.277344 205.40625 338.136719 205.40625 339 205.40625 C 391.765625 205.40625 447.683594 232.074219 488.691406 276.808594 C 525.683594 317.242188 544.324219 365.421875 540.023438 408.722656 C 532.28125 479.554688 395.207031 529.738281 337.851562 529.738281 Z M 486.109375 278.816406 C 445.675781 234.65625 390.617188 208.273438 338.710938 208.273438 C 338.136719 208.273438 337.277344 208.273438 336.703125 208.273438 C 299.710938 208.847656 249.816406 235.800781 206.800781 279.105469 C 164.070312 322.117188 136.828125 371.730469 136.253906 408.722656 C 135.96875 429.082031 143.996094 447.722656 159.769531 464.355469 C 177.261719 482.421875 202.210938 495.898438 228.59375 505.648438 C 210.242188 498.765625 193.320312 489.304688 179.84375 476.398438 C 163.785156 460.628906 155.753906 441.988281 156.042969 420.480469 C 156.328125 382.625 179.554688 337.03125 216.835938 301.183594 C 250.101562 269.066406 288.527344 251 322.652344 251 C 323.511719 251 324.660156 251 325.519531 251 C 373.125 252.433594 421.585938 275.375 454.851562 312.367188 C 483.53125 343.914062 497.582031 382.339844 495 420.480469 C 489.839844 493.03125 378.574219 519.988281 325.519531 521.707031 C 304.875 521.996094 268.742188 519.128906 234.902344 507.65625 C 273.902344 521.136719 314.335938 526.582031 336.417969 526.871094 C 367.101562 527.15625 416.140625 513.394531 455.714844 493.320312 C 484.101562 478.980469 532.566406 448.871094 536.582031 408.4375 C 541.167969 365.996094 522.53125 318.679688 486.109375 278.816406 Z M 181.851562 474.105469 C 218.269531 509.664062 285.085938 518.554688 319.785156 518.554688 C 321.792969 518.554688 323.511719 518.554688 325.519531 518.554688 C 349.894531 517.695312 390.902344 511.097656 426.75 495.039062 C 455.140625 482.136719 489.550781 458.621094 492.417969 420.195312 C 495 382.914062 481.234375 345.347656 453.132812 314.089844 C 420.152344 277.671875 372.550781 255.015625 325.808594 253.582031 C 291.683594 252.433594 252.96875 270.5 219.128906 302.90625 C 182.425781 338.179688 159.484375 383.199219 159.195312 420.195312 C 158.910156 440.839844 166.652344 458.90625 181.851562 474.105469 Z M 230.3125 505.9375 C 231.460938 506.222656 232.609375 506.796875 233.46875 507.082031 C 232.320312 506.796875 231.460938 506.222656 230.3125 505.9375 Z M 230.3125 505.9375 " fill-opacity="1" fill-rule="nonzero"/><path fill="#fdfcff" d="M 314.335938 295.449219 C 314.625 295.449219 314.910156 295.449219 315.199219 295.449219 C 352.476562 295.738281 389.183594 312.082031 415.566406 340.183594 C 439.941406 365.996094 452.558594 398.398438 450.839844 431.378906 C 449.402344 458.90625 431.625 481.847656 399.507812 497.332031 C 375.417969 508.804688 343.875 515.972656 314.910156 516.261719 C 276.195312 516.546875 225.4375 507.65625 198.484375 480.703125 C 185.292969 467.511719 178.695312 450.878906 178.984375 431.378906 C 180.128906 363.699219 248.09375 295.449219 314.335938 295.449219 Z M 200.777344 478.40625 C 226.300781 504.214844 274.761719 513.394531 312.328125 513.394531 C 313.191406 513.394531 314.050781 513.394531 314.910156 513.394531 C 364.808594 512.820312 445.101562 489.878906 447.96875 431.378906 C 449.691406 399.257812 437.359375 367.714844 413.273438 342.480469 C 387.175781 314.949219 351.328125 298.890625 314.910156 298.605469 C 314.625 298.605469 314.335938 298.605469 314.050781 298.605469 C 249.527344 298.605469 182.710938 365.421875 181.851562 431.664062 C 181.851562 450.015625 188.160156 465.789062 200.777344 478.40625 Z M 200.777344 478.40625 " fill-opacity="1" fill-rule="nonzero"/><path fill="#fdfcff" d="M 305.734375 339.039062 C 306.019531 339.039062 306.308594 339.039062 306.59375 339.039062 C 332.402344 339.039062 358.785156 350.507812 378.285156 370.582031 C 397.785156 390.371094 408.398438 416.179688 407.824219 441.414062 C 407.25 464.070312 394.632812 482.996094 370.832031 495.613281 C 352.765625 505.363281 328.386719 511.097656 305.734375 511.097656 C 305.734375 511.097656 305.734375 511.097656 305.449219 511.097656 C 277.058594 511.097656 239.492188 501.636719 218.84375 480.703125 C 208.234375 469.804688 202.785156 456.613281 203.070312 441.699219 C 204.503906 390.082031 254.976562 339.324219 305.734375 339.039062 Z M 221.136719 478.40625 C 241.210938 498.765625 277.917969 507.945312 305.734375 507.945312 C 305.734375 507.945312 305.734375 507.945312 306.019531 507.945312 C 343.875 507.945312 404.09375 489.878906 405.242188 441.128906 C 405.816406 416.464844 395.207031 391.515625 376.566406 372.304688 C 357.066406 352.515625 331.257812 341.332031 306.019531 341.621094 C 257.84375 342.191406 207.660156 392.378906 206.511719 441.128906 C 205.9375 455.464844 211.101562 467.796875 221.136719 478.40625 Z M 221.136719 478.40625 " fill-opacity="1" fill-rule="nonzero"/><path fill="#fdfcff" d="M 297.417969 380.621094 C 297.703125 380.621094 297.992188 380.621094 298.277344 380.621094 C 336.417969 380.90625 367.101562 411.878906 366.816406 449.15625 C 366.816406 465.789062 358.5 479.554688 343.585938 489.015625 C 331.257812 496.761719 314.910156 501.347656 298.277344 501.347656 C 281.070312 501.636719 257.558594 496.761719 242.933594 481.847656 C 234.042969 472.957031 229.453125 461.773438 229.742188 448.871094 C 230.027344 430.515625 237.195312 413.3125 250.101562 400.40625 C 262.433594 387.789062 279.351562 380.621094 297.417969 380.621094 Z M 244.652344 480.128906 C 258.417969 493.890625 280.5 498.765625 296.84375 498.765625 C 297.132812 498.765625 297.703125 498.765625 297.992188 498.765625 C 343.011719 498.195312 363.660156 472.671875 363.660156 449.445312 C 363.949219 413.597656 334.410156 384.0625 297.992188 383.773438 C 280.5 383.488281 264.152344 390.371094 251.820312 402.988281 C 239.492188 415.605469 232.609375 431.949219 232.320312 449.445312 C 232.035156 461.488281 236.335938 471.8125 244.652344 480.128906 Z M 244.652344 480.128906 " fill-opacity="1" fill-rule="nonzero"/><path fill="#fdfcff" d="M 292.542969 419.621094 C 292.542969 419.621094 292.828125 419.621094 292.828125 419.621094 C 302.292969 419.621094 311.46875 423.632812 318.066406 430.515625 C 324.375 437.113281 327.816406 445.714844 327.816406 454.890625 C 327.527344 473.246094 313.761719 485.289062 292.828125 485.289062 C 271.894531 485.578125 258.128906 473.53125 257.84375 454.890625 C 257.84375 445.429688 261.285156 436.539062 267.878906 429.945312 C 274.476562 423.347656 283.078125 419.621094 292.542969 419.621094 Z M 292.542969 482.421875 C 292.828125 482.421875 292.828125 482.421875 293.117188 482.421875 C 312.617188 482.136719 324.949219 471.523438 325.234375 454.890625 C 325.234375 446.574219 322.078125 438.546875 316.34375 432.523438 C 310.320312 426.214844 301.71875 422.773438 293.117188 422.773438 C 284.511719 422.773438 276.195312 425.929688 270.175781 432.238281 C 264.152344 438.257812 261 446.289062 261 454.890625 C 261 471.523438 273.328125 482.421875 292.542969 482.421875 Z M 292.542969 482.421875 " fill-opacity="1" fill-rule="nonzero"/></g></g></g><g clip-path="url(#30e286e3e9)"><path fill="#ffffff" d="M 1194.96875 -33.992188 L 1193.601562 -35.296875 L 1085.484375 79.597656 L 977.371094 -35.296875 L 976.003906 -33.992188 L 1084.179688 81.027344 L 976.003906 195.980469 L 977.371094 197.285156 L 1085.484375 82.394531 L 1193.601562 197.285156 L 1194.96875 195.980469 L 1086.792969 80.964844 Z M 1194.96875 -33.992188 " fill-opacity="1" fill-rule="nonzero"/></g><g clip-path="url(#014419e1cf)"><path fill="#ffffff" d="M 1127.527344 343.964844 L 1139.972656 331.519531 L 1127.527344 319.074219 Z M 1127.527344 343.964844 " fill-opacity="1" fill-rule="nonzero"/></g><g clip-path="url(#6796179406)"><path fill="#ffffff" d="M 1077.753906 343.964844 L 1090.199219 331.519531 L 1077.753906 319.074219 Z M 1077.753906 343.964844 " fill-opacity="1" fill-rule="nonzero"/></g><g clip-path="url(#2ef757867b)"><path fill="#ffffff" d="M 1027.964844 343.964844 L 1040.410156 331.519531 L 1027.964844 319.074219 Z M 1027.964844 343.964844 " fill-opacity="1" fill-rule="nonzero"/></g><g transform="matrix(1, 0, 0, 1, 47, 646)"><g clip-path="url(#a2b42cb18d)"><g clip-path="url(#04c926d662)"><path fill="#ffffff" d="M 12.964844 95.558594 L 19.207031 89.320312 C 19.371094 89.152344 19.371094 88.886719 19.207031 88.722656 L 16.832031 86.347656 C 16.75 86.265625 16.644531 86.222656 16.535156 86.222656 C 16.421875 86.222656 16.316406 86.265625 16.238281 86.347656 L 9.996094 92.589844 L 3.753906 86.347656 C 3.59375 86.1875 3.316406 86.1875 3.15625 86.347656 L 0.78125 88.722656 C 0.703125 88.804688 0.65625 88.910156 0.65625 89.019531 C 0.65625 89.132812 0.703125 89.238281 0.78125 89.320312 L 7.023438 95.558594 L 0.78125 101.800781 C 0.703125 101.882812 0.65625 101.988281 0.65625 102.101562 C 0.65625 102.210938 0.703125 102.316406 0.78125 102.398438 L 3.15625 104.773438 C 3.238281 104.855469 3.347656 104.898438 3.457031 104.898438 C 3.5625 104.898438 3.671875 104.855469 3.753906 104.773438 L 9.996094 98.53125 L 16.238281 104.773438 C 16.402344 104.9375 16.667969 104.9375 16.832031 104.773438 L 19.207031 102.398438 C 19.371094 102.234375 19.371094 101.96875 19.207031 101.800781 Z M 12.964844 95.558594 " fill-opacity="1" fill-rule="nonzero"/></g><g clip-path="url(#b5b159d31c)"><path fill="#fdfcff" d="M 12.964844 67.886719 L 19.207031 61.644531 C 19.371094 61.480469 19.371094 61.214844 19.207031 61.050781 L 16.832031 58.671875 C 16.75 58.59375 16.644531 58.550781 16.535156 58.550781 C 16.421875 58.550781 16.316406 58.59375 16.238281 58.671875 L 9.996094 64.914062 L 3.753906 58.671875 C 3.59375 58.515625 3.316406 58.515625 3.15625 58.671875 L 0.78125 61.050781 C 0.703125 61.128906 0.65625 61.234375 0.65625 61.347656 C 0.65625 61.457031 0.703125 61.566406 0.78125 61.644531 L 7.023438 67.886719 L 0.78125 74.128906 C 0.703125 74.207031 0.65625 74.3125 0.65625 74.425781 C 0.65625 74.539062 0.703125 74.644531 0.78125 74.722656 L 3.15625 77.101562 C 3.238281 77.183594 3.347656 77.222656 3.457031 77.222656 C 3.5625 77.222656 3.671875 77.183594 3.753906 77.101562 L 9.996094 70.859375 L 16.238281 77.101562 C 16.402344 77.265625 16.667969 77.265625 16.832031 77.101562 L 19.207031 74.722656 C 19.371094 74.558594 19.371094 74.292969 19.207031 74.128906 Z M 12.964844 67.886719 " fill-opacity="1" fill-rule="nonzero"/></g><g clip-path="url(#266e6da1f9)"><path fill="#ffffff" d="M 12.964844 10.335938 L 19.207031 4.09375 C 19.371094 3.929688 19.371094 3.664062 19.207031 3.5 L 16.832031 1.121094 C 16.75 1.042969 16.644531 0.996094 16.535156 0.996094 C 16.421875 0.996094 16.316406 1.042969 16.238281 1.121094 L 9.996094 7.363281 L 3.753906 1.121094 C 3.59375 0.964844 3.316406 0.964844 3.15625 1.121094 L 0.78125 3.5 C 0.703125 3.578125 0.65625 3.683594 0.65625 3.796875 C 0.65625 3.90625 0.703125 4.015625 0.78125 4.09375 L 7.023438 10.335938 L 0.78125 16.578125 C 0.703125 16.65625 0.65625 16.761719 0.65625 16.875 C 0.65625 16.984375 0.703125 17.09375 0.78125 17.171875 L 3.15625 19.546875 C 3.238281 19.628906 3.347656 19.671875 3.457031 19.671875 C 3.5625 19.671875 3.671875 19.628906 3.753906 19.546875 L 9.996094 13.308594 L 16.238281 19.546875 C 16.402344 19.714844 16.667969 19.714844 16.832031 19.546875 L 19.207031 17.171875 C 19.371094 17.007812 19.371094 16.742188 19.207031 16.578125 Z M 12.964844 10.335938 " fill-opacity="1" fill-rule="nonzero"/></g></g></g><g transform="matrix(1, 0, 0, 1, 815, 94)"><g clip-path="url(#99ba60c9ff)"><g clip-path="url(#9e776070e8)"><path fill="#ffffff" d="M 95.160156 6.886719 L 88.917969 0.644531 C 88.753906 0.480469 88.488281 0.480469 88.324219 0.644531 L 85.949219 3.023438 C 85.867188 3.101562 85.824219 3.207031 85.824219 3.320312 C 85.824219 3.429688 85.867188 3.539062 85.949219 3.617188 L 92.1875 9.859375 L 85.949219 16.101562 C 85.789062 16.257812 85.789062 16.539062 85.949219 16.695312 L 88.324219 19.074219 C 88.40625 19.152344 88.511719 19.195312 88.621094 19.195312 C 88.734375 19.195312 88.839844 19.152344 88.917969 19.074219 L 95.160156 12.832031 L 101.402344 19.074219 C 101.484375 19.152344 101.589844 19.195312 101.699219 19.195312 C 101.8125 19.195312 101.917969 19.152344 101.996094 19.074219 L 104.375 16.695312 C 104.457031 16.613281 104.5 16.503906 104.5 16.398438 C 104.5 16.289062 104.457031 16.183594 104.375 16.101562 L 98.132812 9.859375 L 104.375 3.617188 C 104.539062 3.453125 104.539062 3.1875 104.375 3.023438 L 101.996094 0.644531 C 101.832031 0.480469 101.566406 0.480469 101.402344 0.644531 Z M 95.160156 6.886719 " fill-opacity="1" fill-rule="nonzero"/></g><g clip-path="url(#e9e87f6944)"><path fill="#1e3148" d="M 67.488281 6.886719 L 61.246094 0.644531 C 61.082031 0.480469 60.816406 0.480469 60.652344 0.644531 L 58.273438 3.023438 C 58.195312 3.101562 58.148438 3.207031 58.148438 3.320312 C 58.148438 3.429688 58.195312 3.539062 58.273438 3.617188 L 64.515625 9.859375 L 58.273438 16.101562 C 58.117188 16.257812 58.117188 16.539062 58.273438 16.695312 L 60.652344 19.074219 C 60.730469 19.152344 60.835938 19.195312 60.949219 19.195312 C 61.058594 19.195312 61.167969 19.152344 61.246094 19.074219 L 67.488281 12.832031 L 73.730469 19.074219 C 73.808594 19.152344 73.914062 19.195312 74.027344 19.195312 C 74.136719 19.195312 74.246094 19.152344 74.324219 19.074219 L 76.703125 16.695312 C 76.785156 16.613281 76.824219 16.503906 76.824219 16.398438 C 76.824219 16.289062 76.785156 16.183594 76.703125 16.101562 L 70.460938 9.859375 L 76.703125 3.617188 C 76.867188 3.453125 76.867188 3.1875 76.703125 3.023438 L 74.324219 0.644531 C 74.160156 0.480469 73.894531 0.480469 73.730469 0.644531 Z M 67.488281 6.886719 " fill-opacity="1" fill-rule="nonzero"/></g><g clip-path="url(#6b1d032110)"><path fill="#ffffff" d="M 9.9375 6.886719 L 3.695312 0.644531 C 3.53125 0.480469 3.265625 0.480469 3.101562 0.644531 L 0.722656 3.023438 C 0.644531 3.101562 0.597656 3.207031 0.597656 3.320312 C 0.597656 3.429688 0.644531 3.539062 0.722656 3.617188 L 6.964844 9.859375 L 0.722656 16.101562 C 0.5625 16.257812 0.5625 16.539062 0.722656 16.695312 L 3.101562 19.074219 C 3.179688 19.152344 3.285156 19.195312 3.398438 19.195312 C 3.507812 19.195312 3.617188 19.152344 3.695312 19.074219 L 9.9375 12.832031 L 16.179688 19.074219 C 16.257812 19.152344 16.363281 19.195312 16.476562 19.195312 C 16.585938 19.195312 16.695312 19.152344 16.773438 19.074219 L 19.148438 16.695312 C 19.230469 16.613281 19.273438 16.503906 19.273438 16.398438 C 19.273438 16.289062 19.230469 16.183594 19.148438 16.101562 L 12.90625 9.859375 L 19.148438 3.617188 C 19.3125 3.453125 19.3125 3.1875 19.148438 3.023438 L 16.773438 0.644531 C 16.609375 0.480469 16.34375 0.480469 16.179688 0.644531 Z M 9.9375 6.886719 " fill-opacity="1" fill-rule="nonzero"/></g></g></g><g clip-path="url(#cd4a82e790)"><path fill="#ffffff" d="M 1481.570312 386.082031 L 1621.625 246.027344 C 1625.3125 242.339844 1625.3125 236.378906 1621.625 232.691406 L 1568.277344 179.335938 C 1566.503906 177.5625 1564.117188 176.574219 1561.609375 176.574219 C 1559.101562 176.574219 1556.703125 177.5625 1554.941406 179.335938 L 1414.878906 319.390625 L 1274.824219 179.335938 C 1271.285156 175.800781 1265.023438 175.800781 1261.488281 179.335938 L 1208.132812 232.691406 C 1206.359375 234.464844 1205.367188 236.859375 1205.367188 239.359375 C 1205.367188 241.859375 1206.359375 244.265625 1208.132812 246.027344 L 1348.183594 386.082031 L 1208.132812 526.144531 C 1206.359375 527.917969 1205.367188 530.304688 1205.367188 532.8125 C 1205.367188 535.324219 1206.359375 537.71875 1208.132812 539.480469 L 1261.488281 592.828125 C 1263.328125 594.667969 1265.742188 595.59375 1268.15625 595.59375 C 1270.570312 595.59375 1272.984375 594.667969 1274.824219 592.828125 L 1414.878906 452.773438 L 1554.941406 592.828125 C 1558.628906 596.515625 1564.589844 596.515625 1568.277344 592.828125 L 1621.625 539.480469 C 1625.3125 535.792969 1625.3125 529.832031 1621.625 526.144531 Z M 1481.570312 386.082031 " fill-opacity="1" fill-rule="nonzero"/></g><g clip-path="url(#a72bbbd53f)"><path fill="#ffffff" d="M 1205.324219 597.894531 L 1203.957031 596.589844 L 1095.839844 711.480469 L 987.726562 596.589844 L 986.359375 597.894531 L 1094.535156 712.910156 L 986.359375 827.863281 L 987.726562 829.171875 L 1095.839844 714.277344 L 1203.957031 829.171875 L 1205.324219 827.863281 L 1097.148438 712.847656 Z M 1205.324219 597.894531 " fill-opacity="1" fill-rule="nonzero"/></g></svg>